<?xml version="1.0" standalone="no"?>
<svg width="567.429" height="289.64" viewBox="0 0 567.429 289.64" xmlns="http://www.w3.org/2000/svg" shape-rendering="crispEdges">
<title>
/home/nik/Documents/monteising/c1.svg
</title>
<desc>
Creator: ROOT Version 6.10/08
CreationDate: Tue Dec 12 19:22:07 2017</desc>
<defs>
</defs>
<rect x="0.5" y="0" width="566.929" height="289.14" fill="white"/>
<rect x="57.1929" y="28.914" width="453.543" height="231.312" fill="white"/>
<rect x="57.1929" y="28.914" width="453.543" height="231.312" fill="none" stroke="black"/>
<rect x="57.1929" y="28.914" width="453.543" height="231.312" fill="white"/>
<rect x="57.1929" y="28.914" width="453.543" height="231.312" fill="none" stroke="black"/>
<path d="M57.1929,260.226h 453.543" fill="none" stroke="black"/>
<path d="M77.8082,28.914v 231.312" fill="none" stroke="black" stroke-dasharray=" 1, 2"/>
<path d="M141.221,28.914v 231.312" fill="none" stroke="black" stroke-dasharray=" 1, 2"/>
<path d="M204.634,28.914v 231.312" fill="none" stroke="black" stroke-dasharray=" 1, 2"/>
<path d="M268.047,28.914v 231.312" fill="none" stroke="black" stroke-dasharray=" 1, 2"/>
<path d="M331.46,28.914v 231.312" fill="none" stroke="black" stroke-dasharray=" 1, 2"/>
<path d="M394.873,28.914v 231.312" fill="none" stroke="black" stroke-dasharray=" 1, 2"/>
<path d="M458.286,28.914v 231.312" fill="none" stroke="black" stroke-dasharray=" 1, 2"/>
<path d="M77.8082,28.914v 231.312" fill="none" stroke="black" stroke-dasharray=" 1, 2"/>
<path d="M458.286,28.914v 231.312" fill="none" stroke="black" stroke-dasharray=" 1, 2"/>
<path d="M57.1929,260.226v -231.312" fill="none" stroke="black"/>
<path d="M510.736,233.897h -453.543" fill="none" stroke="black" stroke-dasharray=" 1, 2"/>
<path d="M510.736,207.543h -453.543" fill="none" stroke="black" stroke-dasharray=" 1, 2"/>
<path d="M510.736,181.19h -453.543" fill="none" stroke="black" stroke-dasharray=" 1, 2"/>
<path d="M510.736,154.836h -453.543" fill="none" stroke="black" stroke-dasharray=" 1, 2"/>
<path d="M510.736,128.482h -453.543" fill="none" stroke="black" stroke-dasharray=" 1, 2"/>
<path d="M510.736,102.129h -453.543" fill="none" stroke="black" stroke-dasharray=" 1, 2"/>
<path d="M510.736,75.7751h -453.543" fill="none" stroke="black" stroke-dasharray=" 1, 2"/>
<path d="M510.736,49.4215h -453.543" fill="none" stroke="black" stroke-dasharray=" 1, 2"/>
<path d="M510.736,233.897h -453.543" fill="none" stroke="black" stroke-dasharray=" 1, 2"/>
<path d="M510.736,49.4215h -453.543" fill="none" stroke="black" stroke-dasharray=" 1, 2"/>
<path d="M57.1929,260.226h 453.543" fill="none" stroke="black"/>
<path d="M77.8082,253.286v 6.93936" fill="none" stroke="black"/>
<path d="M90.4908,256.756v 3.46968" fill="none" stroke="black"/>
<path d="M103.173,256.756v 3.46968" fill="none" stroke="black"/>
<path d="M115.856,256.756v 3.46968" fill="none" stroke="black"/>
<path d="M128.539,256.756v 3.46968" fill="none" stroke="black"/>
<path d="M141.221,253.286v 6.93936" fill="none" stroke="black"/>
<path d="M153.904,256.756v 3.46968" fill="none" stroke="black"/>
<path d="M166.586,256.756v 3.46968" fill="none" stroke="black"/>
<path d="M179.269,256.756v 3.46968" fill="none" stroke="black"/>
<path d="M191.952,256.756v 3.46968" fill="none" stroke="black"/>
<path d="M204.634,253.286v 6.93936" fill="none" stroke="black"/>
<path d="M217.317,256.756v 3.46968" fill="none" stroke="black"/>
<path d="M229.999,256.756v 3.46968" fill="none" stroke="black"/>
<path d="M242.682,256.756v 3.46968" fill="none" stroke="black"/>
<path d="M255.365,256.756v 3.46968" fill="none" stroke="black"/>
<path d="M268.047,253.286v 6.93936" fill="none" stroke="black"/>
<path d="M280.73,256.756v 3.46968" fill="none" stroke="black"/>
<path d="M293.412,256.756v 3.46968" fill="none" stroke="black"/>
<path d="M306.095,256.756v 3.46968" fill="none" stroke="black"/>
<path d="M318.778,256.756v 3.46968" fill="none" stroke="black"/>
<path d="M331.46,253.286v 6.93936" fill="none" stroke="black"/>
<path d="M344.143,256.756v 3.46968" fill="none" stroke="black"/>
<path d="M356.825,256.756v 3.46968" fill="none" stroke="black"/>
<path d="M369.508,256.756v 3.46968" fill="none" stroke="black"/>
<path d="M382.19,256.756v 3.46968" fill="none" stroke="black"/>
<path d="M394.873,253.286v 6.93936" fill="none" stroke="black"/>
<path d="M407.556,256.756v 3.46968" fill="none" stroke="black"/>
<path d="M420.238,256.756v 3.46968" fill="none" stroke="black"/>
<path d="M432.921,256.756v 3.46968" fill="none" stroke="black"/>
<path d="M445.603,256.756v 3.46968" fill="none" stroke="black"/>
<path d="M458.286,253.286v 6.93936" fill="none" stroke="black"/>
<path d="M77.8082,253.286v 6.93936" fill="none" stroke="black"/>
<path d="M65.1256,256.756v 3.46968" fill="none" stroke="black"/>
<path d="M458.286,253.286v 6.93936" fill="none" stroke="black"/>
<path d="M470.969,256.756v 3.46968" fill="none" stroke="black"/>
<path d="M483.651,256.756v 3.46968" fill="none" stroke="black"/>
<path d="M496.334,256.756v 3.46968" fill="none" stroke="black"/>
<path d="M509.016,256.756v 3.46968" fill="none" stroke="black"/>
<text xml:space="preserve" x="74.8758" y="269.724" fill="black" font-size="9.78431" font-family="Helvetica">0</text>
<text xml:space="preserve" x="139.395" y="269.724" fill="black" font-size="9.78431" font-family="Helvetica">1</text>
<text xml:space="preserve" x="201.823" y="269.724" fill="black" font-size="9.78431" font-family="Helvetica">2</text>
<text xml:space="preserve" x="265.147" y="269.724" fill="black" font-size="9.78431" font-family="Helvetica">3</text>
<text xml:space="preserve" x="328.769" y="269.724" fill="black" font-size="9.78431" font-family="Helvetica">4</text>
<text xml:space="preserve" x="392.093" y="269.724" fill="black" font-size="9.78431" font-family="Helvetica">5</text>
<text xml:space="preserve" x="455.417" y="269.724" fill="black" font-size="9.78431" font-family="Helvetica">6</text>
<text xml:space="preserve" x="507.988" y="277.491" fill="black" font-size="9.78431" font-family="Helvetica">)</text>
<text xml:space="preserve" x="504.404" y="286.452" fill="black" font-size="6.68954" font-family="Helvetica">b</text>
<text xml:space="preserve" x="499.625" y="283.465" fill="black" font-size="9.78431" font-family="Helvetica">k</text>
<text xml:space="preserve" x="501.716" y="273.309" fill="black" font-size="9.78431" font-family="Helvetica">J</text>
<path d="M499.625,275.101h 8.36355" fill="none" stroke="black"/>
<text xml:space="preserve" x="439.288" y="277.491" fill="black" font-size="9.78431" font-family="Helvetica">Temeprature (</text>
<path d="M57.1929,260.226v -231.312" fill="none" stroke="black"/>
<path d="M70.7992,233.897h -13.6063" fill="none" stroke="black"/>
<path d="M63.9961,227.308h -6.80315" fill="none" stroke="black"/>
<path d="M63.9961,220.72h -6.80315" fill="none" stroke="black"/>
<path d="M63.9961,214.132h -6.80315" fill="none" stroke="black"/>
<path d="M70.7992,207.543h -13.6063" fill="none" stroke="black"/>
<path d="M63.9961,200.955h -6.80315" fill="none" stroke="black"/>
<path d="M63.9961,194.366h -6.80315" fill="none" stroke="black"/>
<path d="M63.9961,187.778h -6.80315" fill="none" stroke="black"/>
<path d="M70.7992,181.19h -13.6063" fill="none" stroke="black"/>
<path d="M63.9961,174.601h -6.80315" fill="none" stroke="black"/>
<path d="M63.9961,168.013h -6.80315" fill="none" stroke="black"/>
<path d="M63.9961,161.424h -6.80315" fill="none" stroke="black"/>
<path d="M70.7992,154.836h -13.6063" fill="none" stroke="black"/>
<path d="M63.9961,148.248h -6.80315" fill="none" stroke="black"/>
<path d="M63.9961,141.659h -6.80315" fill="none" stroke="black"/>
<path d="M63.9961,135.071h -6.80315" fill="none" stroke="black"/>
<path d="M70.7992,128.482h -13.6063" fill="none" stroke="black"/>
<path d="M63.9961,121.894h -6.80315" fill="none" stroke="black"/>
<path d="M63.9961,115.306h -6.80315" fill="none" stroke="black"/>
<path d="M63.9961,108.717h -6.80315" fill="none" stroke="black"/>
<path d="M70.7992,102.129h -13.6063" fill="none" stroke="black"/>
<path d="M63.9961,95.5403h -6.80315" fill="none" stroke="black"/>
<path d="M63.9961,88.9519h -6.80315" fill="none" stroke="black"/>
<path d="M63.9961,82.3635h -6.80315" fill="none" stroke="black"/>
<path d="M70.7992,75.7751h -13.6063" fill="none" stroke="black"/>
<path d="M63.9961,69.1867h -6.80315" fill="none" stroke="black"/>
<path d="M63.9961,62.5983h -6.80315" fill="none" stroke="black"/>
<path d="M63.9961,56.0099h -6.80315" fill="none" stroke="black"/>
<path d="M70.7992,49.4215h -13.6063" fill="none" stroke="black"/>
<path d="M70.7992,233.897h -13.6063" fill="none" stroke="black"/>
<path d="M63.9961,240.485h -6.80315" fill="none" stroke="black"/>
<path d="M63.9961,247.074h -6.80315" fill="none" stroke="black"/>
<path d="M63.9961,253.662h -6.80315" fill="none" stroke="black"/>
<path d="M70.7992,49.4215h -13.6063" fill="none" stroke="black"/>
<path d="M63.9961,42.833h -6.80315" fill="none" stroke="black"/>
<path d="M63.9961,36.2446h -6.80315" fill="none" stroke="black"/>
<path d="M63.9961,29.6562h -6.80315" fill="none" stroke="black"/>
<text xml:space="preserve" x="38.7334" y="237.465" fill="black" font-size="9.78431" font-family="Helvetica">180</text>
<text xml:space="preserve" x="33.6555" y="237.465" fill="black" font-size="9.78431" font-family="Times">&#8722;</text>
<text xml:space="preserve" x="38.7334" y="210.881" fill="black" font-size="9.78431" font-family="Helvetica">160</text>
<text xml:space="preserve" x="33.6555" y="210.881" fill="black" font-size="9.78431" font-family="Times">&#8722;</text>
<text xml:space="preserve" x="38.7334" y="184.595" fill="black" font-size="9.78431" font-family="Helvetica">140</text>
<text xml:space="preserve" x="33.6555" y="184.595" fill="black" font-size="9.78431" font-family="Times">&#8722;</text>
<text xml:space="preserve" x="38.7334" y="158.31" fill="black" font-size="9.78431" font-family="Helvetica">120</text>
<text xml:space="preserve" x="33.6555" y="158.31" fill="black" font-size="9.78431" font-family="Times">&#8722;</text>
<text xml:space="preserve" x="38.7334" y="132.025" fill="black" font-size="9.78431" font-family="Helvetica">100</text>
<text xml:space="preserve" x="33.6555" y="132.025" fill="black" font-size="9.78431" font-family="Times">&#8722;</text>
<text xml:space="preserve" x="43.8112" y="105.44" fill="black" font-size="9.78431" font-family="Helvetica">80</text>
<text xml:space="preserve" x="38.7334" y="105.44" fill="black" font-size="9.78431" font-family="Times">&#8722;</text>
<text xml:space="preserve" x="43.8112" y="79.155" fill="black" font-size="9.78431" font-family="Helvetica">60</text>
<text xml:space="preserve" x="38.7334" y="79.155" fill="black" font-size="9.78431" font-family="Times">&#8722;</text>
<text xml:space="preserve" x="43.8112" y="52.8696" fill="black" font-size="9.78431" font-family="Helvetica">40</text>
<text xml:space="preserve" x="38.7334" y="52.8696" fill="black" font-size="9.78431" font-family="Times">&#8722;</text>
<text xml:space="preserve" x="72.785" y="23.2985" fill="black" font-size="6.68954" font-family="Helvetica">3</text>
<text xml:space="preserve" x="62.3305" y="27.7789" fill="black" font-size="9.78431" font-family="Helvetica">10</text>
<text xml:space="preserve" x="56.954" y="27.7789" fill="black" font-size="9.78431" font-family="Times">&#0215;</text>
<g transform="rotate(-90,19.6167,72.285)">
<text xml:space="preserve" x="19.6167" y="72.285" fill="black" font-size="9.78431" font-family="Helvetica">Energy (J)</text>
</g>
<path d="M315.612,179.651v -0.132113" fill="none" stroke="black"/>
<path d="M315.014,179.519h 1.19479" fill="none" stroke="black"/>
<path d="M315.612,182.04v 0.132113" fill="none" stroke="black"/>
<path d="M315.014,182.173h 1.19479" fill="none" stroke="black"/>
<path d="M320.685,172.653v -0.163737" fill="none" stroke="black"/>
<path d="M320.087,172.489h 1.19479" fill="none" stroke="black"/>
<path d="M320.685,175.042v 0.163737" fill="none" stroke="black"/>
<path d="M320.087,175.206h 1.19479" fill="none" stroke="black"/>
<path d="M325.758,165.249v -0.403555" fill="none" stroke="black"/>
<path d="M325.16,164.845h 1.19479" fill="none" stroke="black"/>
<path d="M325.758,167.638v 0.403555" fill="none" stroke="black"/>
<path d="M325.16,168.042h 1.19479" fill="none" stroke="black"/>
<path d="M332.099,155.362v -0.27574" fill="none" stroke="black"/>
<path d="M331.502,155.086h 1.19479" fill="none" stroke="black"/>
<path d="M332.099,157.752v 0.27574" fill="none" stroke="black"/>
<path d="M331.502,158.027h 1.19479" fill="none" stroke="black"/>
<path d="M337.172,146.816v -0.361389" fill="none" stroke="black"/>
<path d="M336.575,146.454h 1.19479" fill="none" stroke="black"/>
<path d="M337.172,149.205v 0.361389" fill="none" stroke="black"/>
<path d="M336.575,149.567h 1.19479" fill="none" stroke="black"/>
<path d="M342.245,137.106v -0.352165" fill="none" stroke="black"/>
<path d="M341.648,136.753h 1.19479" fill="none" stroke="black"/>
<path d="M342.245,139.495v 0.352165" fill="none" stroke="black"/>
<path d="M341.648,139.847h 1.19479" fill="none" stroke="black"/>
<path d="M347.318,126.737v -0.381154" fill="none" stroke="black"/>
<path d="M346.721,126.356h 1.19479" fill="none" stroke="black"/>
<path d="M347.318,129.126v 0.381154" fill="none" stroke="black"/>
<path d="M346.721,129.507h 1.19479" fill="none" stroke="black"/>
<path d="M352.391,115.194v -0.553771" fill="none" stroke="black"/>
<path d="M351.794,114.64h 1.19479" fill="none" stroke="black"/>
<path d="M352.391,117.583v 0.553771" fill="none" stroke="black"/>
<path d="M351.794,118.137h 1.19479" fill="none" stroke="black"/>
<path d="M357.464,101.653v -1.04" fill="none" stroke="black"/>
<path d="M356.867,100.613h 1.19479" fill="none" stroke="black"/>
<path d="M357.464,104.043v 1.04" fill="none" stroke="black"/>
<path d="M356.867,105.083h 1.19479" fill="none" stroke="black"/>
<path d="M363.806,80.6034v -1.33252" fill="none" stroke="black"/>
<path d="M363.208,79.2709h 1.19479" fill="none" stroke="black"/>
<path d="M363.806,82.993v 1.33252" fill="none" stroke="black"/>
<path d="M363.208,84.3255h 1.19479" fill="none" stroke="black"/>
<path d="M77.8085,232.184l 63.413, 17.5173l 25.4674, -0.188428l 25.4674, -1.15824l 25.4674, -3.55115l 25.4674, -7.42645l 25.4674, -12.8026l 31.8342, -26.0716l 5.07304, -5.53426l 5.07304, -5.99413l 5.07304, -6.12854l 5.07304, -6.99821l 5.07304,
 -7.40405l 6.3413, -9.88656l 5.07304, -8.54648l 5.07304, -9.70999l 5.07304, -10.3688l 5.07304, -11.5429l 5.07304, -13.5405l 6.3413, -21.05l 25.263, -18.8507l 25.263, -8.51881l 25.263, -6.00467l 25.263, -4.68172l 25.263, -3.62758" fill="none"
 stroke="black"/>
<g stroke="#3333ff" stroke-width="1" fill="#3333ff">
<polygon points=" 77.8085, 230.989 79.0033, 233.379 76.6137, 233.379"/>
<polygon points=" 141.222, 248.506 142.416, 250.896 140.027, 250.896"/>
<polygon points=" 166.689, 248.318 167.884, 250.707 165.494, 250.707"/>
<polygon points=" 192.156, 247.16 193.351, 249.549 190.961, 249.549"/>
<polygon points=" 217.624, 243.609 218.818, 245.998 216.429, 245.998"/>
<polygon points=" 243.091, 236.182 244.286, 238.572 241.896, 238.572"/>
<polygon points=" 268.558, 223.379 269.753, 225.769 267.364, 225.769"/>
<polygon points=" 300.393, 197.308 301.587, 199.697 299.198, 199.697"/>
<polygon points=" 305.466, 191.774 306.66, 194.163 304.271, 194.163"/>
<polygon points=" 310.539, 185.779 311.733, 188.169 309.344, 188.169"/>
<polygon points=" 315.612, 179.651 316.806, 182.04 314.417, 182.04"/>
<polygon points=" 320.685, 172.653 321.88, 175.042 319.49, 175.042"/>
<polygon points=" 325.758, 165.249 326.953, 167.638 324.563, 167.638"/>
<polygon points=" 332.099, 155.362 333.294, 157.752 330.904, 157.752"/>
<polygon points=" 337.172, 146.816 338.367, 149.205 335.977, 149.205"/>
<polygon points=" 342.245, 137.106 343.44, 139.495 341.05, 139.495"/>
<polygon points=" 347.318, 126.737 348.513, 129.126 346.123, 129.126"/>
<polygon points=" 352.391, 115.194 353.586, 117.583 351.196, 117.583"/>
<polygon points=" 357.464, 101.653 358.659, 104.043 356.269, 104.043"/>
<polygon points=" 363.806, 80.6034 365, 82.993 362.611, 82.993"/>
<polygon points=" 389.069, 61.7527 390.263, 64.1423 387.874, 64.1423"/>
<polygon points=" 414.332, 53.2339 415.526, 55.6234 413.137, 55.6234"/>
<polygon points=" 439.595, 47.2292 440.789, 49.6188 438.4, 49.6188"/>
<polygon points=" 464.858, 42.5475 466.052, 44.937 463.663, 44.937"/>
<polygon points=" 490.121, 38.9199 491.315, 41.3095 488.926, 41.3095"/>
</g>
<text xml:space="preserve" x="155.823" y="14.0388" fill="black" font-size="14.1998" font-family="Helvetica">Energy on Temperature for Different Size</text>
<rect x="133.122" y="121.793" width="80.6485" height="38.9105" fill="white"/>
<path d="M133.122,160.704h 80.6485" fill="none" stroke="black"/>
<path d="M213.77,160.704v -38.9105" fill="none" stroke="black"/>
<path d="M213.77,121.793h -80.6485" fill="none" stroke="black"/>
<path d="M133.122,121.793v 38.9105" fill="none" stroke="black"/>
<text xml:space="preserve" x="159.109" y="135.609" fill="black" font-size="9.54948" font-family="Helvetica">Legend</text>
<text xml:space="preserve" x="153.135" y="155.323" fill="black" font-size="9.54948" font-family="Helvetica">Lattice 40x40</text>
<path d="M136.146,150.976h 14.1135" fill="none" stroke="black"/>
<path d="M143.203,149.781v -4.64178" fill="none" stroke="black"/>
<path d="M143.203,152.171v 4.64178" fill="none" stroke="black"/>
<path d="M142.145,145.139h 2.11702" fill="none" stroke="black"/>
<path d="M142.145,156.812h 2.11702" fill="none" stroke="black"/>
<g stroke="#3333ff" stroke-width="1" fill="#3333ff">
<polygon points=" 143.203, 149.781 144.398, 152.171 142.008, 152.171"/>
</g></svg>
