<?xml version="1.0" standalone="no"?>
<svg width="567.429" height="289.64" viewBox="0 0 567.429 289.64" xmlns="http://www.w3.org/2000/svg" shape-rendering="crispEdges">
<title>
/home/nik/Documents/monteising/c2.svg
</title>
<desc>
Creator: ROOT Version 6.10/08
CreationDate: Tue Dec 12 19:22:56 2017</desc>
<defs>
</defs>
<rect x="0.5" y="0" width="566.929" height="289.14" fill="white"/>
<rect x="57.1929" y="28.914" width="453.543" height="231.312" fill="white"/>
<rect x="57.1929" y="28.914" width="453.543" height="231.312" fill="none" stroke="black"/>
<rect x="57.1929" y="28.914" width="453.543" height="231.312" fill="white"/>
<rect x="57.1929" y="28.914" width="453.543" height="231.312" fill="none" stroke="black"/>
<path d="M57.1929,260.226h 453.543" fill="none" stroke="black"/>
<path d="M77.8082,28.914v 231.312" fill="none" stroke="black" stroke-dasharray=" 1, 2"/>
<path d="M141.221,28.914v 231.312" fill="none" stroke="black" stroke-dasharray=" 1, 2"/>
<path d="M204.634,28.914v 231.312" fill="none" stroke="black" stroke-dasharray=" 1, 2"/>
<path d="M268.047,28.914v 231.312" fill="none" stroke="black" stroke-dasharray=" 1, 2"/>
<path d="M331.46,28.914v 231.312" fill="none" stroke="black" stroke-dasharray=" 1, 2"/>
<path d="M394.873,28.914v 231.312" fill="none" stroke="black" stroke-dasharray=" 1, 2"/>
<path d="M458.286,28.914v 231.312" fill="none" stroke="black" stroke-dasharray=" 1, 2"/>
<path d="M77.8082,28.914v 231.312" fill="none" stroke="black" stroke-dasharray=" 1, 2"/>
<path d="M458.286,28.914v 231.312" fill="none" stroke="black" stroke-dasharray=" 1, 2"/>
<path d="M57.1929,260.226v -231.312" fill="none" stroke="black"/>
<path d="M510.736,260.226h -453.543" fill="none" stroke="black" stroke-dasharray=" 1, 2"/>
<path d="M510.736,216.166h -453.543" fill="none" stroke="black" stroke-dasharray=" 1, 2"/>
<path d="M510.736,172.105h -453.543" fill="none" stroke="black" stroke-dasharray=" 1, 2"/>
<path d="M510.736,128.045h -453.543" fill="none" stroke="black" stroke-dasharray=" 1, 2"/>
<path d="M510.736,83.985h -453.543" fill="none" stroke="black" stroke-dasharray=" 1, 2"/>
<path d="M510.736,39.9247h -453.543" fill="none" stroke="black" stroke-dasharray=" 1, 2"/>
<path d="M510.736,39.9247h -453.543" fill="none" stroke="black" stroke-dasharray=" 1, 2"/>
<path d="M57.1929,260.226h 453.543" fill="none" stroke="black"/>
<path d="M77.8082,253.286v 6.93936" fill="none" stroke="black"/>
<path d="M90.4908,256.756v 3.46968" fill="none" stroke="black"/>
<path d="M103.173,256.756v 3.46968" fill="none" stroke="black"/>
<path d="M115.856,256.756v 3.46968" fill="none" stroke="black"/>
<path d="M128.539,256.756v 3.46968" fill="none" stroke="black"/>
<path d="M141.221,253.286v 6.93936" fill="none" stroke="black"/>
<path d="M153.904,256.756v 3.46968" fill="none" stroke="black"/>
<path d="M166.586,256.756v 3.46968" fill="none" stroke="black"/>
<path d="M179.269,256.756v 3.46968" fill="none" stroke="black"/>
<path d="M191.952,256.756v 3.46968" fill="none" stroke="black"/>
<path d="M204.634,253.286v 6.93936" fill="none" stroke="black"/>
<path d="M217.317,256.756v 3.46968" fill="none" stroke="black"/>
<path d="M229.999,256.756v 3.46968" fill="none" stroke="black"/>
<path d="M242.682,256.756v 3.46968" fill="none" stroke="black"/>
<path d="M255.365,256.756v 3.46968" fill="none" stroke="black"/>
<path d="M268.047,253.286v 6.93936" fill="none" stroke="black"/>
<path d="M280.73,256.756v 3.46968" fill="none" stroke="black"/>
<path d="M293.412,256.756v 3.46968" fill="none" stroke="black"/>
<path d="M306.095,256.756v 3.46968" fill="none" stroke="black"/>
<path d="M318.778,256.756v 3.46968" fill="none" stroke="black"/>
<path d="M331.46,253.286v 6.93936" fill="none" stroke="black"/>
<path d="M344.143,256.756v 3.46968" fill="none" stroke="black"/>
<path d="M356.825,256.756v 3.46968" fill="none" stroke="black"/>
<path d="M369.508,256.756v 3.46968" fill="none" stroke="black"/>
<path d="M382.191,256.756v 3.46968" fill="none" stroke="black"/>
<path d="M394.873,253.286v 6.93936" fill="none" stroke="black"/>
<path d="M407.556,256.756v 3.46968" fill="none" stroke="black"/>
<path d="M420.238,256.756v 3.46968" fill="none" stroke="black"/>
<path d="M432.921,256.756v 3.46968" fill="none" stroke="black"/>
<path d="M445.603,256.756v 3.46968" fill="none" stroke="black"/>
<path d="M458.286,253.286v 6.93936" fill="none" stroke="black"/>
<path d="M77.8082,253.286v 6.93936" fill="none" stroke="black"/>
<path d="M65.1256,256.756v 3.46968" fill="none" stroke="black"/>
<path d="M458.286,253.286v 6.93936" fill="none" stroke="black"/>
<path d="M470.969,256.756v 3.46968" fill="none" stroke="black"/>
<path d="M483.651,256.756v 3.46968" fill="none" stroke="black"/>
<path d="M496.334,256.756v 3.46968" fill="none" stroke="black"/>
<path d="M509.016,256.756v 3.46968" fill="none" stroke="black"/>
<text xml:space="preserve" x="74.8758" y="269.724" fill="black" font-size="9.78431" font-family="Helvetica">0</text>
<text xml:space="preserve" x="139.395" y="269.724" fill="black" font-size="9.78431" font-family="Helvetica">1</text>
<text xml:space="preserve" x="201.823" y="269.724" fill="black" font-size="9.78431" font-family="Helvetica">2</text>
<text xml:space="preserve" x="265.147" y="269.724" fill="black" font-size="9.78431" font-family="Helvetica">3</text>
<text xml:space="preserve" x="328.769" y="269.724" fill="black" font-size="9.78431" font-family="Helvetica">4</text>
<text xml:space="preserve" x="392.093" y="269.724" fill="black" font-size="9.78431" font-family="Helvetica">5</text>
<text xml:space="preserve" x="455.417" y="269.724" fill="black" font-size="9.78431" font-family="Helvetica">6</text>
<text xml:space="preserve" x="507.988" y="277.491" fill="black" font-size="9.78431" font-family="Helvetica">)</text>
<text xml:space="preserve" x="504.404" y="286.452" fill="black" font-size="6.68954" font-family="Helvetica">b</text>
<text xml:space="preserve" x="499.625" y="283.465" fill="black" font-size="9.78431" font-family="Helvetica">k</text>
<text xml:space="preserve" x="501.716" y="273.309" fill="black" font-size="9.78431" font-family="Helvetica">J</text>
<path d="M499.625,275.101h 8.36355" fill="none" stroke="black"/>
<text xml:space="preserve" x="433.911" y="277.491" fill="black" font-size="9.78431" font-family="Helvetica">Temeperature (</text>
<path d="M57.1929,260.226v -231.312" fill="none" stroke="black"/>
<path d="M70.7992,260.226h -13.6063" fill="none" stroke="black"/>
<path d="M63.9961,249.211h -6.80315" fill="none" stroke="black"/>
<path d="M63.9961,238.196h -6.80315" fill="none" stroke="black"/>
<path d="M63.9961,227.181h -6.80315" fill="none" stroke="black"/>
<path d="M70.7992,216.166h -13.6063" fill="none" stroke="black"/>
<path d="M63.9961,205.151h -6.80315" fill="none" stroke="black"/>
<path d="M63.9961,194.136h -6.80315" fill="none" stroke="black"/>
<path d="M63.9961,183.12h -6.80315" fill="none" stroke="black"/>
<path d="M70.7992,172.105h -13.6063" fill="none" stroke="black"/>
<path d="M63.9961,161.09h -6.80315" fill="none" stroke="black"/>
<path d="M63.9961,150.075h -6.80315" fill="none" stroke="black"/>
<path d="M63.9961,139.06h -6.80315" fill="none" stroke="black"/>
<path d="M70.7992,128.045h -13.6063" fill="none" stroke="black"/>
<path d="M63.9961,117.03h -6.80315" fill="none" stroke="black"/>
<path d="M63.9961,106.015h -6.80315" fill="none" stroke="black"/>
<path d="M63.9961,95h -6.80315" fill="none" stroke="black"/>
<path d="M70.7992,83.985h -13.6063" fill="none" stroke="black"/>
<path d="M63.9961,72.9699h -6.80315" fill="none" stroke="black"/>
<path d="M63.9961,61.9549h -6.80315" fill="none" stroke="black"/>
<path d="M63.9961,50.9398h -6.80315" fill="none" stroke="black"/>
<path d="M70.7992,39.9247h -13.6063" fill="none" stroke="black"/>
<path d="M70.7992,39.9247h -13.6063" fill="none" stroke="black"/>
<text xml:space="preserve" x="49.1878" y="263.75" fill="black" font-size="9.78431" font-family="Helvetica">0</text>
<text xml:space="preserve" x="41.123" y="219.543" fill="black" font-size="9.78431" font-family="Helvetica">0.2</text>
<text xml:space="preserve" x="41.123" y="175.635" fill="black" font-size="9.78431" font-family="Helvetica">0.4</text>
<text xml:space="preserve" x="41.123" y="131.427" fill="black" font-size="9.78431" font-family="Helvetica">0.6</text>
<text xml:space="preserve" x="41.123" y="87.5186" fill="black" font-size="9.78431" font-family="Helvetica">0.8</text>
<text xml:space="preserve" x="50.6813" y="43.3112" fill="black" font-size="9.78431" font-family="Helvetica">1</text>
<g transform="rotate(-90,26.7854,31.3633)">
<text xml:space="preserve" x="26.7854" y="31.3633" fill="black" font-size="9.78431" font-family="Helvetica">)</text>
</g>
<g transform="rotate(-90,26.7854,37.0386)">
<text xml:space="preserve" x="26.7854" y="37.0386" fill="black" font-size="9.78431" font-family="Times">&#0956;</text>
</g>
<g transform="rotate(-90,26.4867,140.388)">
<text xml:space="preserve" x="26.4867" y="140.388" fill="black" font-size="9.78431" font-family="Helvetica">Magnetization per Spin (</text>
</g>
<rect x="113.408" y="115.624" width="204.31" height="57.8912" fill="white"/>
<path d="M113.408,173.516h 204.31" fill="none" stroke="black"/>
<path d="M317.717,173.516v -57.8912" fill="none" stroke="black"/>
<path d="M317.717,115.624h -204.31" fill="none" stroke="black"/>
<path d="M113.408,115.624v 57.8912" fill="none" stroke="black"/>
<text xml:space="preserve" x="134.615" y="126.648" fill="#3333ff" font-size="12.7156" font-family="Helvetica"> / ndf </text>
<text xml:space="preserve" x="130.135" y="122.466" fill="#3333ff" font-size="8.64372" font-family="Helvetica">2</text>
<text xml:space="preserve" x="123.564" y="126.648" fill="#3333ff" font-size="12.7156" font-family="Times">&#0967;</text>
<text xml:space="preserve" x="276.198" y="127.544" fill="#3333ff" font-size="12.7156" font-family="Helvetica">06 / 2</text>
<text xml:space="preserve" x="269.328" y="127.544" fill="#3333ff" font-size="12.7156" font-family="Times">&#8722;</text>
<text xml:space="preserve" x="227.809" y="127.544" fill="#3333ff" font-size="12.7156" font-family="Helvetica"> 7.534e</text>
<text xml:space="preserve" x="123.564" y="141.882" fill="#3333ff" font-size="12.7156" font-family="Helvetica">Tc       </text>
<text xml:space="preserve" x="258.874" y="141.583" fill="#3333ff" font-size="12.7156" font-family="Helvetica"> 0.05407</text>
<text xml:space="preserve" x="252.004" y="141.583" fill="#3333ff" font-size="12.7156" font-family="Times">&#0177;</text>
<text xml:space="preserve" x="213.173" y="141.583" fill="#3333ff" font-size="12.7156" font-family="Helvetica"> 4.707 </text>
<text xml:space="preserve" x="123.564" y="153.83" fill="#3333ff" font-size="12.7156" font-family="Helvetica">exp      </text>
<text xml:space="preserve" x="258.874" y="156.219" fill="#3333ff" font-size="12.7156" font-family="Helvetica"> 0.02333</text>
<text xml:space="preserve" x="252.004" y="156.219" fill="#3333ff" font-size="12.7156" font-family="Times">&#0177;</text>
<text xml:space="preserve" x="206.303" y="156.219" fill="#3333ff" font-size="12.7156" font-family="Helvetica"> 0.3369 </text>
<text xml:space="preserve" x="123.564" y="170.855" fill="#3333ff" font-size="12.7156" font-family="Helvetica">coeff    </text>
<text xml:space="preserve" x="260.965" y="170.557" fill="#3333ff" font-size="12.7156" font-family="Helvetica"> 0.03381</text>
<text xml:space="preserve" x="254.095" y="170.557" fill="#3333ff" font-size="12.7156" font-family="Times">&#0177;</text>
<text xml:space="preserve" x="215.563" y="170.557" fill="#3333ff" font-size="12.7156" font-family="Helvetica"> 1.419 </text>
<path d="M77.8085,174.25l 63.413, -134.321l 25.4674, 0.0822786l 25.4674, 0.510743l 25.4674, 1.60405l 25.4674, 3.48752l 25.4674, 6.39032l 31.8342, 14.5645l 5.07304, 3.3716l 5.07304, 3.82073l 5.07304, 4.02244l 5.07304, 4.83065l 5.07304, 5.43645l
 6.3413, 7.66449l 5.07304, 7.12355l 5.07304, 8.94069l 5.07304, 10.6698l 5.07304, 13.8994l 5.07304, 20.4894l 6.3413, 61.4057l 25.263, 40.077l 25.263, 1.6563l 25.263, 0.15359l 25.263, 0.0964724l 25.263, -0.055371" fill="none" stroke="black"/>
<g stroke="#3333ff" stroke-width="1" fill="#3333ff">
<polygon points=" 77.8085, 173.055 79.0033, 175.444 76.6137, 175.444"/>
<polygon points=" 141.221, 38.7334 142.416, 41.1229 140.027, 41.1229"/>
<polygon points=" 166.689, 38.8156 167.884, 41.2052 165.494, 41.2052"/>
<polygon points=" 192.156, 39.3264 193.351, 41.716 190.961, 41.716"/>
<polygon points=" 217.624, 40.9304 218.818, 43.32 216.429, 43.32"/>
<polygon points=" 243.091, 44.4179 244.286, 46.8075 241.896, 46.8075"/>
<polygon points=" 268.558, 50.8083 269.753, 53.1979 267.364, 53.1979"/>
<polygon points=" 300.393, 65.3728 301.587, 67.7623 299.198, 67.7623"/>
<polygon points=" 305.466, 68.7444 306.66, 71.1339 304.271, 71.1339"/>
<polygon points=" 310.539, 72.5651 311.733, 74.9547 309.344, 74.9547"/>
<polygon points=" 315.612, 76.5875 316.806, 78.9771 314.417, 78.9771"/>
<polygon points=" 320.685, 81.4182 321.88, 83.8078 319.49, 83.8078"/>
<polygon points=" 325.758, 86.8546 326.953, 89.2442 324.563, 89.2442"/>
<polygon points=" 332.099, 94.5191 333.294, 96.9087 330.904, 96.9087"/>
<polygon points=" 337.172, 101.643 338.367, 104.032 335.977, 104.032"/>
<polygon points=" 342.245, 110.583 343.44, 112.973 341.05, 112.973"/>
<polygon points=" 347.318, 121.253 348.513, 123.643 346.123, 123.643"/>
<polygon points=" 352.391, 135.153 353.586, 137.542 351.196, 137.542"/>
<polygon points=" 357.464, 155.642 358.659, 158.032 356.269, 158.032"/>
<polygon points=" 363.806, 217.048 365, 219.437 362.611, 219.437"/>
<polygon points=" 389.069, 257.125 390.263, 259.514 387.874, 259.514"/>
<polygon points=" 414.332, 258.781 415.526, 261.171 413.137, 261.171"/>
<polygon points=" 439.595, 258.935 440.789, 261.324 438.4, 261.324"/>
<polygon points=" 464.858, 259.017 466.052, 261.406 463.663, 261.406"/>
<polygon points=" 490.121, 258.976 491.315, 261.365 488.926, 261.365"/>
</g>
<path d="M315.718,77.5477l 0.221945, 0.225805l 0.221945, 0.226357l 0.221945, 0.226911l 0.221945, 0.22747l 0.221945, 0.228031l 0.221945, 0.228596l 0.221945, 0.229165l 0.221945, 0.229737l 0.221945, 0.230313l 0.221945, 0.230892l 0.221945, 0.231476l
 0.221945, 0.232062l 0.221945, 0.232653l 0.221945, 0.233247l 0.221945, 0.233846l 0.221945, 0.234448l 0.221945, 0.235054l 0.221945, 0.235663l 0.221945, 0.236277l 0.221945, 0.236895l 0.221945, 0.237517l 0.221945, 0.238143l 0.221945, 0.238774l 0.221945,
 0.239408l 0.221945, 0.240047l 0.221945, 0.24069l 0.221945, 0.241337l 0.221945, 0.241989l 0.221945, 0.242645l 0.221945, 0.243305l 0.221945, 0.243971l 0.221945, 0.24464l 0.221945, 0.245315l 0.221945, 0.245994l 0.221945, 0.246677l 0.221945, 0.247366l
 0.221945, 0.248059l 0.221945, 0.248758l 0.221945, 0.249461l 0.221945, 0.250169l 0.221945, 0.250883l 0.221945, 0.251601l 0.221945, 0.252325l 0.221945, 0.253053l 0.221945, 0.253788l 0.221945, 0.254527l 0.221945, 0.255272l 0.221945, 0.256023l 0.221945,
 0.256779" fill="none" stroke="#ff0000" stroke-width="2"/>
<path d="M326.593,89.3311l 0.221945, 0.25754l 0.221945, 0.258308l 0.221945, 0.259081l 0.221945, 0.25986l 0.221945, 0.260644l 0.221945, 0.261435l 0.221945, 0.262232l 0.221945, 0.263035l 0.221945, 0.263844l 0.221945, 0.264659l 0.221945, 0.265481l
 0.221945, 0.266309l 0.221945, 0.267144l 0.221945, 0.267985l 0.221945, 0.268833l 0.221945, 0.269688l 0.221945, 0.27055l 0.221945, 0.271418l 0.221945, 0.272294l 0.221945, 0.273177l 0.221945, 0.274066l 0.221945, 0.274964l 0.221945, 0.275868l 0.221945,
 0.27678l 0.221945, 0.2777l 0.221945, 0.278627l 0.221945, 0.279563l 0.221945, 0.280506l 0.221945, 0.281457l 0.221945, 0.282416l 0.221945, 0.283384l 0.221945, 0.28436l 0.221945, 0.285344l 0.221945, 0.286337l 0.221945, 0.287339l 0.221945, 0.288349l
 0.221945, 0.289368l 0.221945, 0.290397l 0.221945, 0.291435l 0.221945, 0.292482l 0.221945, 0.293538l 0.221945, 0.294605l 0.221945, 0.295681l 0.221945, 0.296766l 0.221945, 0.297862l 0.221945, 0.298969l 0.221945, 0.300085l 0.221945, 0.301212l 0.221945,
 0.30235" fill="none" stroke="#ff0000" stroke-width="2"/>
<path d="M337.469,102.976l 0.221945, 0.303498" fill="none" stroke="#ff0000" stroke-width="2"/>
<rect x="113.408" y="115.624" width="204.31" height="57.8912" fill="white"/>
<path d="M113.408,173.516h 204.31" fill="none" stroke="black"/>
<path d="M317.717,173.516v -57.8912" fill="none" stroke="black"/>
<path d="M317.717,115.624h -204.31" fill="none" stroke="black"/>
<path d="M113.408,115.624v 57.8912" fill="none" stroke="black"/>
<text xml:space="preserve" x="134.615" y="126.648" fill="#3333ff" font-size="12.7156" font-family="Helvetica"> / ndf </text>
<text xml:space="preserve" x="130.135" y="122.466" fill="#3333ff" font-size="8.64372" font-family="Helvetica">2</text>
<text xml:space="preserve" x="123.564" y="126.648" fill="#3333ff" font-size="12.7156" font-family="Times">&#0967;</text>
<text xml:space="preserve" x="276.198" y="127.544" fill="#3333ff" font-size="12.7156" font-family="Helvetica">06 / 2</text>
<text xml:space="preserve" x="269.328" y="127.544" fill="#3333ff" font-size="12.7156" font-family="Times">&#8722;</text>
<text xml:space="preserve" x="227.809" y="127.544" fill="#3333ff" font-size="12.7156" font-family="Helvetica"> 7.534e</text>
<text xml:space="preserve" x="123.564" y="141.882" fill="#3333ff" font-size="12.7156" font-family="Helvetica">Tc       </text>
<text xml:space="preserve" x="258.874" y="141.583" fill="#3333ff" font-size="12.7156" font-family="Helvetica"> 0.05407</text>
<text xml:space="preserve" x="252.004" y="141.583" fill="#3333ff" font-size="12.7156" font-family="Times">&#0177;</text>
<text xml:space="preserve" x="213.173" y="141.583" fill="#3333ff" font-size="12.7156" font-family="Helvetica"> 4.707 </text>
<text xml:space="preserve" x="123.564" y="153.83" fill="#3333ff" font-size="12.7156" font-family="Helvetica">exp      </text>
<text xml:space="preserve" x="258.874" y="156.219" fill="#3333ff" font-size="12.7156" font-family="Helvetica"> 0.02333</text>
<text xml:space="preserve" x="252.004" y="156.219" fill="#3333ff" font-size="12.7156" font-family="Times">&#0177;</text>
<text xml:space="preserve" x="206.303" y="156.219" fill="#3333ff" font-size="12.7156" font-family="Helvetica"> 0.3369 </text>
<text xml:space="preserve" x="123.564" y="170.855" fill="#3333ff" font-size="12.7156" font-family="Helvetica">coeff    </text>
<text xml:space="preserve" x="260.965" y="170.557" fill="#3333ff" font-size="12.7156" font-family="Helvetica"> 0.03381</text>
<text xml:space="preserve" x="254.095" y="170.557" fill="#3333ff" font-size="12.7156" font-family="Times">&#0177;</text>
<text xml:space="preserve" x="215.563" y="170.557" fill="#3333ff" font-size="12.7156" font-family="Helvetica"> 1.419 </text>
<text xml:space="preserve" x="106.239" y="14.0388" fill="black" font-size="14.1998" font-family="Helvetica">Magnetization per Spin on Temperature for Different Size</text>
<rect x="114.005" y="187.909" width="103.35" height="34.798" fill="white"/>
<path d="M114.005,222.707h 103.35" fill="none" stroke="black"/>
<path d="M217.355,222.707v -34.798" fill="none" stroke="black"/>
<path d="M217.355,187.909h -103.35" fill="none" stroke="black"/>
<path d="M114.005,187.909v 34.798" fill="none" stroke="black"/>
<text xml:space="preserve" x="151.94" y="196.245" fill="black" font-size="9.19148" font-family="Helvetica">Legend</text>
<text xml:space="preserve" x="139.693" y="207.894" fill="black" font-size="9.19148" font-family="Helvetica">Lattice 40x40</text>
<path d="M117.881,205.308h 18.0862" fill="none" stroke="black"/>
<path d="M126.924,204.113v -2.28501" fill="none" stroke="black"/>
<path d="M126.924,206.503v 2.28501" fill="none" stroke="black"/>
<path d="M125.568,201.828h 2.71293" fill="none" stroke="black"/>
<path d="M125.568,208.788h 2.71293" fill="none" stroke="black"/>
<g stroke="#3333ff" stroke-width="1" fill="#3333ff">
<polygon points=" 126.924, 204.113 128.119, 206.503 125.729, 206.503"/>
</g>
<text xml:space="preserve" x="139.693" y="219.244" fill="black" font-size="9.19148" font-family="Helvetica">Fit Function 40x40</text>
<path d="M117.881,216.908h 18.0862" fill="none" stroke="#ff0000" stroke-width="2"/></svg>
