<?xml version="1.0" standalone="no"?>
<svg width="567.429" height="289.64" viewBox="0 0 567.429 289.64" xmlns="http://www.w3.org/2000/svg" shape-rendering="crispEdges">
<title>
/home/nik/Documents/monteising/c3.svg
</title>
<desc>
Creator: ROOT Version 6.10/08
CreationDate: Tue Dec 12 19:23:43 2017</desc>
<defs>
</defs>
<rect x="0.5" y="0" width="566.929" height="289.14" fill="white"/>
<rect x="57.1929" y="28.914" width="453.543" height="231.312" fill="white"/>
<rect x="57.1929" y="28.914" width="453.543" height="231.312" fill="none" stroke="black"/>
<rect x="57.1929" y="28.914" width="453.543" height="231.312" fill="white"/>
<rect x="57.1929" y="28.914" width="453.543" height="231.312" fill="none" stroke="black"/>
<path d="M57.1929,260.226h 453.543" fill="none" stroke="black"/>
<path d="M77.8082,28.914v 231.312" fill="none" stroke="black" stroke-dasharray=" 1, 2"/>
<path d="M141.221,28.914v 231.312" fill="none" stroke="black" stroke-dasharray=" 1, 2"/>
<path d="M204.634,28.914v 231.312" fill="none" stroke="black" stroke-dasharray=" 1, 2"/>
<path d="M268.047,28.914v 231.312" fill="none" stroke="black" stroke-dasharray=" 1, 2"/>
<path d="M331.46,28.914v 231.312" fill="none" stroke="black" stroke-dasharray=" 1, 2"/>
<path d="M394.873,28.914v 231.312" fill="none" stroke="black" stroke-dasharray=" 1, 2"/>
<path d="M458.286,28.914v 231.312" fill="none" stroke="black" stroke-dasharray=" 1, 2"/>
<path d="M77.8082,28.914v 231.312" fill="none" stroke="black" stroke-dasharray=" 1, 2"/>
<path d="M458.286,28.914v 231.312" fill="none" stroke="black" stroke-dasharray=" 1, 2"/>
<path d="M57.1929,260.226v -231.312" fill="none" stroke="black"/>
<path d="M510.736,260.226h -453.543" fill="none" stroke="black" stroke-dasharray=" 1, 2"/>
<path d="M510.736,234.525h -453.543" fill="none" stroke="black" stroke-dasharray=" 1, 2"/>
<path d="M510.736,208.823h -453.543" fill="none" stroke="black" stroke-dasharray=" 1, 2"/>
<path d="M510.736,183.122h -453.543" fill="none" stroke="black" stroke-dasharray=" 1, 2"/>
<path d="M510.736,157.421h -453.543" fill="none" stroke="black" stroke-dasharray=" 1, 2"/>
<path d="M510.736,131.719h -453.543" fill="none" stroke="black" stroke-dasharray=" 1, 2"/>
<path d="M510.736,106.018h -453.543" fill="none" stroke="black" stroke-dasharray=" 1, 2"/>
<path d="M510.736,80.3166h -453.543" fill="none" stroke="black" stroke-dasharray=" 1, 2"/>
<path d="M510.736,54.6153h -453.543" fill="none" stroke="black" stroke-dasharray=" 1, 2"/>
<path d="M510.736,28.914h -453.543" fill="none" stroke="black" stroke-dasharray=" 1, 2"/>
<path d="M57.1929,260.226h 453.543" fill="none" stroke="black"/>
<path d="M77.8082,253.286v 6.93936" fill="none" stroke="black"/>
<path d="M90.4908,256.756v 3.46968" fill="none" stroke="black"/>
<path d="M103.173,256.756v 3.46968" fill="none" stroke="black"/>
<path d="M115.856,256.756v 3.46968" fill="none" stroke="black"/>
<path d="M128.539,256.756v 3.46968" fill="none" stroke="black"/>
<path d="M141.221,253.286v 6.93936" fill="none" stroke="black"/>
<path d="M153.904,256.756v 3.46968" fill="none" stroke="black"/>
<path d="M166.586,256.756v 3.46968" fill="none" stroke="black"/>
<path d="M179.269,256.756v 3.46968" fill="none" stroke="black"/>
<path d="M191.952,256.756v 3.46968" fill="none" stroke="black"/>
<path d="M204.634,253.286v 6.93936" fill="none" stroke="black"/>
<path d="M217.317,256.756v 3.46968" fill="none" stroke="black"/>
<path d="M229.999,256.756v 3.46968" fill="none" stroke="black"/>
<path d="M242.682,256.756v 3.46968" fill="none" stroke="black"/>
<path d="M255.365,256.756v 3.46968" fill="none" stroke="black"/>
<path d="M268.047,253.286v 6.93936" fill="none" stroke="black"/>
<path d="M280.73,256.756v 3.46968" fill="none" stroke="black"/>
<path d="M293.412,256.756v 3.46968" fill="none" stroke="black"/>
<path d="M306.095,256.756v 3.46968" fill="none" stroke="black"/>
<path d="M318.778,256.756v 3.46968" fill="none" stroke="black"/>
<path d="M331.46,253.286v 6.93936" fill="none" stroke="black"/>
<path d="M344.143,256.756v 3.46968" fill="none" stroke="black"/>
<path d="M356.825,256.756v 3.46968" fill="none" stroke="black"/>
<path d="M369.508,256.756v 3.46968" fill="none" stroke="black"/>
<path d="M382.19,256.756v 3.46968" fill="none" stroke="black"/>
<path d="M394.873,253.286v 6.93936" fill="none" stroke="black"/>
<path d="M407.556,256.756v 3.46968" fill="none" stroke="black"/>
<path d="M420.238,256.756v 3.46968" fill="none" stroke="black"/>
<path d="M432.921,256.756v 3.46968" fill="none" stroke="black"/>
<path d="M445.603,256.756v 3.46968" fill="none" stroke="black"/>
<path d="M458.286,253.286v 6.93936" fill="none" stroke="black"/>
<path d="M77.8082,253.286v 6.93936" fill="none" stroke="black"/>
<path d="M65.1256,256.756v 3.46968" fill="none" stroke="black"/>
<path d="M458.286,253.286v 6.93936" fill="none" stroke="black"/>
<path d="M470.969,256.756v 3.46968" fill="none" stroke="black"/>
<path d="M483.651,256.756v 3.46968" fill="none" stroke="black"/>
<path d="M496.334,256.756v 3.46968" fill="none" stroke="black"/>
<path d="M509.016,256.756v 3.46968" fill="none" stroke="black"/>
<text xml:space="preserve" x="74.8758" y="269.724" fill="black" font-size="9.78431" font-family="Helvetica">0</text>
<text xml:space="preserve" x="139.395" y="269.724" fill="black" font-size="9.78431" font-family="Helvetica">1</text>
<text xml:space="preserve" x="201.823" y="269.724" fill="black" font-size="9.78431" font-family="Helvetica">2</text>
<text xml:space="preserve" x="265.147" y="269.724" fill="black" font-size="9.78431" font-family="Helvetica">3</text>
<text xml:space="preserve" x="328.769" y="269.724" fill="black" font-size="9.78431" font-family="Helvetica">4</text>
<text xml:space="preserve" x="392.093" y="269.724" fill="black" font-size="9.78431" font-family="Helvetica">5</text>
<text xml:space="preserve" x="455.417" y="269.724" fill="black" font-size="9.78431" font-family="Helvetica">6</text>
<text xml:space="preserve" x="507.988" y="277.491" fill="black" font-size="9.78431" font-family="Helvetica">)</text>
<text xml:space="preserve" x="504.404" y="286.452" fill="black" font-size="6.68954" font-family="Helvetica">b</text>
<text xml:space="preserve" x="499.625" y="283.465" fill="black" font-size="9.78431" font-family="Helvetica">k</text>
<text xml:space="preserve" x="501.716" y="273.309" fill="black" font-size="9.78431" font-family="Helvetica">J</text>
<path d="M499.625,275.101h 8.36355" fill="none" stroke="black"/>
<text xml:space="preserve" x="439.288" y="277.491" fill="black" font-size="9.78431" font-family="Helvetica">Temeprature (</text>
<path d="M57.1929,260.226v -231.312" fill="none" stroke="black"/>
<path d="M70.7992,260.226h -13.6063" fill="none" stroke="black"/>
<path d="M63.9961,253.801h -6.80315" fill="none" stroke="black"/>
<path d="M63.9961,247.375h -6.80315" fill="none" stroke="black"/>
<path d="M63.9961,240.95h -6.80315" fill="none" stroke="black"/>
<path d="M70.7992,234.525h -13.6063" fill="none" stroke="black"/>
<path d="M63.9961,228.099h -6.80315" fill="none" stroke="black"/>
<path d="M63.9961,221.674h -6.80315" fill="none" stroke="black"/>
<path d="M63.9961,215.249h -6.80315" fill="none" stroke="black"/>
<path d="M70.7992,208.823h -13.6063" fill="none" stroke="black"/>
<path d="M63.9961,202.398h -6.80315" fill="none" stroke="black"/>
<path d="M63.9961,195.973h -6.80315" fill="none" stroke="black"/>
<path d="M63.9961,189.547h -6.80315" fill="none" stroke="black"/>
<path d="M70.7992,183.122h -13.6063" fill="none" stroke="black"/>
<path d="M63.9961,176.697h -6.80315" fill="none" stroke="black"/>
<path d="M63.9961,170.271h -6.80315" fill="none" stroke="black"/>
<path d="M63.9961,163.846h -6.80315" fill="none" stroke="black"/>
<path d="M70.7992,157.421h -13.6063" fill="none" stroke="black"/>
<path d="M63.9961,150.995h -6.80315" fill="none" stroke="black"/>
<path d="M63.9961,144.57h -6.80315" fill="none" stroke="black"/>
<path d="M63.9961,138.145h -6.80315" fill="none" stroke="black"/>
<path d="M70.7992,131.719h -13.6063" fill="none" stroke="black"/>
<path d="M63.9961,125.294h -6.80315" fill="none" stroke="black"/>
<path d="M63.9961,118.869h -6.80315" fill="none" stroke="black"/>
<path d="M63.9961,112.443h -6.80315" fill="none" stroke="black"/>
<path d="M70.7992,106.018h -13.6063" fill="none" stroke="black"/>
<path d="M63.9961,99.5926h -6.80315" fill="none" stroke="black"/>
<path d="M63.9961,93.1673h -6.80315" fill="none" stroke="black"/>
<path d="M63.9961,86.742h -6.80315" fill="none" stroke="black"/>
<path d="M70.7992,80.3166h -13.6063" fill="none" stroke="black"/>
<path d="M63.9961,73.8913h -6.80315" fill="none" stroke="black"/>
<path d="M63.9961,67.466h -6.80315" fill="none" stroke="black"/>
<path d="M63.9961,61.0406h -6.80315" fill="none" stroke="black"/>
<path d="M70.7992,54.6153h -13.6063" fill="none" stroke="black"/>
<path d="M63.9961,48.19h -6.80315" fill="none" stroke="black"/>
<path d="M63.9961,41.7646h -6.80315" fill="none" stroke="black"/>
<path d="M63.9961,35.3393h -6.80315" fill="none" stroke="black"/>
<path d="M70.7992,28.914h -13.6063" fill="none" stroke="black"/>
<text xml:space="preserve" x="49.1878" y="263.75" fill="black" font-size="9.78431" font-family="Helvetica">0</text>
<text xml:space="preserve" x="43.8112" y="238.062" fill="black" font-size="9.78431" font-family="Helvetica">20</text>
<text xml:space="preserve" x="43.8112" y="212.374" fill="black" font-size="9.78431" font-family="Helvetica">40</text>
<text xml:space="preserve" x="43.8112" y="186.686" fill="black" font-size="9.78431" font-family="Helvetica">60</text>
<text xml:space="preserve" x="43.8112" y="160.998" fill="black" font-size="9.78431" font-family="Helvetica">80</text>
<text xml:space="preserve" x="38.7334" y="135.012" fill="black" font-size="9.78431" font-family="Helvetica">100</text>
<text xml:space="preserve" x="38.7334" y="109.324" fill="black" font-size="9.78431" font-family="Helvetica">120</text>
<text xml:space="preserve" x="38.7334" y="83.6355" fill="black" font-size="9.78431" font-family="Helvetica">140</text>
<text xml:space="preserve" x="38.7334" y="57.9474" fill="black" font-size="9.78431" font-family="Helvetica">160</text>
<text xml:space="preserve" x="38.7334" y="32.2594" fill="black" font-size="9.78431" font-family="Helvetica">180</text>
<g transform="rotate(-90,22.9024,31.3633)">
<text xml:space="preserve" x="22.9024" y="31.3633" fill="black" font-size="9.78431" font-family="Helvetica">)</text>
</g>
<g transform="rotate(-90,31.8633,35.5451)">
<text xml:space="preserve" x="31.8633" y="35.5451" fill="black" font-size="6.68954" font-family="Helvetica">B</text>
</g>
<g transform="rotate(-90,28.8763,40.3243)">
<text xml:space="preserve" x="28.8763" y="40.3243" fill="black" font-size="9.78431" font-family="Helvetica">k</text>
</g>
<g transform="rotate(-90,16.6297,38.5321)">
<text xml:space="preserve" x="16.6297" y="38.5321" fill="black" font-size="9.78431" font-family="Times">&#0956;</text>
</g>
<path d="M20.5128,40.3243v -8.96095" fill="none" stroke="black"/>
<g transform="rotate(-90,22.9024,143.076)">
<text xml:space="preserve" x="22.9024" y="143.076" fill="black" font-size="9.78431" font-family="Helvetica">Magnetic Susceptibility (</text>
</g>
<path d="M325.758,257.263v -0.573144" fill="none" stroke="black"/>
<path d="M325.16,256.69h 1.19479" fill="none" stroke="black"/>
<path d="M325.758,259.653v 0.573144" fill="none" stroke="black"/>
<path d="M325.16,260.226h 1.19479" fill="none" stroke="black"/>
<path d="M332.099,257.5v -0.336243" fill="none" stroke="black"/>
<path d="M331.502,257.164h 1.19479" fill="none" stroke="black"/>
<path d="M332.099,259.89v 0.336243" fill="none" stroke="black"/>
<path d="M331.502,260.226h 1.19479" fill="none" stroke="black"/>
<path d="M337.172,256.986v -0.850626" fill="none" stroke="black"/>
<path d="M336.575,256.135h 1.19479" fill="none" stroke="black"/>
<path d="M337.172,259.375v 0.850626" fill="none" stroke="black"/>
<path d="M336.575,260.226h 1.19479" fill="none" stroke="black"/>
<path d="M342.245,256.581v -1.25517" fill="none" stroke="black"/>
<path d="M341.648,255.326h 1.19479" fill="none" stroke="black"/>
<path d="M342.245,258.971v 1.25517" fill="none" stroke="black"/>
<path d="M341.648,260.226h 1.19479" fill="none" stroke="black"/>
<path d="M347.318,255.708v -2.12861" fill="none" stroke="black"/>
<path d="M346.721,253.579h 1.19479" fill="none" stroke="black"/>
<path d="M347.318,258.097v 2.12861" fill="none" stroke="black"/>
<path d="M346.721,260.226h 1.19479" fill="none" stroke="black"/>
<path d="M352.391,253.656v -4.18015" fill="none" stroke="black"/>
<path d="M351.794,249.476h 1.19479" fill="none" stroke="black"/>
<path d="M352.391,256.046v 4.18015" fill="none" stroke="black"/>
<path d="M351.794,260.226h 1.19479" fill="none" stroke="black"/>
<path d="M357.464,240.546v -17.2902" fill="none" stroke="black"/>
<path d="M356.867,223.256h 1.19479" fill="none" stroke="black"/>
<path d="M357.464,242.936v 17.2902" fill="none" stroke="black"/>
<path d="M356.867,260.226h 1.19479" fill="none" stroke="black"/>
<path d="M363.806,62.8817v -33.9677" fill="none" stroke="black"/>
<path d="M363.208,28.914h 1.19479" fill="none" stroke="black"/>
<path d="M363.806,65.2712v 194.955" fill="none" stroke="black"/>
<path d="M363.208,260.226h 1.19479" fill="none" stroke="black"/>
<path d="M389.069,238.79v -19.046" fill="none" stroke="black"/>
<path d="M388.471,219.744h 1.19479" fill="none" stroke="black"/>
<path d="M389.069,241.18v 19.046" fill="none" stroke="black"/>
<path d="M388.471,260.226h 1.19479" fill="none" stroke="black"/>
<path d="M414.332,253.681v -4.15541" fill="none" stroke="black"/>
<path d="M413.734,249.525h 1.19479" fill="none" stroke="black"/>
<path d="M414.332,256.07v 4.15541" fill="none" stroke="black"/>
<path d="M413.734,260.226h 1.19479" fill="none" stroke="black"/>
<path d="M439.595,254.895v -2.9416" fill="none" stroke="black"/>
<path d="M438.997,251.953h 1.19479" fill="none" stroke="black"/>
<path d="M439.595,257.284v 2.9416" fill="none" stroke="black"/>
<path d="M438.997,260.226h 1.19479" fill="none" stroke="black"/>
<path d="M464.858,256.019v -1.81704" fill="none" stroke="black"/>
<path d="M464.26,254.202h 1.19479" fill="none" stroke="black"/>
<path d="M464.858,258.409v 1.81704" fill="none" stroke="black"/>
<path d="M464.26,260.226h 1.19479" fill="none" stroke="black"/>
<path d="M490.121,256.987v -0.849669" fill="none" stroke="black"/>
<path d="M489.523,256.137h 1.19479" fill="none" stroke="black"/>
<path d="M490.121,259.376v 0.849669" fill="none" stroke="black"/>
<path d="M489.523,260.226h 1.19479" fill="none" stroke="black"/>
<rect x="84.7329" y="50.6153" width="204.31" height="57.8912" fill="white"/>
<path d="M84.7329,108.507h 204.31" fill="none" stroke="black"/>
<path d="M289.042,108.507v -57.8912" fill="none" stroke="black"/>
<path d="M289.042,50.6153h -204.31" fill="none" stroke="black"/>
<path d="M84.7329,50.6153v 57.8912" fill="none" stroke="black"/>
<text xml:space="preserve" x="105.94" y="61.5318" fill="#3333ff" font-size="12.7156" font-family="Helvetica"> / ndf </text>
<text xml:space="preserve" x="101.46" y="57.35" fill="#3333ff" font-size="8.64372" font-family="Helvetica">2</text>
<text xml:space="preserve" x="94.8886" y="61.5318" fill="#3333ff" font-size="12.7156" font-family="Times">&#0967;</text>
<text xml:space="preserve" x="205.706" y="62.4279" fill="#3333ff" font-size="12.7156" font-family="Helvetica"> 0.004782 / 2</text>
<text xml:space="preserve" x="94.8886" y="77.0641" fill="#3333ff" font-size="12.7156" font-family="Helvetica">Tc       </text>
<text xml:space="preserve" x="244.238" y="76.7654" fill="#3333ff" font-size="12.7156" font-family="Helvetica"> 2.352</text>
<text xml:space="preserve" x="237.368" y="76.7654" fill="#3333ff" font-size="12.7156" font-family="Times">&#0177;</text>
<text xml:space="preserve" x="198.537" y="76.7654" fill="#3333ff" font-size="12.7156" font-family="Helvetica"> 4.494 </text>
<text xml:space="preserve" x="94.8886" y="88.7134" fill="#3333ff" font-size="12.7156" font-family="Helvetica">exp      </text>
<text xml:space="preserve" x="246.329" y="91.1029" fill="#3333ff" font-size="12.7156" font-family="Helvetica"> 9.941</text>
<text xml:space="preserve" x="239.459" y="91.1029" fill="#3333ff" font-size="12.7156" font-family="Times">&#0177;</text>
<text xml:space="preserve" x="200.926" y="91.1029" fill="#3333ff" font-size="12.7156" font-family="Helvetica"> 1.125 </text>
<text xml:space="preserve" x="94.8886" y="106.038" fill="#3333ff" font-size="12.7156" font-family="Helvetica">coeff    </text>
<text xml:space="preserve" x="244.238" y="105.739" fill="#3333ff" font-size="12.7156" font-family="Helvetica"> 1.806</text>
<text xml:space="preserve" x="237.368" y="105.739" fill="#3333ff" font-size="12.7156" font-family="Times">&#0177;</text>
<text xml:space="preserve" x="184.797" y="105.739" fill="#3333ff" font-size="12.7156" font-family="Helvetica"> 0.09985 </text>
<path d="M141.138,28.914l 0.0834827, 231.312" fill="none" stroke="black"/>
<path d="M141.222,260.226h 50.9347l 25.4674, -0.0337795l 25.4674, -0.0476747l 25.4674, -0.0667848l 31.8342, -0.31992l 5.07304, -0.0661447l 5.07304, -0.124214l 5.07304, -0.291991l 5.07304, -0.125335l 5.07304, -0.692093l 6.3413, 0.2369l 5.07304,
 -0.514382l 5.07304, -0.404547l 5.07304, -0.873442l 5.07304, -2.05154l 5.07304, -13.11l 6.3413, -177.664l 25.263, 175.909l 25.263, 14.8906l 25.263, 1.2138l 25.263, 1.12456l 25.263, 0.967373" fill="none" stroke="black"/>
<g stroke="#3333ff" stroke-width="1" fill="#3333ff">
<polygon points=" 141.222, 259.031 142.416, 261.421 140.027, 261.421"/>
<polygon points=" 166.689, 259.029 167.884, 261.419 165.494, 261.419"/>
<polygon points=" 192.156, 259.021 193.351, 261.41 190.961, 261.41"/>
<polygon points=" 217.624, 258.997 218.818, 261.387 216.429, 261.387"/>
<polygon points=" 243.091, 258.95 244.286, 261.339 241.896, 261.339"/>
<polygon points=" 268.558, 258.883 269.753, 261.272 267.364, 261.272"/>
<polygon points=" 300.393, 258.563 301.587, 260.952 299.198, 260.952"/>
<polygon points=" 305.466, 258.497 306.66, 260.886 304.271, 260.886"/>
<polygon points=" 310.539, 258.373 311.733, 260.762 309.344, 260.762"/>
<polygon points=" 315.612, 258.081 316.806, 260.47 314.417, 260.47"/>
<polygon points=" 320.685, 257.955 321.88, 260.345 319.49, 260.345"/>
<polygon points=" 325.758, 257.263 326.953, 259.653 324.563, 259.653"/>
<polygon points=" 332.099, 257.5 333.294, 259.89 330.904, 259.89"/>
<polygon points=" 337.172, 256.986 338.367, 259.375 335.977, 259.375"/>
<polygon points=" 342.245, 256.581 343.44, 258.971 341.05, 258.971"/>
<polygon points=" 347.318, 255.708 348.513, 258.097 346.123, 258.097"/>
<polygon points=" 352.391, 253.656 353.586, 256.046 351.196, 256.046"/>
<polygon points=" 357.464, 240.546 358.659, 242.936 356.269, 242.936"/>
<polygon points=" 363.806, 62.8817 365, 65.2712 362.611, 65.2712"/>
<polygon points=" 389.069, 238.79 390.263, 241.18 387.874, 241.18"/>
<polygon points=" 414.332, 253.681 415.526, 256.07 413.137, 256.07"/>
<polygon points=" 439.595, 254.895 440.789, 257.284 438.4, 257.284"/>
<polygon points=" 464.858, 256.019 466.052, 258.409 463.663, 258.409"/>
<polygon points=" 490.121, 256.987 491.315, 259.376 488.926, 259.376"/>
</g>
<path d="M331.587,258.681l 0.253652, -0.0142579l 0.253652, -0.0145085l 0.253652, -0.0147656l 0.253652, -0.0150295l 0.253652, -0.0153004l 0.253652, -0.0155785l 0.253652, -0.0158641l 0.253652, -0.0161574l 0.253652, -0.0164588l 0.253652, -0.0167686l
 0.253652, -0.017087l 0.253652, -0.0174144l 0.253652, -0.0177511l 0.253652, -0.0180974l 0.253652, -0.0184538l 0.253652, -0.0188206l 0.253652, -0.0191982l 0.253652, -0.0195871l 0.253652, -0.0199877l 0.253652, -0.0204004l 0.253652, -0.0208258l
 0.253652, -0.0212643l 0.253652, -0.0217166l 0.253652, -0.0221832l 0.253652, -0.0226646l 0.253652, -0.0231616l 0.253652, -0.0236748l 0.253652, -0.0242049l 0.253652, -0.0247526l 0.253652, -0.0253187l 0.253652, -0.0259041l 0.253652, -0.0265096l
 0.253652, -0.0271362l 0.253652, -0.0277848l 0.253652, -0.0284564l 0.253652, -0.0291522l 0.253652, -0.0298733l 0.253652, -0.0306209l 0.253652, -0.0313964l 0.253652, -0.0322011l 0.253652, -0.0330365l 0.253652, -0.0339042l 0.253652, -0.0348058l
 0.253652, -0.0357432l 0.253652, -0.0367181l 0.253652, -0.0377326l 0.253652, -0.038789l 0.253652, -0.0398893l 0.253652, -0.0410362" fill="none" stroke="#ff0000" stroke-width="2"/>
<path d="M344.016,257.489l 0.253652, -0.0422323l 0.253652, -0.0434804l 0.253652, -0.0447834l 0.253652, -0.0461447l 0.253652, -0.0475677l 0.253652, -0.0490563l 0.253652, -0.0506143l 0.253652, -0.0522463l 0.253652, -0.0539568l 0.253652, -0.0557509l
 0.253652, -0.0576342l 0.253652, -0.0596126l 0.253652, -0.0616924l 0.253652, -0.0638808l 0.253652, -0.0661852l 0.253652, -0.0686141l 0.253652, -0.0711763l 0.253652, -0.0738817l 0.253652, -0.0767411l 0.253652, -0.0797663l 0.253652, -0.0829701l
 0.253652, -0.0863669l 0.253652, -0.0899722l 0.253652, -0.0938033l 0.253652, -0.0978791l 0.253652, -0.102221l 0.253652, -0.106852l 0.253652, -0.111798l 0.253652, -0.117089l 0.253652, -0.122756l 0.253652, -0.128836l 0.253652, -0.135369l 0.253652,
 -0.142401l 0.253652, -0.149984l 0.253652, -0.158177l 0.253652, -0.167044l 0.253652, -0.176663l 0.253652, -0.187118l 0.253652, -0.19851l 0.253652, -0.210952l 0.253652, -0.224576l 0.253652, -0.239533l 0.253652, -0.256004l 0.253652, -0.274196l
 0.253652, -0.294354l 0.253652, -0.31677l 0.253652, -0.34179l 0.253652, -0.369828l 0.253652, -0.401385" fill="none" stroke="#ff0000" stroke-width="2"/>
<path d="M356.445,250.938l 0.253652, -0.437067" fill="none" stroke="#ff0000" stroke-width="2"/>
<rect x="84.7329" y="50.6153" width="204.31" height="57.8912" fill="white"/>
<path d="M84.7329,108.507h 204.31" fill="none" stroke="black"/>
<path d="M289.042,108.507v -57.8912" fill="none" stroke="black"/>
<path d="M289.042,50.6153h -204.31" fill="none" stroke="black"/>
<path d="M84.7329,50.6153v 57.8912" fill="none" stroke="black"/>
<text xml:space="preserve" x="105.94" y="61.5318" fill="#3333ff" font-size="12.7156" font-family="Helvetica"> / ndf </text>
<text xml:space="preserve" x="101.46" y="57.35" fill="#3333ff" font-size="8.64372" font-family="Helvetica">2</text>
<text xml:space="preserve" x="94.8886" y="61.5318" fill="#3333ff" font-size="12.7156" font-family="Times">&#0967;</text>
<text xml:space="preserve" x="205.706" y="62.4279" fill="#3333ff" font-size="12.7156" font-family="Helvetica"> 0.004782 / 2</text>
<text xml:space="preserve" x="94.8886" y="77.0641" fill="#3333ff" font-size="12.7156" font-family="Helvetica">Tc       </text>
<text xml:space="preserve" x="244.238" y="76.7654" fill="#3333ff" font-size="12.7156" font-family="Helvetica"> 2.352</text>
<text xml:space="preserve" x="237.368" y="76.7654" fill="#3333ff" font-size="12.7156" font-family="Times">&#0177;</text>
<text xml:space="preserve" x="198.537" y="76.7654" fill="#3333ff" font-size="12.7156" font-family="Helvetica"> 4.494 </text>
<text xml:space="preserve" x="94.8886" y="88.7134" fill="#3333ff" font-size="12.7156" font-family="Helvetica">exp      </text>
<text xml:space="preserve" x="246.329" y="91.1029" fill="#3333ff" font-size="12.7156" font-family="Helvetica"> 9.941</text>
<text xml:space="preserve" x="239.459" y="91.1029" fill="#3333ff" font-size="12.7156" font-family="Times">&#0177;</text>
<text xml:space="preserve" x="200.926" y="91.1029" fill="#3333ff" font-size="12.7156" font-family="Helvetica"> 1.125 </text>
<text xml:space="preserve" x="94.8886" y="106.038" fill="#3333ff" font-size="12.7156" font-family="Helvetica">coeff    </text>
<text xml:space="preserve" x="244.238" y="105.739" fill="#3333ff" font-size="12.7156" font-family="Helvetica"> 1.806</text>
<text xml:space="preserve" x="237.368" y="105.739" fill="#3333ff" font-size="12.7156" font-family="Times">&#0177;</text>
<text xml:space="preserve" x="184.797" y="105.739" fill="#3333ff" font-size="12.7156" font-family="Helvetica"> 0.09985 </text>
<text xml:space="preserve" x="106.538" y="14.0388" fill="black" font-size="14.1998" font-family="Helvetica">Magnetic Susceptibility on Temperature for Different Size</text>
<rect x="85.0316" y="127.171" width="106.038" height="34.798" fill="white"/>
<path d="M85.0316,161.969h 106.038" fill="none" stroke="black"/>
<path d="M191.069,161.969v -34.798" fill="none" stroke="black"/>
<path d="M191.069,127.171h -106.038" fill="none" stroke="black"/>
<path d="M85.0316,127.171v 34.798" fill="none" stroke="black"/>
<text xml:space="preserve" x="124.161" y="135.31" fill="black" font-size="9.41756" font-family="Helvetica">Legend</text>
<text xml:space="preserve" x="111.317" y="146.96" fill="black" font-size="9.41756" font-family="Helvetica">Lattice 40x40</text>
<path d="M89.008,144.57h 18.5566" fill="none" stroke="black"/>
<path d="M98.2863,143.375v -2.28501" fill="none" stroke="black"/>
<path d="M98.2863,145.765v 2.28501" fill="none" stroke="black"/>
<path d="M96.8946,141.09h 2.78349" fill="none" stroke="black"/>
<path d="M96.8946,148.05h 2.78349" fill="none" stroke="black"/>
<g stroke="#3333ff" stroke-width="1" fill="#3333ff">
<polygon points=" 98.2863, 143.375 99.4811, 145.765 97.0915, 145.765"/>
</g>
<text xml:space="preserve" x="111.317" y="158.609" fill="black" font-size="9.41756" font-family="Helvetica">Fit Function 40x40</text>
<path d="M89.008,156.169h 18.5566" fill="none" stroke="#ff0000" stroke-width="2"/></svg>
