<?xml version="1.0" standalone="no"?>
<svg width="567.429" height="289.64" viewBox="0 0 567.429 289.64" xmlns="http://www.w3.org/2000/svg" shape-rendering="crispEdges">
<title>
/home/nik/Documents/monteising/c2.svg
</title>
<desc>
Creator: ROOT Version 6.10/08
CreationDate: Tue Dec 12 19:25:43 2017</desc>
<defs>
</defs>
<rect x="0.5" y="0" width="566.929" height="289.14" fill="white"/>
<rect x="57.1929" y="28.914" width="453.543" height="231.312" fill="white"/>
<rect x="57.1929" y="28.914" width="453.543" height="231.312" fill="none" stroke="black"/>
<rect x="57.1929" y="28.914" width="453.543" height="231.312" fill="white"/>
<rect x="57.1929" y="28.914" width="453.543" height="231.312" fill="none" stroke="black"/>
<path d="M57.1929,260.226h 453.543" fill="none" stroke="black"/>
<path d="M77.8078,28.914v 231.312" fill="none" stroke="black" stroke-dasharray=" 1, 2"/>
<path d="M147.1,28.914v 231.312" fill="none" stroke="black" stroke-dasharray=" 1, 2"/>
<path d="M216.393,28.914v 231.312" fill="none" stroke="black" stroke-dasharray=" 1, 2"/>
<path d="M285.685,28.914v 231.312" fill="none" stroke="black" stroke-dasharray=" 1, 2"/>
<path d="M354.977,28.914v 231.312" fill="none" stroke="black" stroke-dasharray=" 1, 2"/>
<path d="M424.27,28.914v 231.312" fill="none" stroke="black" stroke-dasharray=" 1, 2"/>
<path d="M493.562,28.914v 231.312" fill="none" stroke="black" stroke-dasharray=" 1, 2"/>
<path d="M77.8078,28.914v 231.312" fill="none" stroke="black" stroke-dasharray=" 1, 2"/>
<path d="M493.562,28.914v 231.312" fill="none" stroke="black" stroke-dasharray=" 1, 2"/>
<path d="M57.1929,260.226v -231.312" fill="none" stroke="black"/>
<path d="M510.736,260.226h -453.543" fill="none" stroke="black" stroke-dasharray=" 1, 2"/>
<path d="M510.736,216.166h -453.543" fill="none" stroke="black" stroke-dasharray=" 1, 2"/>
<path d="M510.736,172.107h -453.543" fill="none" stroke="black" stroke-dasharray=" 1, 2"/>
<path d="M510.736,128.047h -453.543" fill="none" stroke="black" stroke-dasharray=" 1, 2"/>
<path d="M510.736,83.9877h -453.543" fill="none" stroke="black" stroke-dasharray=" 1, 2"/>
<path d="M510.736,39.9282h -453.543" fill="none" stroke="black" stroke-dasharray=" 1, 2"/>
<path d="M510.736,39.9282h -453.543" fill="none" stroke="black" stroke-dasharray=" 1, 2"/>
<path d="M57.1929,260.226h 453.543" fill="none" stroke="black"/>
<path d="M77.8078,253.286v 6.93936" fill="none" stroke="black"/>
<path d="M91.6663,256.756v 3.46968" fill="none" stroke="black"/>
<path d="M105.525,256.756v 3.46968" fill="none" stroke="black"/>
<path d="M119.383,256.756v 3.46968" fill="none" stroke="black"/>
<path d="M133.242,256.756v 3.46968" fill="none" stroke="black"/>
<path d="M147.1,253.286v 6.93936" fill="none" stroke="black"/>
<path d="M160.959,256.756v 3.46968" fill="none" stroke="black"/>
<path d="M174.817,256.756v 3.46968" fill="none" stroke="black"/>
<path d="M188.676,256.756v 3.46968" fill="none" stroke="black"/>
<path d="M202.534,256.756v 3.46968" fill="none" stroke="black"/>
<path d="M216.393,253.286v 6.93936" fill="none" stroke="black"/>
<path d="M230.251,256.756v 3.46968" fill="none" stroke="black"/>
<path d="M244.109,256.756v 3.46968" fill="none" stroke="black"/>
<path d="M257.968,256.756v 3.46968" fill="none" stroke="black"/>
<path d="M271.826,256.756v 3.46968" fill="none" stroke="black"/>
<path d="M285.685,253.286v 6.93936" fill="none" stroke="black"/>
<path d="M299.543,256.756v 3.46968" fill="none" stroke="black"/>
<path d="M313.402,256.756v 3.46968" fill="none" stroke="black"/>
<path d="M327.26,256.756v 3.46968" fill="none" stroke="black"/>
<path d="M341.119,256.756v 3.46968" fill="none" stroke="black"/>
<path d="M354.977,253.286v 6.93936" fill="none" stroke="black"/>
<path d="M368.836,256.756v 3.46968" fill="none" stroke="black"/>
<path d="M382.694,256.756v 3.46968" fill="none" stroke="black"/>
<path d="M396.553,256.756v 3.46968" fill="none" stroke="black"/>
<path d="M410.411,256.756v 3.46968" fill="none" stroke="black"/>
<path d="M424.27,253.286v 6.93936" fill="none" stroke="black"/>
<path d="M438.128,256.756v 3.46968" fill="none" stroke="black"/>
<path d="M451.987,256.756v 3.46968" fill="none" stroke="black"/>
<path d="M465.845,256.756v 3.46968" fill="none" stroke="black"/>
<path d="M479.703,256.756v 3.46968" fill="none" stroke="black"/>
<path d="M493.562,253.286v 6.93936" fill="none" stroke="black"/>
<path d="M77.8078,253.286v 6.93936" fill="none" stroke="black"/>
<path d="M63.9494,256.756v 3.46968" fill="none" stroke="black"/>
<path d="M493.562,253.286v 6.93936" fill="none" stroke="black"/>
<path d="M507.42,256.756v 3.46968" fill="none" stroke="black"/>
<text xml:space="preserve" x="70.9928" y="269.724" fill="black" font-size="9.78431" font-family="Helvetica">0.5</text>
<text xml:space="preserve" x="145.07" y="269.724" fill="black" font-size="9.78431" font-family="Helvetica">1</text>
<text xml:space="preserve" x="209.589" y="269.724" fill="black" font-size="9.78431" font-family="Helvetica">1.5</text>
<text xml:space="preserve" x="282.77" y="269.724" fill="black" font-size="9.78431" font-family="Helvetica">2</text>
<text xml:space="preserve" x="348.185" y="269.724" fill="black" font-size="9.78431" font-family="Helvetica">2.5</text>
<text xml:space="preserve" x="421.366" y="269.724" fill="black" font-size="9.78431" font-family="Helvetica">3</text>
<text xml:space="preserve" x="486.781" y="269.724" fill="black" font-size="9.78431" font-family="Helvetica">3.5</text>
<text xml:space="preserve" x="507.988" y="277.491" fill="black" font-size="9.78431" font-family="Helvetica">)</text>
<text xml:space="preserve" x="504.404" y="286.452" fill="black" font-size="6.68954" font-family="Helvetica">b</text>
<text xml:space="preserve" x="499.625" y="283.465" fill="black" font-size="9.78431" font-family="Helvetica">k</text>
<text xml:space="preserve" x="501.716" y="273.309" fill="black" font-size="9.78431" font-family="Helvetica">J</text>
<path d="M499.625,275.101h 8.36355" fill="none" stroke="black"/>
<text xml:space="preserve" x="433.911" y="277.491" fill="black" font-size="9.78431" font-family="Helvetica">Temeperature (</text>
<path d="M57.1929,260.226v -231.312" fill="none" stroke="black"/>
<path d="M70.7992,260.226h -13.6063" fill="none" stroke="black"/>
<path d="M63.9961,249.211h -6.80315" fill="none" stroke="black"/>
<path d="M63.9961,238.196h -6.80315" fill="none" stroke="black"/>
<path d="M63.9961,227.181h -6.80315" fill="none" stroke="black"/>
<path d="M70.7992,216.166h -13.6063" fill="none" stroke="black"/>
<path d="M63.9961,205.151h -6.80315" fill="none" stroke="black"/>
<path d="M63.9961,194.137h -6.80315" fill="none" stroke="black"/>
<path d="M63.9961,183.122h -6.80315" fill="none" stroke="black"/>
<path d="M70.7992,172.107h -13.6063" fill="none" stroke="black"/>
<path d="M63.9961,161.092h -6.80315" fill="none" stroke="black"/>
<path d="M63.9961,150.077h -6.80315" fill="none" stroke="black"/>
<path d="M63.9961,139.062h -6.80315" fill="none" stroke="black"/>
<path d="M70.7992,128.047h -13.6063" fill="none" stroke="black"/>
<path d="M63.9961,117.032h -6.80315" fill="none" stroke="black"/>
<path d="M63.9961,106.017h -6.80315" fill="none" stroke="black"/>
<path d="M63.9961,95.0026h -6.80315" fill="none" stroke="black"/>
<path d="M70.7992,83.9877h -13.6063" fill="none" stroke="black"/>
<path d="M63.9961,72.9728h -6.80315" fill="none" stroke="black"/>
<path d="M63.9961,61.958h -6.80315" fill="none" stroke="black"/>
<path d="M63.9961,50.9431h -6.80315" fill="none" stroke="black"/>
<path d="M70.7992,39.9282h -13.6063" fill="none" stroke="black"/>
<path d="M70.7992,39.9282h -13.6063" fill="none" stroke="black"/>
<text xml:space="preserve" x="49.1878" y="263.75" fill="black" font-size="9.78431" font-family="Helvetica">0</text>
<text xml:space="preserve" x="41.123" y="219.543" fill="black" font-size="9.78431" font-family="Helvetica">0.2</text>
<text xml:space="preserve" x="41.123" y="175.635" fill="black" font-size="9.78431" font-family="Helvetica">0.4</text>
<text xml:space="preserve" x="41.123" y="131.427" fill="black" font-size="9.78431" font-family="Helvetica">0.6</text>
<text xml:space="preserve" x="41.123" y="87.5186" fill="black" font-size="9.78431" font-family="Helvetica">0.8</text>
<text xml:space="preserve" x="50.6813" y="43.3112" fill="black" font-size="9.78431" font-family="Helvetica">1</text>
<g transform="rotate(-90,26.7854,31.3633)">
<text xml:space="preserve" x="26.7854" y="31.3633" fill="black" font-size="9.78431" font-family="Helvetica">)</text>
</g>
<g transform="rotate(-90,26.7854,37.0386)">
<text xml:space="preserve" x="26.7854" y="37.0386" fill="black" font-size="9.78431" font-family="Times">&#0956;</text>
</g>
<g transform="rotate(-90,26.4867,140.388)">
<text xml:space="preserve" x="26.4867" y="140.388" fill="black" font-size="9.78431" font-family="Helvetica">Magnetization per Spin (</text>
</g>
<path d="M77.8085,39.9284l 6.65226, 2.035e-05l 6.65226, 0.00050349l 6.65226, 0.000589048l 6.65226, 0.00307951l 6.65226, 0.00428012l 6.65226, 0.00980235l 6.65226, 0.014614l 6.65226, 0.0190633l 6.65226, 0.0307247l 6.65226, 0.0487897l 6.65226,
 0.0679912l 6.65226, 0.0887377l 6.65226, 0.115517l 6.65226, 0.142103l 6.65226, 0.191107l 6.65226, 0.23525l 6.65226, 0.274041l 6.65226, 0.36278l 6.65226, 0.383706l 6.65226, 0.491536l 6.65226, 0.61703l 6.65226, 0.658882l 6.65226, 0.799212l 6.65226,
 0.890207l 6.65226, 1.15986l 2.77169, 0.461274l 2.77169, 0.596799l 2.77169, 0.630807l 2.77169, 0.612409l 2.77169, 0.56555l 2.77169, 0.805803l 2.77169, 0.8084l 2.77169, 0.740814l 2.77169, 0.943485l 2.77169, 0.824978l 2.77169, 1.09723l 2.77169,
 1.00143l 2.77169, 1.09357l 2.77169, 1.73983l 2.77169, 1.46787l 2.77169, 1.12691l 2.77169, 1.58239l 2.77169, 1.45278l 2.77169, 2.59444l 2.77169, 1.96882l 2.77169, 1.66449l 2.77169, 3.94205l 2.77169, 1.93437l 2.77169, 7.93301l 2.77169, 10.9141l
 2.77169, -4.77973l 2.77169, 6.89838l 2.77169, 9.68318l 2.77169, 19.3618l 2.77169, 25.2691l 2.77169, 63.2955l 2.77169, 45.2314l 2.77169, -1.4271l 2.77169, -25.3719l 2.77169, 12.9305l 2.77169, 8.20999l 2.77169, -3.38346l 2.77169, 0.451678l 2.77169,
 0.376977l 2.77169, 6.15543l 2.77169, -5.56548l 2.77169, 7.79685l 2.77169, -3.58548l 2.77169, 3.51145l 2.77169, -3.75176l 2.77169, 3.80176l 2.77169, 0.0753571l 2.77169, -0.314857l 2.77169, -2.07874l 2.77169, 1.58264l 4.43452, -0.840184l 4.43452,
 0.894783l 4.43452, 0.333594l 4.43452, 0.111892l 4.43452, -1.39045l 4.43452, 0.413643l 4.43452, 1.00842l 4.43452, -0.121399l 4.43452, -0.952183l 4.43452, 1.28036l 4.43452, -0.572125l 4.43452, 0.291302l 4.43452, -0.761645l 4.43452, 0.019662l 4.43452,
 0.975144l 4.43452, 0.0365385l 4.43452, -1.0475l 4.43452, 0.41863l 4.43452, 0.39908l 4.43452, -0.376618l 4.43452, 0.57118l 4.43452, -0.00993743l 4.43452, 0.128769l 4.43452, -0.272615" fill="none" stroke="black"/>
<g stroke="#cccc66" stroke-width="1" fill="#cccc66">
<polygon points=" 77.8085, 38.7336 79.0033, 41.1232 76.6137, 41.1232"/>
<polygon points=" 84.4608, 38.7336 85.6556, 41.1232 83.266, 41.1232"/>
<polygon points=" 91.113, 38.7341 92.3078, 41.1237 89.9183, 41.1237"/>
<polygon points=" 97.7653, 38.7347 98.9601, 41.1243 96.5705, 41.1243"/>
<polygon points=" 104.418, 38.7378 105.612, 41.1274 103.223, 41.1274"/>
<polygon points=" 111.07, 38.7421 112.265, 41.1316 109.875, 41.1316"/>
<polygon points=" 117.722, 38.7519 118.917, 41.1414 116.527, 41.1414"/>
<polygon points=" 124.374, 38.7665 125.569, 41.1561 123.18, 41.1561"/>
<polygon points=" 131.027, 38.7855 132.221, 41.1751 129.832, 41.1751"/>
<polygon points=" 137.679, 38.8163 138.874, 41.2058 136.484, 41.2058"/>
<polygon points=" 144.331, 38.8651 145.526, 41.2546 143.136, 41.2546"/>
<polygon points=" 150.983, 38.933 152.178, 41.3226 149.789, 41.3226"/>
<polygon points=" 157.636, 39.0218 158.83, 41.4114 156.441, 41.4114"/>
<polygon points=" 164.288, 39.1373 165.483, 41.5269 163.093, 41.5269"/>
<polygon points=" 170.94, 39.2794 172.135, 41.669 169.745, 41.669"/>
<polygon points=" 177.592, 39.4705 178.787, 41.8601 176.398, 41.8601"/>
<polygon points=" 184.245, 39.7058 185.439, 42.0953 183.05, 42.0953"/>
<polygon points=" 190.897, 39.9798 192.092, 42.3694 189.702, 42.3694"/>
<polygon points=" 197.549, 40.3426 198.744, 42.7322 196.354, 42.7322"/>
<polygon points=" 204.201, 40.7263 205.396, 43.1159 203.007, 43.1159"/>
<polygon points=" 210.854, 41.2178 212.049, 43.6074 209.659, 43.6074"/>
<polygon points=" 217.506, 41.8349 218.701, 44.2244 216.311, 44.2244"/>
<polygon points=" 224.158, 42.4937 225.353, 44.8833 222.963, 44.8833"/>
<polygon points=" 230.811, 43.2929 232.005, 45.6825 229.616, 45.6825"/>
<polygon points=" 237.463, 44.1832 238.658, 46.5727 236.268, 46.5727"/>
<polygon points=" 244.115, 45.343 245.31, 47.7326 242.92, 47.7326"/>
<polygon points=" 246.887, 45.8043 248.082, 48.1939 245.692, 48.1939"/>
<polygon points=" 249.658, 46.4011 250.853, 48.7907 248.464, 48.7907"/>
<polygon points=" 252.43, 47.0319 253.625, 49.4215 251.235, 49.4215"/>
<polygon points=" 255.202, 47.6443 256.397, 50.0339 254.007, 50.0339"/>
<polygon points=" 257.974, 48.2099 259.168, 50.5994 256.779, 50.5994"/>
<polygon points=" 260.745, 49.0157 261.94, 51.4052 259.55, 51.4052"/>
<polygon points=" 263.517, 49.8241 264.712, 52.2136 262.322, 52.2136"/>
<polygon points=" 266.289, 50.5649 267.483, 52.9545 265.094, 52.9545"/>
<polygon points=" 269.06, 51.5084 270.255, 53.8979 267.866, 53.8979"/>
<polygon points=" 271.832, 52.3333 273.027, 54.7229 270.637, 54.7229"/>
<polygon points=" 274.604, 53.4306 275.798, 55.8201 273.409, 55.8201"/>
<polygon points=" 277.375, 54.432 278.57, 56.8216 276.181, 56.8216"/>
<polygon points=" 280.147, 55.5256 281.342, 57.9151 278.952, 57.9151"/>
<polygon points=" 282.919, 57.2654 284.114, 59.655 281.724, 59.655"/>
<polygon points=" 285.69, 58.7333 286.885, 61.1228 284.496, 61.1228"/>
<polygon points=" 288.462, 59.8602 289.657, 62.2497 287.267, 62.2497"/>
<polygon points=" 291.234, 61.4426 292.429, 63.8321 290.039, 63.8321"/>
<polygon points=" 294.006, 62.8953 295.2, 65.2849 292.811, 65.2849"/>
<polygon points=" 296.777, 65.4898 297.972, 67.8794 295.582, 67.8794"/>
<polygon points=" 299.549, 67.4586 300.744, 69.8482 298.354, 69.8482"/>
<polygon points=" 302.321, 69.1231 303.515, 71.5127 301.126, 71.5127"/>
<polygon points=" 305.092, 73.0651 306.287, 75.4547 303.898, 75.4547"/>
<polygon points=" 307.864, 74.9995 309.059, 77.3891 306.669, 77.3891"/>
<polygon points=" 310.636, 82.9325 311.831, 85.3221 309.441, 85.3221"/>
<polygon points=" 313.407, 93.8467 314.602, 96.2362 312.213, 96.2362"/>
<polygon points=" 316.179, 89.0669 317.374, 91.4565 314.984, 91.4565"/>
<polygon points=" 318.951, 95.9653 320.146, 98.3549 317.756, 98.3549"/>
<polygon points=" 321.722, 105.648 322.917, 108.038 320.528, 108.038"/>
<polygon points=" 324.494, 125.01 325.689, 127.4 323.299, 127.4"/>
<polygon points=" 327.266, 150.279 328.461, 152.669 326.071, 152.669"/>
<polygon points=" 330.038, 213.575 331.232, 215.964 328.843, 215.964"/>
<polygon points=" 332.809, 258.806 334.004, 261.196 331.614, 261.196"/>
<polygon points=" 335.581, 257.379 336.776, 259.769 334.386, 259.769"/>
<polygon points=" 338.353, 232.007 339.547, 234.397 337.158, 234.397"/>
<polygon points=" 341.124, 244.938 342.319, 247.327 339.93, 247.327"/>
<polygon points=" 343.896, 253.148 345.091, 255.537 342.701, 255.537"/>
<polygon points=" 346.668, 249.764 347.863, 252.154 345.473, 252.154"/>
<polygon points=" 349.439, 250.216 350.634, 252.606 348.245, 252.606"/>
<polygon points=" 352.211, 250.593 353.406, 252.982 351.016, 252.982"/>
<polygon points=" 354.983, 256.748 356.178, 259.138 353.788, 259.138"/>
<polygon points=" 357.755, 251.183 358.949, 253.572 356.56, 253.572"/>
<polygon points=" 360.526, 258.98 361.721, 261.369 359.331, 261.369"/>
<polygon points=" 363.298, 255.394 364.493, 257.784 362.103, 257.784"/>
<polygon points=" 366.07, 258.906 367.264, 261.295 364.875, 261.295"/>
<polygon points=" 368.841, 255.154 370.036, 257.544 367.646, 257.544"/>
<polygon points=" 371.613, 258.956 372.808, 261.345 370.418, 261.345"/>
<polygon points=" 374.385, 259.021 375.579, 261.411 373.19, 261.411"/>
<polygon points=" 377.156, 258.716 378.351, 261.106 375.962, 261.106"/>
<polygon points=" 379.928, 256.637 381.123, 259.027 378.733, 259.027"/>
<polygon points=" 382.7, 258.22 383.895, 260.61 381.505, 260.61"/>
<polygon points=" 387.134, 257.38 388.329, 259.77 385.939, 259.77"/>
<polygon points=" 391.569, 258.275 392.764, 260.664 390.374, 260.664"/>
<polygon points=" 396.003, 258.608 397.198, 260.998 394.809, 260.998"/>
<polygon points=" 400.438, 258.72 401.633, 261.11 399.243, 261.11"/>
<polygon points=" 404.872, 257.33 406.067, 259.719 403.678, 259.719"/>
<polygon points=" 409.307, 257.743 410.502, 260.133 408.112, 260.133"/>
<polygon points=" 413.741, 258.752 414.936, 261.141 412.547, 261.141"/>
<polygon points=" 418.176, 258.63 419.371, 261.02 416.981, 261.02"/>
<polygon points=" 422.61, 257.678 423.805, 260.068 421.416, 260.068"/>
<polygon points=" 427.045, 258.959 428.24, 261.348 425.85, 261.348"/>
<polygon points=" 431.479, 258.386 432.674, 260.776 430.285, 260.776"/>
<polygon points=" 435.914, 258.678 437.109, 261.067 434.719, 261.067"/>
<polygon points=" 440.348, 257.916 441.543, 260.306 439.154, 260.306"/>
<polygon points=" 444.783, 257.936 445.978, 260.325 443.588, 260.325"/>
<polygon points=" 449.217, 258.911 450.412, 261.3 448.023, 261.3"/>
<polygon points=" 453.652, 258.947 454.847, 261.337 452.457, 261.337"/>
<polygon points=" 458.087, 257.9 459.281, 260.29 456.892, 260.29"/>
<polygon points=" 462.521, 258.319 463.716, 260.708 461.326, 260.708"/>
<polygon points=" 466.956, 258.718 468.15, 261.107 465.761, 261.107"/>
<polygon points=" 471.39, 258.341 472.585, 260.731 470.195, 260.731"/>
<polygon points=" 475.825, 258.912 477.019, 261.302 474.63, 261.302"/>
<polygon points=" 480.259, 258.902 481.454, 261.292 479.064, 261.292"/>
<polygon points=" 484.694, 259.009 485.888, 261.398 483.499, 261.398"/>
<polygon points=" 489.128, 258.758 490.323, 261.148 487.933, 261.148"/>
</g>
<path d="M77.8085,134.234l 7.64472, -1.56853l 7.64472, 35.2799l 7.64472, -15.2648l 7.64472, -18.6896l 7.64472, 31.1997l 7.64472, 77.4064l 7.64472, -5.47379l 7.64472, -2.95481l 7.64472, 11.5917l 7.64472, 4.1269l 7.64472, -209.597l 7.64472, 0.149568l
 7.64472, 0.221529l 7.64472, 0.260246l 7.64472, 0.342048l 7.64472, 0.403231l 7.64472, 0.539514l 7.64472, 0.635261l 7.64472, 0.725977l 7.64472, 0.904607l 7.64472, 1.01226l 7.64472, 1.40887l 7.64472, 1.51481l 7.64472, 1.85012l 7.64472, 2.39266l
 2.77169, 1.10456l 2.77169, 0.598579l 2.77169, 1.13159l 2.77169, 1.1685l 2.77169, 1.29081l 2.77169, 1.7192l 2.77169, 1.55136l 2.77169, 0.82865l 2.77169, 2.19508l 2.77169, 1.54651l 2.77169, 2.96731l 2.77169, 2.2932l 2.77169, 3.0776l 2.77169, 3.80421l
 2.77169, 2.3815l 2.77169, 6.30084l 2.77169, 9.03789l 2.77169, 9.20679l 2.77169, 7.12271l 2.77169, 62.9484l 2.77169, 26.7758l 2.77169, -1.93124l 2.77169, 46.1976l 2.77169, -30.0683l 2.77169, 28.1342l 2.77169, -14.4824l 2.77169, 12.832l 2.77169,
 8.95636l 2.77169, 2.74068l 2.77169, 3.01906l 2.77169, 1.53776l 2.77169, 1.24138l 2.77169, -1.30644l 2.77169, -3.75192l 2.77169, 5.10729l 2.77169, -0.234803l 2.77169, -2.49476l 2.77169, -0.211217l 2.77169, 1.55242l 2.77169, 0.803758l 2.77169,
 -3.76908l 2.77169, 3.37752l 2.77169, -0.348244l 2.77169, 0.932162l 2.77169, -2.4929l 2.77169, 2.57156l 2.77169, -0.151475l 2.77169, 0.545235l 2.77169, -1.31538l 2.77169, 0.539064l 3.44205, 0.667895l 3.44205, 0.16334l 3.44206, -0.0825037l 3.44205,
 -0.9341l 3.44205, 0.181282l 3.44205, 0.340896l 3.44205, 0.657163l 3.44205, -0.45622l 3.44205, 0.1901l 3.44205, 0.176598l 3.44205, 0.0895223l 3.44205, -0.284148l 3.44205, -0.768057l 3.44205, 0.94869l 3.44205, -0.23489l 3.44205, 0.0486338l 3.44205,
 -0.304532l 3.44205, 0.452215l 3.44205, -1.04701l 3.44205, 1.01929l 3.44205, -0.0984541l 3.44206, 0.196475l 3.44205, -0.82752l 3.44205, 0.643983" fill="none" stroke="black"/>
<g stroke="#ff3333" stroke-width="1" fill="#ff3333">
<polygon points=" 77.8085, 133.039 79.0033, 135.429 76.6137, 135.429"/>
<polygon points=" 85.4532, 131.471 86.648, 133.86 84.2585, 133.86"/>
<polygon points=" 93.098, 166.751 94.2928, 169.14 91.9032, 169.14"/>
<polygon points=" 100.743, 151.486 101.937, 153.875 99.5479, 153.875"/>
<polygon points=" 108.387, 132.796 109.582, 135.186 107.193, 135.186"/>
<polygon points=" 116.032, 163.996 117.227, 166.385 114.837, 166.385"/>
<polygon points=" 123.677, 241.402 124.872, 243.792 122.482, 243.792"/>
<polygon points=" 131.322, 235.929 132.516, 238.318 130.127, 238.318"/>
<polygon points=" 138.966, 232.974 140.161, 235.363 137.772, 235.363"/>
<polygon points=" 146.611, 244.565 147.806, 246.955 145.416, 246.955"/>
<polygon points=" 154.256, 248.692 155.451, 251.082 153.061, 251.082"/>
<polygon points=" 161.9, 39.0955 163.095, 41.485 160.706, 41.485"/>
<polygon points=" 169.545, 39.245 170.74, 41.6346 168.35, 41.6346"/>
<polygon points=" 177.19, 39.4665 178.385, 41.8561 175.995, 41.8561"/>
<polygon points=" 184.835, 39.7268 186.029, 42.1164 183.64, 42.1164"/>
<polygon points=" 192.479, 40.0688 193.674, 42.4584 191.285, 42.4584"/>
<polygon points=" 200.124, 40.4721 201.319, 42.8617 198.929, 42.8617"/>
<polygon points=" 207.769, 41.0116 208.964, 43.4012 206.574, 43.4012"/>
<polygon points=" 215.414, 41.6468 216.608, 44.0364 214.219, 44.0364"/>
<polygon points=" 223.058, 42.3728 224.253, 44.7624 221.863, 44.7624"/>
<polygon points=" 230.703, 43.2774 231.898, 45.667 229.508, 45.667"/>
<polygon points=" 238.348, 44.2897 239.542, 46.6793 237.153, 46.6793"/>
<polygon points=" 245.992, 45.6986 247.187, 48.0881 244.798, 48.0881"/>
<polygon points=" 253.637, 47.2134 254.832, 49.603 252.442, 49.603"/>
<polygon points=" 261.282, 49.0635 262.477, 51.4531 260.087, 51.4531"/>
<polygon points=" 268.927, 51.4561 270.121, 53.8457 267.732, 53.8457"/>
<polygon points=" 271.698, 52.5607 272.893, 54.9503 270.503, 54.9503"/>
<polygon points=" 274.47, 53.1593 275.665, 55.5489 273.275, 55.5489"/>
<polygon points=" 277.242, 54.2909 278.436, 56.6805 276.047, 56.6805"/>
<polygon points=" 280.013, 55.4594 281.208, 57.849 278.819, 57.849"/>
<polygon points=" 282.785, 56.7502 283.98, 59.1398 281.59, 59.1398"/>
<polygon points=" 285.557, 58.4694 286.752, 60.859 284.362, 60.859"/>
<polygon points=" 288.328, 60.0207 289.523, 62.4103 287.134, 62.4103"/>
<polygon points=" 291.1, 60.8494 292.295, 63.239 289.905, 63.239"/>
<polygon points=" 293.872, 63.0445 295.067, 65.4341 292.677, 65.4341"/>
<polygon points=" 296.644, 64.591 297.838, 66.9806 295.449, 66.9806"/>
<polygon points=" 299.415, 67.5583 300.61, 69.9479 298.22, 69.9479"/>
<polygon points=" 302.187, 69.8515 303.382, 72.2411 300.992, 72.2411"/>
<polygon points=" 304.959, 72.9291 306.153, 75.3187 303.764, 75.3187"/>
<polygon points=" 307.73, 76.7333 308.925, 79.1229 306.536, 79.1229"/>
<polygon points=" 310.502, 79.1148 311.697, 81.5044 309.307, 81.5044"/>
<polygon points=" 313.274, 85.4156 314.468, 87.8052 312.079, 87.8052"/>
<polygon points=" 316.045, 94.4535 317.24, 96.8431 314.851, 96.8431"/>
<polygon points=" 318.817, 103.66 320.012, 106.05 317.622, 106.05"/>
<polygon points=" 321.589, 110.783 322.784, 113.173 320.394, 113.173"/>
<polygon points=" 324.36, 173.731 325.555, 176.121 323.166, 176.121"/>
<polygon points=" 327.132, 200.507 328.327, 202.897 325.937, 202.897"/>
<polygon points=" 329.904, 198.576 331.099, 200.966 328.709, 200.966"/>
<polygon points=" 332.676, 244.774 333.87, 247.163 331.481, 247.163"/>
<polygon points=" 335.447, 214.705 336.642, 217.095 334.252, 217.095"/>
<polygon points=" 338.219, 242.839 339.414, 245.229 337.024, 245.229"/>
<polygon points=" 340.991, 228.357 342.185, 230.747 339.796, 230.747"/>
<polygon points=" 343.762, 241.189 344.957, 243.579 342.568, 243.579"/>
<polygon points=" 346.534, 250.145 347.729, 252.535 345.339, 252.535"/>
<polygon points=" 349.306, 252.886 350.501, 255.276 348.111, 255.276"/>
<polygon points=" 352.077, 255.905 353.272, 258.295 350.883, 258.295"/>
<polygon points=" 354.849, 257.443 356.044, 259.832 353.654, 259.832"/>
<polygon points=" 357.621, 258.684 358.816, 261.074 356.426, 261.074"/>
<polygon points=" 360.392, 257.378 361.587, 259.767 359.198, 259.767"/>
<polygon points=" 363.164, 253.626 364.359, 256.016 361.969, 256.016"/>
<polygon points=" 365.936, 258.733 367.131, 261.123 364.741, 261.123"/>
<polygon points=" 368.708, 258.498 369.902, 260.888 367.513, 260.888"/>
<polygon points=" 371.479, 256.004 372.674, 258.393 370.284, 258.393"/>
<polygon points=" 374.251, 255.792 375.446, 258.182 373.056, 258.182"/>
<polygon points=" 377.023, 257.345 378.217, 259.734 375.828, 259.734"/>
<polygon points=" 379.794, 258.149 380.989, 260.538 378.6, 260.538"/>
<polygon points=" 382.566, 254.38 383.761, 256.769 381.371, 256.769"/>
<polygon points=" 385.338, 257.757 386.533, 260.147 384.143, 260.147"/>
<polygon points=" 388.109, 257.409 389.304, 259.798 386.915, 259.798"/>
<polygon points=" 390.881, 258.341 392.076, 260.731 389.686, 260.731"/>
<polygon points=" 393.653, 255.848 394.848, 258.238 392.458, 258.238"/>
<polygon points=" 396.425, 258.42 397.619, 260.809 395.23, 260.809"/>
<polygon points=" 399.196, 258.268 400.391, 260.658 398.001, 260.658"/>
<polygon points=" 401.968, 258.813 403.163, 261.203 400.773, 261.203"/>
<polygon points=" 404.74, 257.498 405.934, 259.888 403.545, 259.888"/>
<polygon points=" 407.511, 258.037 408.706, 260.427 406.316, 260.427"/>
<polygon points=" 410.953, 258.705 412.148, 261.095 409.759, 261.095"/>
<polygon points=" 414.395, 258.868 415.59, 261.258 413.201, 261.258"/>
<polygon points=" 417.837, 258.786 419.032, 261.175 416.643, 261.175"/>
<polygon points=" 421.28, 257.852 422.474, 260.241 420.085, 260.241"/>
<polygon points=" 424.722, 258.033 425.916, 260.423 423.527, 260.423"/>
<polygon points=" 428.164, 258.374 429.358, 260.763 426.969, 260.763"/>
<polygon points=" 431.606, 259.012 432.8, 261.401 430.411, 261.401"/>
<polygon points=" 435.048, 258.575 436.243, 260.964 433.853, 260.964"/>
<polygon points=" 438.49, 258.765 439.685, 261.155 437.295, 261.155"/>
<polygon points=" 441.932, 258.942 443.127, 261.331 440.737, 261.331"/>
<polygon points=" 445.374, 259.02 446.569, 261.41 444.179, 261.41"/>
<polygon points=" 448.816, 258.747 450.011, 261.136 447.621, 261.136"/>
<polygon points=" 452.258, 257.979 453.453, 260.368 451.063, 260.368"/>
<polygon points=" 455.7, 258.928 456.895, 261.317 454.505, 261.317"/>
<polygon points=" 459.142, 258.693 460.337, 261.082 457.947, 261.082"/>
<polygon points=" 462.584, 258.741 463.779, 261.131 461.389, 261.131"/>
<polygon points=" 466.026, 258.437 467.221, 260.826 464.831, 260.826"/>
<polygon points=" 469.468, 258.889 470.663, 261.279 468.273, 261.279"/>
<polygon points=" 472.91, 257.842 474.105, 260.232 471.716, 260.232"/>
<polygon points=" 476.352, 258.861 477.547, 261.251 475.158, 261.251"/>
<polygon points=" 479.794, 258.763 480.989, 261.152 478.6, 261.152"/>
<polygon points=" 483.237, 258.959 484.431, 261.349 482.042, 261.349"/>
<polygon points=" 486.679, 258.132 487.873, 260.521 485.484, 260.521"/>
<polygon points=" 490.121, 258.776 491.315, 261.165 488.926, 261.165"/>
</g>
<path d="M77.8085,163.108l 6.80186, -22.2353l 6.80186, 2.39972l 6.80186, 85.0773l 6.80186, 9.96531l 6.80186, -33.0544l 6.80186, -54.0329l 6.80186, 42.5237l 6.80186, -35.7968l 6.80186, 0.856084l 6.80186, 70.9246l 6.80186, -45.0497l 6.80186, 61.3595l
 6.80186, 0.869069l 6.80186, -14.0381l 6.80186, -38.7924l 6.80186, -153.1l 6.80186, 0.322912l 6.80186, 0.37723l 6.80186, 0.450793l 6.80186, 0.521761l 6.80186, 0.647959l 6.80186, 0.772783l 6.80186, 0.860795l 6.80186, 1.0035l 6.80186, 1.21182l 2.77169,
 0.581636l 2.77169, 0.652813l 2.77169, 0.587309l 2.77169, 0.656042l 2.77169, 0.791355l 2.77169, 0.724941l 2.77169, 0.929384l 2.77169, 0.846503l 2.77169, 0.872026l 2.77169, 1.18813l 2.77169, 1.09888l 2.77169, 1.21684l 2.77169, 1.73633l 2.77169,
 0.560713l 2.77169, 2.00469l 2.77169, 1.8623l 2.77169, 1.29793l 2.77169, 2.61125l 2.77169, 2.33702l 2.77169, 1.45319l 2.77169, 4.21415l 2.77169, 3.95331l 2.77169, 4.27708l 2.77169, 4.41479l 2.77169, 7.51702l 2.77169, 10.3094l 2.77169, 11.3731l
 2.77169, 96.3107l 2.77169, 15.8793l 2.77169, 27.2782l 2.77169, -0.264405l 2.77169, -16.0016l 2.77169, 15.8944l 2.77169, -12.3363l 2.77169, 15.1293l 2.77169, -9.31515l 2.77169, 0.473245l 2.77169, 2.91872l 2.77169, 5.16826l 2.77169, -3.39938l 2.77169,
 -2.28445l 2.77169, 6.65776l 2.77169, -3.18494l 2.77169, 0.844836l 2.77169, 2.75301l 2.77169, -6.36754l 2.77169, 6.69694l 2.77169, -0.0859421l 2.77169, -0.952717l 2.77169, 1.05164l 4.28492, -0.81571l 4.28492, -0.538071l 4.28492, 1.36875l 4.28492,
 -0.725929l 4.28492, 0.312215l 4.28492, 0.318148l 4.28492, -1.32162l 4.28492, 0.400248l 4.28492, 0.0106028l 4.28492, 1.06838l 4.28492, -0.38731l 4.28492, 0.38911l 4.28492, -0.357693l 4.28492, -0.150936l 4.28492, 0.515429l 4.28492, -0.30931l 4.28492,
 0.240731l 4.28492, -0.124125l 4.28492, -0.0560823l 4.28492, 0.279424l 4.28492, -0.0380047l 4.28492, -0.69229l 4.28492, 0.351923l 4.28492, -0.0271616" fill="none" stroke="black"/>
<g stroke="#993399" stroke-width="1" fill="#993399">
<polygon points=" 77.8085, 161.913 79.0033, 164.303 76.6137, 164.303"/>
<polygon points=" 84.6104, 139.678 85.8052, 142.067 83.4156, 142.067"/>
<polygon points=" 91.4122, 142.077 92.607, 144.467 90.2174, 144.467"/>
<polygon points=" 98.2141, 227.155 99.4089, 229.544 97.0193, 229.544"/>
<polygon points=" 105.016, 237.12 106.211, 239.509 103.821, 239.509"/>
<polygon points=" 111.818, 204.065 113.013, 206.455 110.623, 206.455"/>
<polygon points=" 118.62, 150.033 119.814, 152.422 117.425, 152.422"/>
<polygon points=" 125.422, 192.556 126.616, 194.946 124.227, 194.946"/>
<polygon points=" 132.223, 156.76 133.418, 159.149 131.029, 159.149"/>
<polygon points=" 139.025, 157.616 140.22, 160.005 137.83, 160.005"/>
<polygon points=" 145.827, 228.54 147.022, 230.93 144.632, 230.93"/>
<polygon points=" 152.629, 183.49 153.824, 185.88 151.434, 185.88"/>
<polygon points=" 159.431, 244.85 160.626, 247.24 158.236, 247.24"/>
<polygon points=" 166.233, 245.719 167.427, 248.109 165.038, 248.109"/>
<polygon points=" 173.035, 231.681 174.229, 234.071 171.84, 234.071"/>
<polygon points=" 179.836, 192.889 181.031, 195.278 178.642, 195.278"/>
<polygon points=" 186.638, 39.7888 187.833, 42.1784 185.443, 42.1784"/>
<polygon points=" 193.44, 40.1117 194.635, 42.5013 192.245, 42.5013"/>
<polygon points=" 200.242, 40.4889 201.437, 42.8785 199.047, 42.8785"/>
<polygon points=" 207.044, 40.9397 208.239, 43.3293 205.849, 43.3293"/>
<polygon points=" 213.846, 41.4615 215.041, 43.8511 212.651, 43.8511"/>
<polygon points=" 220.648, 42.1095 221.842, 44.499 219.453, 44.499"/>
<polygon points=" 227.449, 42.8822 228.644, 45.2718 226.255, 45.2718"/>
<polygon points=" 234.251, 43.743 235.446, 46.1326 233.057, 46.1326"/>
<polygon points=" 241.053, 44.7465 242.248, 47.1361 239.858, 47.1361"/>
<polygon points=" 247.855, 45.9584 249.05, 48.3479 246.66, 48.3479"/>
<polygon points=" 250.627, 46.54 251.822, 48.9296 249.432, 48.9296"/>
<polygon points=" 253.398, 47.1928 254.593, 49.5824 252.204, 49.5824"/>
<polygon points=" 256.17, 47.7801 257.365, 50.1697 254.975, 50.1697"/>
<polygon points=" 258.942, 48.4362 260.137, 50.8257 257.747, 50.8257"/>
<polygon points=" 261.714, 49.2275 262.908, 51.6171 260.519, 51.6171"/>
<polygon points=" 264.485, 49.9525 265.68, 52.342 263.29, 52.342"/>
<polygon points=" 267.257, 50.8818 268.452, 53.2714 266.062, 53.2714"/>
<polygon points=" 270.029, 51.7283 271.223, 54.1179 268.834, 54.1179"/>
<polygon points=" 272.8, 52.6004 273.995, 54.99 271.605, 54.99"/>
<polygon points=" 275.572, 53.7885 276.767, 56.1781 274.377, 56.1781"/>
<polygon points=" 278.344, 54.8874 279.538, 57.277 277.149, 57.277"/>
<polygon points=" 281.115, 56.1042 282.31, 58.4938 279.921, 58.4938"/>
<polygon points=" 283.887, 57.8406 285.082, 60.2301 282.692, 60.2301"/>
<polygon points=" 286.659, 58.4013 287.854, 60.7909 285.464, 60.7909"/>
<polygon points=" 289.43, 60.406 290.625, 62.7955 288.236, 62.7955"/>
<polygon points=" 292.202, 62.2683 293.397, 64.6578 291.007, 64.6578"/>
<polygon points=" 294.974, 63.5662 296.169, 65.9558 293.779, 65.9558"/>
<polygon points=" 297.746, 66.1774 298.94, 68.567 296.551, 68.567"/>
<polygon points=" 300.517, 68.5145 301.712, 70.904 299.322, 70.904"/>
<polygon points=" 303.289, 69.9676 304.484, 72.3572 302.094, 72.3572"/>
<polygon points=" 306.061, 74.1818 307.255, 76.5714 304.866, 76.5714"/>
<polygon points=" 308.832, 78.1351 310.027, 80.5247 307.637, 80.5247"/>
<polygon points=" 311.604, 82.4122 312.799, 84.8018 310.409, 84.8018"/>
<polygon points=" 314.376, 86.827 315.57, 89.2166 313.181, 89.2166"/>
<polygon points=" 317.147, 94.344 318.342, 96.7336 315.953, 96.7336"/>
<polygon points=" 319.919, 104.653 321.114, 107.043 318.724, 107.043"/>
<polygon points=" 322.691, 116.027 323.886, 118.416 321.496, 118.416"/>
<polygon points=" 325.462, 212.337 326.657, 214.727 324.268, 214.727"/>
<polygon points=" 328.234, 228.216 329.429, 230.606 327.039, 230.606"/>
<polygon points=" 331.006, 255.495 332.201, 257.884 329.811, 257.884"/>
<polygon points=" 333.778, 255.23 334.972, 257.62 332.583, 257.62"/>
<polygon points=" 336.549, 239.229 337.744, 241.618 335.354, 241.618"/>
<polygon points=" 339.321, 255.123 340.516, 257.513 338.126, 257.513"/>
<polygon points=" 342.093, 242.787 343.287, 245.176 340.898, 245.176"/>
<polygon points=" 344.864, 257.916 346.059, 260.306 343.67, 260.306"/>
<polygon points=" 347.636, 248.601 348.831, 250.99 346.441, 250.99"/>
<polygon points=" 350.408, 249.074 351.603, 251.464 349.213, 251.464"/>
<polygon points=" 353.179, 251.993 354.374, 254.382 351.985, 254.382"/>
<polygon points=" 355.951, 257.161 357.146, 259.551 354.756, 259.551"/>
<polygon points=" 358.723, 253.762 359.918, 256.151 357.528, 256.151"/>
<polygon points=" 361.494, 251.477 362.689, 253.867 360.3, 253.867"/>
<polygon points=" 364.266, 258.135 365.461, 260.525 363.071, 260.525"/>
<polygon points=" 367.038, 254.95 368.233, 257.34 365.843, 257.34"/>
<polygon points=" 369.81, 255.795 371.004, 258.185 368.615, 258.185"/>
<polygon points=" 372.581, 258.548 373.776, 260.938 371.386, 260.938"/>
<polygon points=" 375.353, 252.18 376.548, 254.57 374.158, 254.57"/>
<polygon points=" 378.125, 258.877 379.319, 261.267 376.93, 261.267"/>
<polygon points=" 380.896, 258.791 382.091, 261.181 379.702, 261.181"/>
<polygon points=" 383.668, 257.839 384.863, 260.228 382.473, 260.228"/>
<polygon points=" 386.44, 258.89 387.635, 261.28 385.245, 261.28"/>
<polygon points=" 390.725, 258.075 391.919, 260.464 389.53, 260.464"/>
<polygon points=" 395.01, 257.537 396.204, 259.926 393.815, 259.926"/>
<polygon points=" 399.294, 258.905 400.489, 261.295 398.1, 261.295"/>
<polygon points=" 403.579, 258.179 404.774, 260.569 402.385, 260.569"/>
<polygon points=" 407.864, 258.492 409.059, 260.881 406.67, 260.881"/>
<polygon points=" 412.149, 258.81 413.344, 261.199 410.954, 261.199"/>
<polygon points=" 416.434, 257.488 417.629, 259.878 415.239, 259.878"/>
<polygon points=" 420.719, 257.888 421.914, 260.278 419.524, 260.278"/>
<polygon points=" 425.004, 257.899 426.199, 260.289 423.809, 260.289"/>
<polygon points=" 429.289, 258.967 430.484, 261.357 428.094, 261.357"/>
<polygon points=" 433.574, 258.58 434.769, 260.97 432.379, 260.97"/>
<polygon points=" 437.859, 258.969 439.054, 261.359 436.664, 261.359"/>
<polygon points=" 442.144, 258.611 443.338, 261.001 440.949, 261.001"/>
<polygon points=" 446.429, 258.461 447.623, 260.85 445.234, 260.85"/>
<polygon points=" 450.714, 258.976 451.908, 261.366 449.519, 261.366"/>
<polygon points=" 454.998, 258.667 456.193, 261.056 453.804, 261.056"/>
<polygon points=" 459.283, 258.907 460.478, 261.297 458.089, 261.297"/>
<polygon points=" 463.568, 258.783 464.763, 261.173 462.373, 261.173"/>
<polygon points=" 467.853, 258.727 469.048, 261.117 466.658, 261.117"/>
<polygon points=" 472.138, 259.007 473.333, 261.396 470.943, 261.396"/>
<polygon points=" 476.423, 258.969 477.618, 261.358 475.228, 261.358"/>
<polygon points=" 480.708, 258.276 481.903, 260.666 479.513, 260.666"/>
<polygon points=" 484.993, 258.628 486.188, 261.018 483.798, 261.018"/>
<polygon points=" 489.278, 258.601 490.473, 260.991 488.083, 260.991"/>
</g>
<rect x="341.315" y="52.5134" width="204.31" height="57.8912" fill="white"/>
<path d="M341.315,110.405h 169.422" fill="none" stroke="black"/>
<path d="M510.736,52.5134h -169.422" fill="none" stroke="black"/>
<path d="M341.315,52.5134v 57.8912" fill="none" stroke="black"/>
<text xml:space="preserve" x="362.522" y="63.6227" fill="#3333ff" font-size="12.7156" font-family="Helvetica"> / ndf </text>
<text xml:space="preserve" x="358.042" y="59.4409" fill="#3333ff" font-size="8.64372" font-family="Helvetica">2</text>
<text xml:space="preserve" x="351.47" y="63.6227" fill="#3333ff" font-size="12.7156" font-family="Times">&#0967;</text>
<text xml:space="preserve" x="455.417" y="64.5188" fill="#3333ff" font-size="12.7156" font-family="Helvetica"> 0.0004045 / 8</text>
<text xml:space="preserve" x="351.47" y="78.8563" fill="#3333ff" font-size="12.7156" font-family="Helvetica">Tc       </text>
<text xml:space="preserve" x="486.781" y="78.5576" fill="#3333ff" font-size="12.7156" font-family="Helvetica"> 0.02393</text>
<text xml:space="preserve" x="479.911" y="78.5576" fill="#3333ff" font-size="12.7156" font-family="Times">&#0177;</text>
<text xml:space="preserve" x="441.379" y="78.5576" fill="#3333ff" font-size="12.7156" font-family="Helvetica"> 2.258 </text>
<text xml:space="preserve" x="351.47" y="90.5055" fill="#3333ff" font-size="12.7156" font-family="Helvetica">exp      </text>
<text xml:space="preserve" x="488.872" y="92.8951" fill="#3333ff" font-size="12.7156" font-family="Helvetica"> 0.02051</text>
<text xml:space="preserve" x="482.001" y="92.8951" fill="#3333ff" font-size="12.7156" font-family="Times">&#0177;</text>
<text xml:space="preserve" x="438.392" y="92.8951" fill="#3333ff" font-size="12.7156" font-family="Helvetica"> 0.1081 </text>
<text xml:space="preserve" x="351.47" y="107.83" fill="#3333ff" font-size="12.7156" font-family="Helvetica">coeff    </text>
<text xml:space="preserve" x="488.872" y="107.531" fill="#3333ff" font-size="12.7156" font-family="Helvetica"> 0.04481</text>
<text xml:space="preserve" x="482.001" y="107.531" fill="#3333ff" font-size="12.7156" font-family="Times">&#0177;</text>
<text xml:space="preserve" x="443.469" y="107.531" fill="#3333ff" font-size="12.7156" font-family="Helvetica"> 1.155 </text>
<path d="M77.8085,208.883l 6.94299, -24.1816l 6.94299, -0.448656l 6.94299, 1.61715l 6.94299, -6.92858l 6.94299, -21.211l 6.94299, -28.5884l 6.94299, -77.2481l 6.94299, -11.9013l 6.94299, 0.0385444l 6.94299, 0.0600847l 6.94299, 0.0777767l 6.94299,
 0.101543l 6.94299, 0.142665l 6.94299, 0.167711l 6.94299, 0.232875l 6.94299, 0.269209l 6.94299, 0.362558l 6.94299, 0.395551l 6.94299, 0.520711l 6.94299, 0.573229l 6.94299, 0.709789l 6.94299, 0.79198l 6.94299, 0.98745l 6.94299, 1.14258l 6.94299,
 1.35414l 2.77169, 0.632831l 2.77169, 0.575546l 2.77169, 0.706238l 2.77169, 0.741502l 2.77169, 0.774155l 2.77169, 0.850113l 2.77169, 0.8552l 2.77169, 1.16886l 2.77169, 0.890097l 2.77169, 1.19254l 2.77169, 1.02787l 2.77169, 1.74213l 2.77169, 1.69482l
 2.77169, 1.01076l 2.77169, 1.85129l 2.77169, 2.15697l 2.77169, 1.77046l 2.77169, 3.59416l 2.77169, 2.15758l 2.77169, 4.35924l 2.77169, 7.71607l 2.77169, -0.473823l 2.77169, 6.15057l 2.77169, 20.086l 2.77169, -0.113638l 2.77169, 16.4846l 2.77169,
 19.4812l 2.77169, 63.5846l 2.77169, 7.39668l 2.77169, -22.4787l 2.77169, 52.8447l 2.77169, -0.334412l 2.77169, 9.06869l 2.77169, -5.50167l 2.77169, 5.3748l 2.77169, 1.35183l 2.77169, -0.205919l 2.77169, 1.99432l 2.77169, -4.06699l 2.77169, 1.72733l
 2.77169, 1.52899l 2.77169, 0.393429l 2.77169, -2.14466l 2.77169, 0.682717l 2.77169, -0.702757l 2.77169, 0.998696l 2.77169, -1.34477l 2.77169, -2.06558l 2.77169, 3.91374l 2.77169, -2.40932l 4.14379, 2.19904l 4.14379, 0.899143l 4.14379, -0.615688l
 4.14379, 0.615696l 4.14379, 0.362609l 4.14379, -0.937557l 4.14379, -0.177785l 4.14379, 1.13174l 4.14379, -0.148054l 4.14379, -0.0864165l 4.14379, -0.442151l 4.14379, 0.503157l 4.14379, -0.078565l 4.14379, -0.103249l 4.14379, -0.0890418l 4.14379,
 0.0891741l 4.14379, 0.215007l 4.14379, 0.207964l 4.14379, -0.0985321l 4.14379, -0.539643l 4.14379, 0.428971l 4.14379, 0.189427l 4.14379, -0.25363l 4.14379, -0.00802145" fill="none" stroke="black"/>
<g stroke="#3333ff" stroke-width="1" fill="#3333ff">
<polygon points=" 77.8085, 207.688 79.0033, 210.078 76.6137, 210.078"/>
<polygon points=" 84.7515, 183.507 85.9463, 185.896 83.5567, 185.896"/>
<polygon points=" 91.6945, 183.058 92.8893, 185.448 90.4997, 185.448"/>
<polygon points=" 98.6375, 184.675 99.8323, 187.065 97.4427, 187.065"/>
<polygon points=" 105.58, 177.747 106.775, 180.136 104.386, 180.136"/>
<polygon points=" 112.523, 156.536 113.718, 158.925 111.329, 158.925"/>
<polygon points=" 119.466, 127.947 120.661, 130.337 118.272, 130.337"/>
<polygon points=" 126.409, 50.6991 127.604, 53.0887 125.215, 53.0887"/>
<polygon points=" 133.352, 38.7978 134.547, 41.1874 132.158, 41.1874"/>
<polygon points=" 140.295, 38.8363 141.49, 41.2259 139.101, 41.2259"/>
<polygon points=" 147.238, 38.8964 148.433, 41.286 146.044, 41.286"/>
<polygon points=" 154.181, 38.9742 155.376, 41.3638 152.987, 41.3638"/>
<polygon points=" 161.124, 39.0757 162.319, 41.4653 159.93, 41.4653"/>
<polygon points=" 168.067, 39.2184 169.262, 41.608 166.873, 41.608"/>
<polygon points=" 175.01, 39.3861 176.205, 41.7757 173.816, 41.7757"/>
<polygon points=" 181.953, 39.619 183.148, 42.0086 180.759, 42.0086"/>
<polygon points=" 188.896, 39.8882 190.091, 42.2778 187.701, 42.2778"/>
<polygon points=" 195.839, 40.2508 197.034, 42.6404 194.644, 42.6404"/>
<polygon points=" 202.782, 40.6463 203.977, 43.0359 201.587, 43.0359"/>
<polygon points=" 209.725, 41.167 210.92, 43.5566 208.53, 43.5566"/>
<polygon points=" 216.668, 41.7403 217.863, 44.1298 215.473, 44.1298"/>
<polygon points=" 223.611, 42.45 224.806, 44.8396 222.416, 44.8396"/>
<polygon points=" 230.554, 43.242 231.749, 45.6316 229.359, 45.6316"/>
<polygon points=" 237.497, 44.2295 238.692, 46.6191 236.302, 46.6191"/>
<polygon points=" 244.44, 45.3721 245.635, 47.7616 243.245, 47.7616"/>
<polygon points=" 251.383, 46.7262 252.578, 49.1158 250.188, 49.1158"/>
<polygon points=" 254.155, 47.359 255.35, 49.7486 252.96, 49.7486"/>
<polygon points=" 256.927, 47.9346 258.121, 50.3242 255.732, 50.3242"/>
<polygon points=" 259.698, 48.6408 260.893, 51.0304 258.503, 51.0304"/>
<polygon points=" 262.47, 49.3823 263.665, 51.7719 261.275, 51.7719"/>
<polygon points=" 265.242, 50.1565 266.436, 52.5461 264.047, 52.5461"/>
<polygon points=" 268.013, 51.0066 269.208, 53.3962 266.819, 53.3962"/>
<polygon points=" 270.785, 51.8618 271.98, 54.2514 269.59, 54.2514"/>
<polygon points=" 273.557, 53.0306 274.751, 55.4202 272.362, 55.4202"/>
<polygon points=" 276.328, 53.9207 277.523, 56.3103 275.134, 56.3103"/>
<polygon points=" 279.1, 55.1133 280.295, 57.5029 277.905, 57.5029"/>
<polygon points=" 281.872, 56.1411 283.067, 58.5307 280.677, 58.5307"/>
<polygon points=" 284.643, 57.8833 285.838, 60.2729 283.449, 60.2729"/>
<polygon points=" 287.415, 59.5781 288.61, 61.9677 286.22, 61.9677"/>
<polygon points=" 290.187, 60.5889 291.382, 62.9784 288.992, 62.9784"/>
<polygon points=" 292.959, 62.4401 294.153, 64.8297 291.764, 64.8297"/>
<polygon points=" 295.73, 64.5971 296.925, 66.9867 294.535, 66.9867"/>
<polygon points=" 298.502, 66.3676 299.697, 68.7572 297.307, 68.7572"/>
<polygon points=" 301.274, 69.9617 302.468, 72.3513 300.079, 72.3513"/>
<polygon points=" 304.045, 72.1193 305.24, 74.5089 302.851, 74.5089"/>
<polygon points=" 306.817, 76.4786 308.012, 78.8681 305.622, 78.8681"/>
<polygon points=" 309.589, 84.1946 310.784, 86.5842 308.394, 86.5842"/>
<polygon points=" 312.36, 83.7208 313.555, 86.1104 311.166, 86.1104"/>
<polygon points=" 315.132, 89.8714 316.327, 92.261 313.937, 92.261"/>
<polygon points=" 317.904, 109.957 319.099, 112.347 316.709, 112.347"/>
<polygon points=" 320.676, 109.844 321.87, 112.233 319.481, 112.233"/>
<polygon points=" 323.447, 126.328 324.642, 128.718 322.252, 128.718"/>
<polygon points=" 326.219, 145.809 327.414, 148.199 325.024, 148.199"/>
<polygon points=" 328.991, 209.394 330.185, 211.784 327.796, 211.784"/>
<polygon points=" 331.762, 216.791 332.957, 219.18 330.568, 219.18"/>
<polygon points=" 334.534, 194.312 335.729, 196.702 333.339, 196.702"/>
<polygon points=" 337.306, 247.157 338.5, 249.546 336.111, 249.546"/>
<polygon points=" 340.077, 246.822 341.272, 249.212 338.883, 249.212"/>
<polygon points=" 342.849, 255.891 344.044, 258.281 341.654, 258.281"/>
<polygon points=" 345.621, 250.389 346.816, 252.779 344.426, 252.779"/>
<polygon points=" 348.392, 255.764 349.587, 258.154 347.198, 258.154"/>
<polygon points=" 351.164, 257.116 352.359, 259.506 349.969, 259.506"/>
<polygon points=" 353.936, 256.91 355.131, 259.3 352.741, 259.3"/>
<polygon points=" 356.708, 258.904 357.902, 261.294 355.513, 261.294"/>
<polygon points=" 359.479, 254.837 360.674, 257.227 358.284, 257.227"/>
<polygon points=" 362.251, 256.565 363.446, 258.954 361.056, 258.954"/>
<polygon points=" 365.023, 258.094 366.217, 260.483 363.828, 260.483"/>
<polygon points=" 367.794, 258.487 368.989, 260.877 366.6, 260.877"/>
<polygon points=" 370.566, 256.343 371.761, 258.732 369.371, 258.732"/>
<polygon points=" 373.338, 257.025 374.533, 259.415 372.143, 259.415"/>
<polygon points=" 376.109, 256.322 377.304, 258.712 374.915, 258.712"/>
<polygon points=" 378.881, 257.321 380.076, 259.711 377.686, 259.711"/>
<polygon points=" 381.653, 255.976 382.848, 258.366 380.458, 258.366"/>
<polygon points=" 384.424, 253.911 385.619, 256.3 383.23, 256.3"/>
<polygon points=" 387.196, 257.825 388.391, 260.214 386.001, 260.214"/>
<polygon points=" 389.968, 255.415 391.163, 257.805 388.773, 257.805"/>
<polygon points=" 394.112, 257.614 395.306, 260.004 392.917, 260.004"/>
<polygon points=" 398.255, 258.513 399.45, 260.903 397.061, 260.903"/>
<polygon points=" 402.399, 257.898 403.594, 260.287 401.204, 260.287"/>
<polygon points=" 406.543, 258.513 407.738, 260.903 405.348, 260.903"/>
<polygon points=" 410.687, 258.876 411.882, 261.266 409.492, 261.266"/>
<polygon points=" 414.831, 257.939 416.025, 260.328 413.636, 260.328"/>
<polygon points=" 418.974, 257.761 420.169, 260.15 417.78, 260.15"/>
<polygon points=" 423.118, 258.892 424.313, 261.282 421.923, 261.282"/>
<polygon points=" 427.262, 258.744 428.457, 261.134 426.067, 261.134"/>
<polygon points=" 431.406, 258.658 432.601, 261.048 430.211, 261.048"/>
<polygon points=" 435.55, 258.216 436.744, 260.605 434.355, 260.605"/>
<polygon points=" 439.693, 258.719 440.888, 261.109 438.499, 261.109"/>
<polygon points=" 443.837, 258.64 445.032, 261.03 442.642, 261.03"/>
<polygon points=" 447.981, 258.537 449.176, 260.927 446.786, 260.927"/>
<polygon points=" 452.125, 258.448 453.32, 260.838 450.93, 260.838"/>
<polygon points=" 456.269, 258.537 457.463, 260.927 455.074, 260.927"/>
<polygon points=" 460.412, 258.752 461.607, 261.142 459.218, 261.142"/>
<polygon points=" 464.556, 258.96 465.751, 261.35 463.361, 261.35"/>
<polygon points=" 468.7, 258.862 469.895, 261.251 467.505, 261.251"/>
<polygon points=" 472.844, 258.322 474.039, 260.712 471.649, 260.712"/>
<polygon points=" 476.987, 258.751 478.182, 261.141 475.793, 261.141"/>
<polygon points=" 481.131, 258.94 482.326, 261.33 479.936, 261.33"/>
<polygon points=" 485.275, 258.687 486.47, 261.076 484.08, 261.076"/>
<polygon points=" 489.419, 258.679 490.614, 261.068 488.224, 261.068"/>
</g>
<path d="M283.066,57.504l 0.304886, 0.17494l 0.304886, 0.176196l 0.304886, 0.177471l 0.304886, 0.178766l 0.304886, 0.180081l 0.304886, 0.181417l 0.304886, 0.182774l 0.304886, 0.184153l 0.304886, 0.185554l 0.304886, 0.186978l 0.304886, 0.188425l
 0.304886, 0.189897l 0.304886, 0.191393l 0.304886, 0.192914l 0.304886, 0.194461l 0.304886, 0.196034l 0.304886, 0.197635l 0.304886, 0.199264l 0.304886, 0.200921l 0.304886, 0.202608l 0.304886, 0.204325l 0.304886, 0.206074l 0.304886, 0.207854l 0.304886,
 0.209668l 0.304886, 0.211515l 0.304886, 0.213398l 0.304886, 0.215316l 0.304886, 0.217271l 0.304886, 0.219264l 0.304886, 0.221296l 0.304886, 0.223369l 0.304886, 0.225483l 0.304886, 0.22764l 0.304886, 0.229842l 0.304886, 0.232089l 0.304886, 0.234383l
 0.304886, 0.236726l 0.304886, 0.239119l 0.304886, 0.241564l 0.304886, 0.244063l 0.304886, 0.246617l 0.304886, 0.249229l 0.304886, 0.251899l 0.304886, 0.254632l 0.304886, 0.257428l 0.304886, 0.26029l 0.304886, 0.26322l 0.304886, 0.266221l 0.304886,
 0.269296" fill="none" stroke="#ff0000" stroke-width="2"/>
<path d="M298.005,68.045l 0.304886, 0.272447l 0.304886, 0.275677l 0.304886, 0.278989l 0.304886, 0.282387l 0.304886, 0.285875l 0.304886, 0.289454l 0.304886, 0.29313l 0.304886, 0.296907l 0.304886, 0.300788l 0.304886, 0.304779l 0.304886, 0.308884l
 0.304886, 0.313107l 0.304886, 0.317455l 0.304886, 0.321934l 0.304886, 0.326548l 0.304886, 0.331305l 0.304886, 0.336211l 0.304886, 0.341274l 0.304886, 0.346502l 0.304886, 0.351902l 0.304886, 0.357484l 0.304886, 0.363258l 0.304886, 0.369232l 0.304886,
 0.37542l 0.304886, 0.381831l 0.304886, 0.388479l 0.304886, 0.395377l 0.304886, 0.402541l 0.304886, 0.409986l 0.304886, 0.417729l 0.304886, 0.425789l 0.304886, 0.434186l 0.304886, 0.442942l 0.304886, 0.452081l 0.304886, 0.46163l 0.304886, 0.471617l
 0.304886, 0.482074l 0.304886, 0.493036l 0.304886, 0.504539l 0.304886, 0.516628l 0.304886, 0.529348l 0.304886, 0.542751l 0.304886, 0.556895l 0.304886, 0.571844l 0.304886, 0.587672l 0.304886, 0.604458l 0.304886, 0.622295l 0.304886, 0.641287l 0.304886,
 0.661552" fill="none" stroke="#ff0000" stroke-width="2"/>
<path d="M312.945,88.0845l 0.304886, 0.683225" fill="none" stroke="#ff0000" stroke-width="2"/>
<rect x="341.315" y="52.5134" width="204.31" height="57.8912" fill="white"/>
<path d="M341.315,110.405h 204.31" fill="none" stroke="black"/>
<path d="M545.624,110.405v -57.8912" fill="none" stroke="black"/>
<path d="M545.624,52.5134h -204.31" fill="none" stroke="black"/>
<path d="M341.315,52.5134v 57.8912" fill="none" stroke="black"/>
<text xml:space="preserve" x="362.522" y="63.6227" fill="#3333ff" font-size="12.7156" font-family="Helvetica"> / ndf </text>
<text xml:space="preserve" x="358.042" y="59.4409" fill="#3333ff" font-size="8.64372" font-family="Helvetica">2</text>
<text xml:space="preserve" x="351.47" y="63.6227" fill="#3333ff" font-size="12.7156" font-family="Times">&#0967;</text>
<text xml:space="preserve" x="455.417" y="64.5188" fill="#3333ff" font-size="12.7156" font-family="Helvetica"> 0.0004045 / 8</text>
<text xml:space="preserve" x="351.47" y="78.8563" fill="#3333ff" font-size="12.7156" font-family="Helvetica">Tc       </text>
<text xml:space="preserve" x="486.781" y="78.5576" fill="#3333ff" font-size="12.7156" font-family="Helvetica"> 0.02393</text>
<text xml:space="preserve" x="479.911" y="78.5576" fill="#3333ff" font-size="12.7156" font-family="Times">&#0177;</text>
<text xml:space="preserve" x="441.379" y="78.5576" fill="#3333ff" font-size="12.7156" font-family="Helvetica"> 2.258 </text>
<text xml:space="preserve" x="351.47" y="90.5055" fill="#3333ff" font-size="12.7156" font-family="Helvetica">exp      </text>
<text xml:space="preserve" x="488.872" y="92.8951" fill="#3333ff" font-size="12.7156" font-family="Helvetica"> 0.02051</text>
<text xml:space="preserve" x="482.001" y="92.8951" fill="#3333ff" font-size="12.7156" font-family="Times">&#0177;</text>
<text xml:space="preserve" x="438.392" y="92.8951" fill="#3333ff" font-size="12.7156" font-family="Helvetica"> 0.1081 </text>
<text xml:space="preserve" x="351.47" y="107.83" fill="#3333ff" font-size="12.7156" font-family="Helvetica">coeff    </text>
<text xml:space="preserve" x="488.872" y="107.531" fill="#3333ff" font-size="12.7156" font-family="Helvetica"> 0.04481</text>
<text xml:space="preserve" x="482.001" y="107.531" fill="#3333ff" font-size="12.7156" font-family="Times">&#0177;</text>
<text xml:space="preserve" x="443.469" y="107.531" fill="#3333ff" font-size="12.7156" font-family="Helvetica"> 1.155 </text>
<text xml:space="preserve" x="106.239" y="14.0388" fill="black" font-size="14.1998" font-family="Helvetica">Magnetization per Spin on Temperature for Different Size</text>
<rect x="392.093" y="159.755" width="109.921" height="63.2691" fill="white"/>
<path d="M392.093,223.024h 109.921" fill="none" stroke="black"/>
<path d="M502.014,223.024v -63.2691" fill="none" stroke="black"/>
<path d="M502.014,159.755h -109.921" fill="none" stroke="black"/>
<path d="M392.093,159.755v 63.2691" fill="none" stroke="black"/>
<text xml:space="preserve" x="434.807" y="167.271" fill="black" font-size="8.36156" font-family="Helvetica">Legend</text>
<text xml:space="preserve" x="419.574" y="177.725" fill="black" font-size="8.36156" font-family="Helvetica">Lattice 40x40</text>
<path d="M396.215,175.572h 19.2362" fill="none" stroke="black"/>
<path d="M405.833,174.377v -1.96866" fill="none" stroke="black"/>
<path d="M405.833,176.767v 1.96866" fill="none" stroke="black"/>
<path d="M404.391,172.408h 2.88542" fill="none" stroke="black"/>
<path d="M404.391,178.735h 2.88542" fill="none" stroke="black"/>
<g stroke="#cccc66" stroke-width="1" fill="#cccc66">
<polygon points=" 405.833, 174.377 407.028, 176.767 404.639, 176.767"/>
</g>
<text xml:space="preserve" x="419.574" y="188.479" fill="black" font-size="8.36156" font-family="Helvetica">Lattice 60x60</text>
<path d="M396.215,186.117h 19.2362" fill="none" stroke="black"/>
<path d="M405.833,184.922v -1.96866" fill="none" stroke="black"/>
<path d="M405.833,187.311v 1.96866" fill="none" stroke="black"/>
<path d="M404.391,182.953h 2.88542" fill="none" stroke="black"/>
<path d="M404.391,189.28h 2.88542" fill="none" stroke="black"/>
<g stroke="#ff3333" stroke-width="1" fill="#ff3333">
<polygon points=" 405.833, 184.922 407.028, 187.311 404.639, 187.311"/>
</g>
<text xml:space="preserve" x="419.574" y="198.933" fill="black" font-size="8.36156" font-family="Helvetica">Lattice 80x80</text>
<path d="M396.215,196.661h 19.2362" fill="none" stroke="black"/>
<path d="M405.833,195.467v -1.96866" fill="none" stroke="black"/>
<path d="M405.833,197.856v 1.96866" fill="none" stroke="black"/>
<path d="M404.391,193.498h 2.88542" fill="none" stroke="black"/>
<path d="M404.391,199.825h 2.88542" fill="none" stroke="black"/>
<g stroke="#993399" stroke-width="1" fill="#993399">
<polygon points=" 405.833, 195.467 407.028, 197.856 404.639, 197.856"/>
</g>
<text xml:space="preserve" x="419.574" y="209.387" fill="black" font-size="8.36156" font-family="Helvetica">Lattice 100x100</text>
<path d="M396.215,207.206h 19.2362" fill="none" stroke="black"/>
<path d="M405.833,206.012v -1.96866" fill="none" stroke="black"/>
<path d="M405.833,208.401v 1.96866" fill="none" stroke="black"/>
<path d="M404.391,204.043h 2.88542" fill="none" stroke="black"/>
<path d="M404.391,210.37h 2.88542" fill="none" stroke="black"/>
<g stroke="#3333ff" stroke-width="1" fill="#3333ff">
<polygon points=" 405.833, 206.012 407.028, 208.401 404.639, 208.401"/>
</g>
<text xml:space="preserve" x="419.574" y="219.842" fill="black" font-size="8.36156" font-family="Helvetica">Fit Function 100x100</text>
<path d="M396.215,217.751h 19.2362" fill="none" stroke="#ff0000" stroke-width="2"/></svg>
