<?xml version="1.0" standalone="no"?>
<svg width="567.429" height="289.64" viewBox="0 0 567.429 289.64" xmlns="http://www.w3.org/2000/svg" shape-rendering="crispEdges">
<title>
/home/nik/Documents/monteising/c3.svg
</title>
<desc>
Creator: ROOT Version 6.10/08
CreationDate: Tue Dec 12 19:26:08 2017</desc>
<defs>
</defs>
<rect x="0.5" y="0" width="566.929" height="289.14" fill="white"/>
<rect x="57.1929" y="28.914" width="453.543" height="231.312" fill="white"/>
<rect x="57.1929" y="28.914" width="453.543" height="231.312" fill="none" stroke="black"/>
<rect x="57.1929" y="28.914" width="453.543" height="231.312" fill="white"/>
<rect x="57.1929" y="28.914" width="453.543" height="231.312" fill="none" stroke="black"/>
<path d="M57.1929,260.226h 453.543" fill="none" stroke="black"/>
<path d="M77.8079,28.914v 231.312" fill="none" stroke="black" stroke-dasharray=" 1, 2"/>
<path d="M147.218,28.914v 231.312" fill="none" stroke="black" stroke-dasharray=" 1, 2"/>
<path d="M216.629,28.914v 231.312" fill="none" stroke="black" stroke-dasharray=" 1, 2"/>
<path d="M286.039,28.914v 231.312" fill="none" stroke="black" stroke-dasharray=" 1, 2"/>
<path d="M355.45,28.914v 231.312" fill="none" stroke="black" stroke-dasharray=" 1, 2"/>
<path d="M424.86,28.914v 231.312" fill="none" stroke="black" stroke-dasharray=" 1, 2"/>
<path d="M494.271,28.914v 231.312" fill="none" stroke="black" stroke-dasharray=" 1, 2"/>
<path d="M77.8079,28.914v 231.312" fill="none" stroke="black" stroke-dasharray=" 1, 2"/>
<path d="M494.271,28.914v 231.312" fill="none" stroke="black" stroke-dasharray=" 1, 2"/>
<path d="M57.1929,260.226v -231.312" fill="none" stroke="black"/>
<path d="M510.736,260.226h -453.543" fill="none" stroke="black" stroke-dasharray=" 1, 2"/>
<path d="M510.736,235.759h -453.543" fill="none" stroke="black" stroke-dasharray=" 1, 2"/>
<path d="M510.736,211.293h -453.543" fill="none" stroke="black" stroke-dasharray=" 1, 2"/>
<path d="M510.736,186.826h -453.543" fill="none" stroke="black" stroke-dasharray=" 1, 2"/>
<path d="M510.736,162.36h -453.543" fill="none" stroke="black" stroke-dasharray=" 1, 2"/>
<path d="M510.736,137.893h -453.543" fill="none" stroke="black" stroke-dasharray=" 1, 2"/>
<path d="M510.736,113.427h -453.543" fill="none" stroke="black" stroke-dasharray=" 1, 2"/>
<path d="M510.736,88.9602h -453.543" fill="none" stroke="black" stroke-dasharray=" 1, 2"/>
<path d="M510.736,64.4937h -453.543" fill="none" stroke="black" stroke-dasharray=" 1, 2"/>
<path d="M510.736,40.0272h -453.543" fill="none" stroke="black" stroke-dasharray=" 1, 2"/>
<path d="M510.736,40.0272h -453.543" fill="none" stroke="black" stroke-dasharray=" 1, 2"/>
<path d="M57.1929,260.226h 453.543" fill="none" stroke="black"/>
<path d="M77.8079,253.286v 6.93936" fill="none" stroke="black"/>
<path d="M91.6899,256.756v 3.46968" fill="none" stroke="black"/>
<path d="M105.572,256.756v 3.46968" fill="none" stroke="black"/>
<path d="M119.454,256.756v 3.46968" fill="none" stroke="black"/>
<path d="M133.336,256.756v 3.46968" fill="none" stroke="black"/>
<path d="M147.218,253.286v 6.93936" fill="none" stroke="black"/>
<path d="M161.1,256.756v 3.46968" fill="none" stroke="black"/>
<path d="M174.983,256.756v 3.46968" fill="none" stroke="black"/>
<path d="M188.865,256.756v 3.46968" fill="none" stroke="black"/>
<path d="M202.747,256.756v 3.46968" fill="none" stroke="black"/>
<path d="M216.629,253.286v 6.93936" fill="none" stroke="black"/>
<path d="M230.511,256.756v 3.46968" fill="none" stroke="black"/>
<path d="M244.393,256.756v 3.46968" fill="none" stroke="black"/>
<path d="M258.275,256.756v 3.46968" fill="none" stroke="black"/>
<path d="M272.157,256.756v 3.46968" fill="none" stroke="black"/>
<path d="M286.039,253.286v 6.93936" fill="none" stroke="black"/>
<path d="M299.921,256.756v 3.46968" fill="none" stroke="black"/>
<path d="M313.803,256.756v 3.46968" fill="none" stroke="black"/>
<path d="M327.686,256.756v 3.46968" fill="none" stroke="black"/>
<path d="M341.568,256.756v 3.46968" fill="none" stroke="black"/>
<path d="M355.45,253.286v 6.93936" fill="none" stroke="black"/>
<path d="M369.332,256.756v 3.46968" fill="none" stroke="black"/>
<path d="M383.214,256.756v 3.46968" fill="none" stroke="black"/>
<path d="M397.096,256.756v 3.46968" fill="none" stroke="black"/>
<path d="M410.978,256.756v 3.46968" fill="none" stroke="black"/>
<path d="M424.86,253.286v 6.93936" fill="none" stroke="black"/>
<path d="M438.742,256.756v 3.46968" fill="none" stroke="black"/>
<path d="M452.624,256.756v 3.46968" fill="none" stroke="black"/>
<path d="M466.507,256.756v 3.46968" fill="none" stroke="black"/>
<path d="M480.389,256.756v 3.46968" fill="none" stroke="black"/>
<path d="M494.271,253.286v 6.93936" fill="none" stroke="black"/>
<path d="M77.8079,253.286v 6.93936" fill="none" stroke="black"/>
<path d="M63.9258,256.756v 3.46968" fill="none" stroke="black"/>
<path d="M494.271,253.286v 6.93936" fill="none" stroke="black"/>
<path d="M508.153,256.756v 3.46968" fill="none" stroke="black"/>
<text xml:space="preserve" x="70.9928" y="269.724" fill="black" font-size="9.78431" font-family="Helvetica">0.5</text>
<text xml:space="preserve" x="145.369" y="269.724" fill="black" font-size="9.78431" font-family="Helvetica">1</text>
<text xml:space="preserve" x="209.887" y="269.724" fill="black" font-size="9.78431" font-family="Helvetica">1.5</text>
<text xml:space="preserve" x="283.068" y="269.724" fill="black" font-size="9.78431" font-family="Helvetica">2</text>
<text xml:space="preserve" x="348.782" y="269.724" fill="black" font-size="9.78431" font-family="Helvetica">2.5</text>
<text xml:space="preserve" x="421.963" y="269.724" fill="black" font-size="9.78431" font-family="Helvetica">3</text>
<text xml:space="preserve" x="487.677" y="269.724" fill="black" font-size="9.78431" font-family="Helvetica">3.5</text>
<text xml:space="preserve" x="507.988" y="277.491" fill="black" font-size="9.78431" font-family="Helvetica">)</text>
<text xml:space="preserve" x="504.404" y="286.452" fill="black" font-size="6.68954" font-family="Helvetica">b</text>
<text xml:space="preserve" x="499.625" y="283.465" fill="black" font-size="9.78431" font-family="Helvetica">k</text>
<text xml:space="preserve" x="501.716" y="273.309" fill="black" font-size="9.78431" font-family="Helvetica">J</text>
<path d="M499.625,275.101h 8.36355" fill="none" stroke="black"/>
<text xml:space="preserve" x="439.288" y="277.491" fill="black" font-size="9.78431" font-family="Helvetica">Temeprature (</text>
<path d="M57.1929,260.226v -231.312" fill="none" stroke="black"/>
<path d="M70.7992,260.226h -13.6063" fill="none" stroke="black"/>
<path d="M63.9961,254.109h -6.80315" fill="none" stroke="black"/>
<path d="M63.9961,247.993h -6.80315" fill="none" stroke="black"/>
<path d="M63.9961,241.876h -6.80315" fill="none" stroke="black"/>
<path d="M70.7992,235.759h -13.6063" fill="none" stroke="black"/>
<path d="M63.9961,229.643h -6.80315" fill="none" stroke="black"/>
<path d="M63.9961,223.526h -6.80315" fill="none" stroke="black"/>
<path d="M63.9961,217.409h -6.80315" fill="none" stroke="black"/>
<path d="M70.7992,211.293h -13.6063" fill="none" stroke="black"/>
<path d="M63.9961,205.176h -6.80315" fill="none" stroke="black"/>
<path d="M63.9961,199.06h -6.80315" fill="none" stroke="black"/>
<path d="M63.9961,192.943h -6.80315" fill="none" stroke="black"/>
<path d="M70.7992,186.826h -13.6063" fill="none" stroke="black"/>
<path d="M63.9961,180.71h -6.80315" fill="none" stroke="black"/>
<path d="M63.9961,174.593h -6.80315" fill="none" stroke="black"/>
<path d="M63.9961,168.476h -6.80315" fill="none" stroke="black"/>
<path d="M70.7992,162.36h -13.6063" fill="none" stroke="black"/>
<path d="M63.9961,156.243h -6.80315" fill="none" stroke="black"/>
<path d="M63.9961,150.127h -6.80315" fill="none" stroke="black"/>
<path d="M63.9961,144.01h -6.80315" fill="none" stroke="black"/>
<path d="M70.7992,137.893h -13.6063" fill="none" stroke="black"/>
<path d="M63.9961,131.777h -6.80315" fill="none" stroke="black"/>
<path d="M63.9961,125.66h -6.80315" fill="none" stroke="black"/>
<path d="M63.9961,119.543h -6.80315" fill="none" stroke="black"/>
<path d="M70.7992,113.427h -13.6063" fill="none" stroke="black"/>
<path d="M63.9961,107.31h -6.80315" fill="none" stroke="black"/>
<path d="M63.9961,101.193h -6.80315" fill="none" stroke="black"/>
<path d="M63.9961,95.0769h -6.80315" fill="none" stroke="black"/>
<path d="M70.7992,88.9602h -13.6063" fill="none" stroke="black"/>
<path d="M63.9961,82.8436h -6.80315" fill="none" stroke="black"/>
<path d="M63.9961,76.727h -6.80315" fill="none" stroke="black"/>
<path d="M63.9961,70.6103h -6.80315" fill="none" stroke="black"/>
<path d="M70.7992,64.4937h -13.6063" fill="none" stroke="black"/>
<path d="M63.9961,58.3771h -6.80315" fill="none" stroke="black"/>
<path d="M63.9961,52.2604h -6.80315" fill="none" stroke="black"/>
<path d="M63.9961,46.1438h -6.80315" fill="none" stroke="black"/>
<path d="M70.7992,40.0272h -13.6063" fill="none" stroke="black"/>
<path d="M70.7992,40.0272h -13.6063" fill="none" stroke="black"/>
<path d="M63.9961,33.9106h -6.80315" fill="none" stroke="black"/>
<text xml:space="preserve" x="49.1878" y="263.75" fill="black" font-size="9.78431" font-family="Helvetica">0</text>
<text xml:space="preserve" x="38.7334" y="239.257" fill="black" font-size="9.78431" font-family="Helvetica">200</text>
<text xml:space="preserve" x="38.7334" y="214.764" fill="black" font-size="9.78431" font-family="Helvetica">400</text>
<text xml:space="preserve" x="38.7334" y="190.271" fill="black" font-size="9.78431" font-family="Helvetica">600</text>
<text xml:space="preserve" x="38.7334" y="165.777" fill="black" font-size="9.78431" font-family="Helvetica">800</text>
<text xml:space="preserve" x="33.3568" y="141.284" fill="black" font-size="9.78431" font-family="Helvetica">1000</text>
<text xml:space="preserve" x="33.3568" y="116.791" fill="black" font-size="9.78431" font-family="Helvetica">1200</text>
<text xml:space="preserve" x="33.3568" y="92.2977" fill="black" font-size="9.78431" font-family="Helvetica">1400</text>
<text xml:space="preserve" x="33.3568" y="67.8045" fill="black" font-size="9.78431" font-family="Helvetica">1600</text>
<text xml:space="preserve" x="33.3568" y="43.6099" fill="black" font-size="9.78431" font-family="Helvetica">1800</text>
<g transform="rotate(-90,17.5258,31.3633)">
<text xml:space="preserve" x="17.5258" y="31.3633" fill="black" font-size="9.78431" font-family="Helvetica">)</text>
</g>
<g transform="rotate(-90,26.4867,35.5451)">
<text xml:space="preserve" x="26.4867" y="35.5451" fill="black" font-size="6.68954" font-family="Helvetica">B</text>
</g>
<g transform="rotate(-90,23.4998,40.3243)">
<text xml:space="preserve" x="23.4998" y="40.3243" fill="black" font-size="9.78431" font-family="Helvetica">k</text>
</g>
<g transform="rotate(-90,11.2531,38.5321)">
<text xml:space="preserve" x="11.2531" y="38.5321" fill="black" font-size="9.78431" font-family="Times">&#0956;</text>
</g>
<path d="M15.1362,40.3243v -8.96095" fill="none" stroke="black"/>
<g transform="rotate(-90,17.5258,143.076)">
<text xml:space="preserve" x="17.5258" y="143.076" fill="black" font-size="9.78431" font-family="Helvetica">Magnetic Susceptibility (</text>
</g>
<path d="M77.8085,255.333v -2.5034" fill="none" stroke="black"/>
<path d="M77.2112,252.829h 1.19479" fill="none" stroke="black"/>
<path d="M77.8085,257.722v 2.5034" fill="none" stroke="black"/>
<path d="M77.2112,260.226h 1.19479" fill="none" stroke="black"/>
<path d="M84.7634,257.728v -0.107994" fill="none" stroke="black"/>
<path d="M84.166,257.62h 1.19479" fill="none" stroke="black"/>
<path d="M84.7634,260.118v 0.107994" fill="none" stroke="black"/>
<path d="M84.166,260.226h 1.19479" fill="none" stroke="black"/>
<path d="M98.673,255.931v -1.90534" fill="none" stroke="black"/>
<path d="M98.0756,254.026h 1.19479" fill="none" stroke="black"/>
<path d="M98.673,258.32v 1.90534" fill="none" stroke="black"/>
<path d="M98.0756,260.226h 1.19479" fill="none" stroke="black"/>
<path d="M105.628,257.266v -0.570223" fill="none" stroke="black"/>
<path d="M105.03,256.696h 1.19479" fill="none" stroke="black"/>
<path d="M105.628,259.656v 0.570223" fill="none" stroke="black"/>
<path d="M105.03,260.226h 1.19479" fill="none" stroke="black"/>
<path d="M112.583,253.047v -4.78963" fill="none" stroke="black"/>
<path d="M111.985,248.257h 1.19479" fill="none" stroke="black"/>
<path d="M112.583,255.436v 4.78963" fill="none" stroke="black"/>
<path d="M111.985,260.226h 1.19479" fill="none" stroke="black"/>
<path d="M119.537,226.839v -30.9976" fill="none" stroke="black"/>
<path d="M118.94,195.841h 1.19479" fill="none" stroke="black"/>
<path d="M119.537,229.228v 30.9976" fill="none" stroke="black"/>
<path d="M118.94,260.226h 1.19479" fill="none" stroke="black"/>
<path d="M126.492,184.466v -73.3705" fill="none" stroke="black"/>
<path d="M125.895,111.095h 1.19479" fill="none" stroke="black"/>
<path d="M126.492,186.855v 73.3705" fill="none" stroke="black"/>
<path d="M125.895,260.226h 1.19479" fill="none" stroke="black"/>
<path d="M304.431,257.776v -0.060182" fill="none" stroke="black"/>
<path d="M303.834,257.716h 1.19479" fill="none" stroke="black"/>
<path d="M304.431,260.166v 0.060182" fill="none" stroke="black"/>
<path d="M303.834,260.226h 1.19479" fill="none" stroke="black"/>
<path d="M307.207,257.075v -0.761586" fill="none" stroke="black"/>
<path d="M306.61,256.313h 1.19479" fill="none" stroke="black"/>
<path d="M307.207,259.464v 0.761586" fill="none" stroke="black"/>
<path d="M306.61,260.226h 1.19479" fill="none" stroke="black"/>
<path d="M309.984,252.528v -5.30813" fill="none" stroke="black"/>
<path d="M309.386,247.22h 1.19479" fill="none" stroke="black"/>
<path d="M309.984,254.918v 5.30813" fill="none" stroke="black"/>
<path d="M309.386,260.226h 1.19479" fill="none" stroke="black"/>
<path d="M312.76,254.545v -3.29106" fill="none" stroke="black"/>
<path d="M312.163,251.254h 1.19479" fill="none" stroke="black"/>
<path d="M312.76,256.935v 3.29106" fill="none" stroke="black"/>
<path d="M312.163,260.226h 1.19479" fill="none" stroke="black"/>
<path d="M315.537,254.407v -3.4297" fill="none" stroke="black"/>
<path d="M314.939,250.977h 1.19479" fill="none" stroke="black"/>
<path d="M315.537,256.796v 3.4297" fill="none" stroke="black"/>
<path d="M314.939,260.226h 1.19479" fill="none" stroke="black"/>
<path d="M318.313,242.441v -15.3955" fill="none" stroke="black"/>
<path d="M317.716,227.045h 1.19479" fill="none" stroke="black"/>
<path d="M318.313,244.83v 15.3955" fill="none" stroke="black"/>
<path d="M317.716,260.226h 1.19479" fill="none" stroke="black"/>
<path d="M321.09,251.612v -6.22426" fill="none" stroke="black"/>
<path d="M320.492,245.388h 1.19479" fill="none" stroke="black"/>
<path d="M321.09,254.002v 6.22426" fill="none" stroke="black"/>
<path d="M320.492,260.226h 1.19479" fill="none" stroke="black"/>
<path d="M323.866,233.184v -24.6522" fill="none" stroke="black"/>
<path d="M323.269,208.532h 1.19479" fill="none" stroke="black"/>
<path d="M323.866,235.574v 24.6522" fill="none" stroke="black"/>
<path d="M323.269,260.226h 1.19479" fill="none" stroke="black"/>
<path d="M326.642,232.023v -25.8133" fill="none" stroke="black"/>
<path d="M326.045,206.21h 1.19479" fill="none" stroke="black"/>
<path d="M326.642,234.413v 25.8133" fill="none" stroke="black"/>
<path d="M326.045,260.226h 1.19479" fill="none" stroke="black"/>
<path d="M329.419,207.844v -49.9922" fill="none" stroke="black"/>
<path d="M328.821,157.852h 1.19479" fill="none" stroke="black"/>
<path d="M329.419,210.234v 49.9922" fill="none" stroke="black"/>
<path d="M328.821,260.226h 1.19479" fill="none" stroke="black"/>
<path d="M332.195,217.872v -39.9639" fill="none" stroke="black"/>
<path d="M331.598,177.909h 1.19479" fill="none" stroke="black"/>
<path d="M332.195,220.262v 39.9639" fill="none" stroke="black"/>
<path d="M331.598,260.226h 1.19479" fill="none" stroke="black"/>
<path d="M334.972,148.883v -108.954" fill="none" stroke="black"/>
<path d="M334.374,39.9288h 1.19479" fill="none" stroke="black"/>
<path d="M334.972,151.272v 108.954" fill="none" stroke="black"/>
<path d="M334.374,260.226h 1.19479" fill="none" stroke="black"/>
<path d="M337.748,217.01v -40.8267" fill="none" stroke="black"/>
<path d="M337.151,176.183h 1.19479" fill="none" stroke="black"/>
<path d="M337.748,219.399v 40.8267" fill="none" stroke="black"/>
<path d="M337.151,260.226h 1.19479" fill="none" stroke="black"/>
<path d="M340.525,197.419v -60.4174" fill="none" stroke="black"/>
<path d="M339.927,137.001h 1.19479" fill="none" stroke="black"/>
<path d="M340.525,199.808v 60.4174" fill="none" stroke="black"/>
<path d="M339.927,260.226h 1.19479" fill="none" stroke="black"/>
<path d="M343.301,203.59v -54.246" fill="none" stroke="black"/>
<path d="M342.704,149.344h 1.19479" fill="none" stroke="black"/>
<path d="M343.301,205.98v 54.246" fill="none" stroke="black"/>
<path d="M342.704,260.226h 1.19479" fill="none" stroke="black"/>
<path d="M346.077,239.641v -18.1951" fill="none" stroke="black"/>
<path d="M345.48,221.446h 1.19479" fill="none" stroke="black"/>
<path d="M346.077,242.031v 18.1951" fill="none" stroke="black"/>
<path d="M345.48,260.226h 1.19479" fill="none" stroke="black"/>
<path d="M348.854,227.351v -30.4851" fill="none" stroke="black"/>
<path d="M348.256,196.866h 1.19479" fill="none" stroke="black"/>
<path d="M348.854,229.741v 30.4851" fill="none" stroke="black"/>
<path d="M348.256,260.226h 1.19479" fill="none" stroke="black"/>
<path d="M351.63,233.671v -24.1649" fill="none" stroke="black"/>
<path d="M351.033,209.507h 1.19479" fill="none" stroke="black"/>
<path d="M351.63,236.061v 24.1649" fill="none" stroke="black"/>
<path d="M351.033,260.226h 1.19479" fill="none" stroke="black"/>
<path d="M354.407,240.828v -17.0079" fill="none" stroke="black"/>
<path d="M353.809,223.82h 1.19479" fill="none" stroke="black"/>
<path d="M354.407,243.218v 17.0079" fill="none" stroke="black"/>
<path d="M353.809,260.226h 1.19479" fill="none" stroke="black"/>
<path d="M357.183,234.02v -23.8165" fill="none" stroke="black"/>
<path d="M356.586,210.203h 1.19479" fill="none" stroke="black"/>
<path d="M357.183,236.409v 23.8165" fill="none" stroke="black"/>
<path d="M356.586,260.226h 1.19479" fill="none" stroke="black"/>
<path d="M359.959,249.452v -8.38417" fill="none" stroke="black"/>
<path d="M359.362,241.068h 1.19479" fill="none" stroke="black"/>
<path d="M359.959,251.842v 8.38417" fill="none" stroke="black"/>
<path d="M359.362,260.226h 1.19479" fill="none" stroke="black"/>
<path d="M362.736,248.277v -9.55926" fill="none" stroke="black"/>
<path d="M362.138,238.718h 1.19479" fill="none" stroke="black"/>
<path d="M362.736,250.667v 9.55926" fill="none" stroke="black"/>
<path d="M362.138,260.226h 1.19479" fill="none" stroke="black"/>
<path d="M365.512,247.606v -10.2305" fill="none" stroke="black"/>
<path d="M364.915,237.375h 1.19479" fill="none" stroke="black"/>
<path d="M365.512,249.995v 10.2305" fill="none" stroke="black"/>
<path d="M364.915,260.226h 1.19479" fill="none" stroke="black"/>
<path d="M368.289,245.654v -12.1826" fill="none" stroke="black"/>
<path d="M367.691,233.471h 1.19479" fill="none" stroke="black"/>
<path d="M368.289,248.043v 12.1826" fill="none" stroke="black"/>
<path d="M367.691,260.226h 1.19479" fill="none" stroke="black"/>
<path d="M371.065,250.146v -7.69061" fill="none" stroke="black"/>
<path d="M370.468,242.455h 1.19479" fill="none" stroke="black"/>
<path d="M371.065,252.535v 7.69061" fill="none" stroke="black"/>
<path d="M370.468,260.226h 1.19479" fill="none" stroke="black"/>
<path d="M373.842,247.362v -10.4742" fill="none" stroke="black"/>
<path d="M373.244,236.888h 1.19479" fill="none" stroke="black"/>
<path d="M373.842,249.752v 10.4742" fill="none" stroke="black"/>
<path d="M373.244,260.226h 1.19479" fill="none" stroke="black"/>
<path d="M376.618,248.859v -8.97707" fill="none" stroke="black"/>
<path d="M376.021,239.882h 1.19479" fill="none" stroke="black"/>
<path d="M376.618,251.249v 8.97707" fill="none" stroke="black"/>
<path d="M376.021,260.226h 1.19479" fill="none" stroke="black"/>
<path d="M379.394,249.545v -8.2912" fill="none" stroke="black"/>
<path d="M378.797,241.254h 1.19479" fill="none" stroke="black"/>
<path d="M379.394,251.935v 8.2912" fill="none" stroke="black"/>
<path d="M378.797,260.226h 1.19479" fill="none" stroke="black"/>
<path d="M382.171,251.78v -6.05582" fill="none" stroke="black"/>
<path d="M381.573,245.725h 1.19479" fill="none" stroke="black"/>
<path d="M382.171,254.17v 6.05582" fill="none" stroke="black"/>
<path d="M381.573,260.226h 1.19479" fill="none" stroke="black"/>
<path d="M384.947,249.204v -8.6326" fill="none" stroke="black"/>
<path d="M384.35,240.571h 1.19479" fill="none" stroke="black"/>
<path d="M384.947,251.593v 8.6326" fill="none" stroke="black"/>
<path d="M384.35,260.226h 1.19479" fill="none" stroke="black"/>
<path d="M387.724,252.842v -4.99438" fill="none" stroke="black"/>
<path d="M387.126,247.847h 1.19479" fill="none" stroke="black"/>
<path d="M387.724,255.231v 4.99438" fill="none" stroke="black"/>
<path d="M387.126,260.226h 1.19479" fill="none" stroke="black"/>
<path d="M390.5,252.322v -5.5139" fill="none" stroke="black"/>
<path d="M389.903,246.808h 1.19479" fill="none" stroke="black"/>
<path d="M390.5,254.712v 5.5139" fill="none" stroke="black"/>
<path d="M389.903,260.226h 1.19479" fill="none" stroke="black"/>
<path d="M394.651,252.904v -4.93185" fill="none" stroke="black"/>
<path d="M394.053,247.973h 1.19479" fill="none" stroke="black"/>
<path d="M394.651,255.294v 4.93185" fill="none" stroke="black"/>
<path d="M394.053,260.226h 1.19479" fill="none" stroke="black"/>
<path d="M398.802,253.692v -4.14378" fill="none" stroke="black"/>
<path d="M398.204,249.549h 1.19479" fill="none" stroke="black"/>
<path d="M398.802,256.082v 4.14378" fill="none" stroke="black"/>
<path d="M398.204,260.226h 1.19479" fill="none" stroke="black"/>
<path d="M402.953,254.702v -3.13389" fill="none" stroke="black"/>
<path d="M402.355,251.568h 1.19479" fill="none" stroke="black"/>
<path d="M402.953,257.092v 3.13389" fill="none" stroke="black"/>
<path d="M402.355,260.226h 1.19479" fill="none" stroke="black"/>
<path d="M407.103,254.863v -2.97289" fill="none" stroke="black"/>
<path d="M406.506,251.89h 1.19479" fill="none" stroke="black"/>
<path d="M407.103,257.253v 2.97289" fill="none" stroke="black"/>
<path d="M406.506,260.226h 1.19479" fill="none" stroke="black"/>
<path d="M411.254,254.391v -3.44549" fill="none" stroke="black"/>
<path d="M410.657,250.945h 1.19479" fill="none" stroke="black"/>
<path d="M411.254,256.78v 3.44549" fill="none" stroke="black"/>
<path d="M410.657,260.226h 1.19479" fill="none" stroke="black"/>
<path d="M415.405,254.835v -3.00125" fill="none" stroke="black"/>
<path d="M414.808,251.834h 1.19479" fill="none" stroke="black"/>
<path d="M415.405,257.225v 3.00125" fill="none" stroke="black"/>
<path d="M414.808,260.226h 1.19479" fill="none" stroke="black"/>
<path d="M419.556,254.846v -2.99021" fill="none" stroke="black"/>
<path d="M418.959,251.856h 1.19479" fill="none" stroke="black"/>
<path d="M419.556,257.236v 2.99021" fill="none" stroke="black"/>
<path d="M418.959,260.226h 1.19479" fill="none" stroke="black"/>
<path d="M423.707,255.619v -2.21748" fill="none" stroke="black"/>
<path d="M423.109,253.401h 1.19479" fill="none" stroke="black"/>
<path d="M423.707,258.008v 2.21748" fill="none" stroke="black"/>
<path d="M423.109,260.226h 1.19479" fill="none" stroke="black"/>
<path d="M427.858,255.181v -2.65477" fill="none" stroke="black"/>
<path d="M427.26,252.527h 1.19479" fill="none" stroke="black"/>
<path d="M427.858,257.571v 2.65477" fill="none" stroke="black"/>
<path d="M427.26,260.226h 1.19479" fill="none" stroke="black"/>
<path d="M432.009,256.191v -1.64487" fill="none" stroke="black"/>
<path d="M431.411,254.547h 1.19479" fill="none" stroke="black"/>
<path d="M432.009,258.581v 1.64487" fill="none" stroke="black"/>
<path d="M431.411,260.226h 1.19479" fill="none" stroke="black"/>
<path d="M436.159,255.226v -2.6098" fill="none" stroke="black"/>
<path d="M435.562,252.617h 1.19479" fill="none" stroke="black"/>
<path d="M436.159,257.616v 2.6098" fill="none" stroke="black"/>
<path d="M435.562,260.226h 1.19479" fill="none" stroke="black"/>
<path d="M440.31,255.659v -2.17763" fill="none" stroke="black"/>
<path d="M439.713,253.481h 1.19479" fill="none" stroke="black"/>
<path d="M440.31,258.048v 2.17763" fill="none" stroke="black"/>
<path d="M439.713,260.226h 1.19479" fill="none" stroke="black"/>
<path d="M444.461,256.217v -1.61948" fill="none" stroke="black"/>
<path d="M443.864,254.597h 1.19479" fill="none" stroke="black"/>
<path d="M444.461,258.606v 1.61948" fill="none" stroke="black"/>
<path d="M443.864,260.226h 1.19479" fill="none" stroke="black"/>
<path d="M448.612,256.493v -1.343" fill="none" stroke="black"/>
<path d="M448.015,255.15h 1.19479" fill="none" stroke="black"/>
<path d="M448.612,258.883v 1.343" fill="none" stroke="black"/>
<path d="M448.015,260.226h 1.19479" fill="none" stroke="black"/>
<path d="M452.763,256.307v -1.52975" fill="none" stroke="black"/>
<path d="M452.165,254.777h 1.19479" fill="none" stroke="black"/>
<path d="M452.763,258.696v 1.52975" fill="none" stroke="black"/>
<path d="M452.165,260.226h 1.19479" fill="none" stroke="black"/>
<path d="M456.914,256.698v -1.13781" fill="none" stroke="black"/>
<path d="M456.316,255.561h 1.19479" fill="none" stroke="black"/>
<path d="M456.914,259.088v 1.13781" fill="none" stroke="black"/>
<path d="M456.316,260.226h 1.19479" fill="none" stroke="black"/>
<path d="M461.065,256.436v -1.39996" fill="none" stroke="black"/>
<path d="M460.467,255.036h 1.19479" fill="none" stroke="black"/>
<path d="M461.065,258.826v 1.39996" fill="none" stroke="black"/>
<path d="M460.467,260.226h 1.19479" fill="none" stroke="black"/>
<path d="M465.215,256.812v -1.02396" fill="none" stroke="black"/>
<path d="M464.618,255.788h 1.19479" fill="none" stroke="black"/>
<path d="M465.215,259.202v 1.02396" fill="none" stroke="black"/>
<path d="M464.618,260.226h 1.19479" fill="none" stroke="black"/>
<path d="M469.366,256.86v -0.976422" fill="none" stroke="black"/>
<path d="M468.769,255.883h 1.19479" fill="none" stroke="black"/>
<path d="M469.366,259.249v 0.976422" fill="none" stroke="black"/>
<path d="M468.769,260.226h 1.19479" fill="none" stroke="black"/>
<path d="M473.517,257.113v -0.723692" fill="none" stroke="black"/>
<path d="M472.92,256.389h 1.19479" fill="none" stroke="black"/>
<path d="M473.517,259.502v 0.723692" fill="none" stroke="black"/>
<path d="M472.92,260.226h 1.19479" fill="none" stroke="black"/>
<path d="M477.668,257.316v -0.520053" fill="none" stroke="black"/>
<path d="M477.071,256.796h 1.19479" fill="none" stroke="black"/>
<path d="M477.668,259.706v 0.520053" fill="none" stroke="black"/>
<path d="M477.071,260.226h 1.19479" fill="none" stroke="black"/>
<path d="M481.819,257.211v -0.625484" fill="none" stroke="black"/>
<path d="M481.221,256.585h 1.19479" fill="none" stroke="black"/>
<path d="M481.819,259.6v 0.625484" fill="none" stroke="black"/>
<path d="M481.221,260.226h 1.19479" fill="none" stroke="black"/>
<path d="M485.97,257.338v -0.498155" fill="none" stroke="black"/>
<path d="M485.372,256.84h 1.19479" fill="none" stroke="black"/>
<path d="M485.97,259.728v 0.498155" fill="none" stroke="black"/>
<path d="M485.372,260.226h 1.19479" fill="none" stroke="black"/>
<path d="M490.121,257.184v -0.652351" fill="none" stroke="black"/>
<path d="M489.523,256.532h 1.19479" fill="none" stroke="black"/>
<path d="M490.121,259.573v 0.652351" fill="none" stroke="black"/>
<path d="M489.523,260.226h 1.19479" fill="none" stroke="black"/>
<rect x="68.9019" y="35.4307" width="204.31" height="57.8912" fill="white"/>
<path d="M68.9019,93.3219h 204.31" fill="none" stroke="black"/>
<path d="M273.211,93.3219v -57.8912" fill="none" stroke="black"/>
<path d="M273.211,35.4307h -204.31" fill="none" stroke="black"/>
<path d="M68.9019,35.4307v 57.8912" fill="none" stroke="black"/>
<text xml:space="preserve" x="90.1095" y="46.2982" fill="#3333ff" font-size="12.7156" font-family="Helvetica"> / ndf </text>
<text xml:space="preserve" x="85.629" y="42.1164" fill="#3333ff" font-size="8.64372" font-family="Helvetica">2</text>
<text xml:space="preserve" x="79.0576" y="46.2982" fill="#3333ff" font-size="12.7156" font-family="Times">&#0967;</text>
<text xml:space="preserve" x="197.043" y="47.1943" fill="#3333ff" font-size="12.7156" font-family="Helvetica"> 0.5099 / 12</text>
<text xml:space="preserve" x="79.0576" y="61.8305" fill="#3333ff" font-size="12.7156" font-family="Helvetica">Tc       </text>
<text xml:space="preserve" x="228.108" y="61.5318" fill="#3333ff" font-size="12.7156" font-family="Helvetica"> 0.144</text>
<text xml:space="preserve" x="221.238" y="61.5318" fill="#3333ff" font-size="12.7156" font-family="Times">&#0177;</text>
<text xml:space="preserve" x="182.706" y="61.5318" fill="#3333ff" font-size="12.7156" font-family="Helvetica"> 2.252 </text>
<text xml:space="preserve" x="79.0576" y="73.4798" fill="#3333ff" font-size="12.7156" font-family="Helvetica">exp      </text>
<text xml:space="preserve" x="228.108" y="75.8693" fill="#3333ff" font-size="12.7156" font-family="Helvetica"> 2.024</text>
<text xml:space="preserve" x="221.238" y="75.8693" fill="#3333ff" font-size="12.7156" font-family="Times">&#0177;</text>
<text xml:space="preserve" x="182.706" y="75.8693" fill="#3333ff" font-size="12.7156" font-family="Helvetica"> 1.808 </text>
<text xml:space="preserve" x="79.0576" y="90.8042" fill="#3333ff" font-size="12.7156" font-family="Helvetica">coeff    </text>
<text xml:space="preserve" x="221.238" y="90.5055" fill="#3333ff" font-size="12.7156" font-family="Helvetica"> 0.2054</text>
<text xml:space="preserve" x="214.368" y="90.5055" fill="#3333ff" font-size="12.7156" font-family="Times">&#0177;</text>
<text xml:space="preserve" x="161.797" y="90.5055" fill="#3333ff" font-size="12.7156" font-family="Helvetica"> 0.05622 </text>
<path d="M77.8085,256.528l 6.95482, 2.3954l 6.95482, 0.159398l 6.95482, -1.95674l 6.95482, 1.33512l 6.95482, -4.2194l 6.95482, -26.208l 6.95482, -42.3729l 6.95482, 74.5653h 76.503l 6.95482, -0.0268074l 6.95482, -0.00583661l 6.95482, -0.0074755l
 6.95482, -0.0202059l 6.95482, -3.85372e-06l 6.95482, -0.0255753l 2.77642, -0.01114l 2.77642, 0.00337082l 2.77642, -0.0170896l 2.77642, -0.00591549l 2.77642, -0.0227127l 2.77642, -0.020429l 2.77642, -0.0171077l 2.77642, -0.00773269l 2.77642,
 -0.0461815l 2.77642, -0.064671l 2.77642, -0.00529905l 2.77642, -0.173776l 2.77642, -0.00777057l 2.77642, 0.0174265l 2.77642, -0.0277361l 2.77642, -0.101293l 2.77642, -0.166401l 2.77642, -0.379278l 2.77642, -0.115334l 2.77642, -0.701404l 2.77642,
 -4.54654l 2.77642, 2.01706l 2.77642, -0.138636l 2.77642, -11.9658l 2.77642, 9.17128l 2.77642, -18.428l 2.77642, -1.16104l 2.77642, -24.1789l 2.77642, 10.0284l 2.77642, -68.9899l 2.77642, 68.127l 2.77642, -19.5907l 2.77642, 6.1714l 2.77642, 36.0509l
 2.77642, -12.29l 2.77642, 6.32026l 2.77642, 7.15692l 2.77642, -6.80861l 2.77642, 15.4324l 2.77642, -1.17508l 2.77642, -0.67126l 2.77642, -1.95204l 2.77642, 4.49195l 2.77642, -2.78356l 2.77642, 1.49709l 2.77642, 0.685867l 2.77642, 2.23539l 2.77642,
 -2.57678l 2.77642, 3.63821l 2.77642, -0.519515l 4.15086, 0.582046l 4.15086, 0.788074l 4.15086, 1.00989l 4.15086, 0.161008l 4.15086, -0.472605l 4.15086, 0.444241l 4.15086, 0.0110377l 4.15086, 0.772731l 4.15086, -0.43729l 4.15086, 1.0099l 4.15086,
 -0.96493l 4.15086, 0.432173l 4.15086, 0.558148l 4.15086, 0.276483l 4.15086, -0.186747l 4.15086, 0.391941l 4.15086, -0.262149l 4.15086, 0.375994l 4.15086, 0.0475418l 4.15086, 0.25273l 4.15086, 0.203639l 4.15086, -0.105431l 4.15086, 0.127329l 4.15086,
 -0.154196" fill="none" stroke="black"/>
<g stroke="#3333ff" stroke-width="1" fill="#3333ff">
<polygon points=" 77.8085, 255.333 79.0033, 257.722 76.6138, 257.722"/>
<polygon points=" 84.7634, 257.728 85.9582, 260.118 83.5686, 260.118"/>
<polygon points=" 91.7182, 257.888 92.913, 260.277 90.5234, 260.277"/>
<polygon points=" 98.673, 255.931 99.8678, 258.32 97.4782, 258.32"/>
<polygon points=" 105.628, 257.266 106.823, 259.656 104.433, 259.656"/>
<polygon points=" 112.583, 253.047 113.777, 255.436 111.388, 255.436"/>
<polygon points=" 119.537, 226.839 120.732, 229.228 118.343, 229.228"/>
<polygon points=" 126.492, 184.466 127.687, 186.855 125.298, 186.855"/>
<polygon points=" 133.447, 259.03 134.642, 261.42 132.252, 261.42"/>
<polygon points=" 140.402, 259.03 141.597, 261.42 139.207, 261.42"/>
<polygon points=" 147.357, 259.03 148.552, 261.419 146.162, 261.419"/>
<polygon points=" 154.312, 259.029 155.506, 261.418 153.117, 261.418"/>
<polygon points=" 161.266, 259.028 162.461, 261.418 160.072, 261.418"/>
<polygon points=" 168.221, 259.027 169.416, 261.417 167.026, 261.417"/>
<polygon points=" 175.176, 259.026 176.371, 261.415 173.981, 261.415"/>
<polygon points=" 182.131, 259.024 183.326, 261.413 180.936, 261.413"/>
<polygon points=" 189.086, 259.021 190.28, 261.411 187.891, 261.411"/>
<polygon points=" 196.041, 259.018 197.235, 261.408 194.846, 261.408"/>
<polygon points=" 202.995, 259.014 204.19, 261.403 201.801, 261.403"/>
<polygon points=" 209.95, 259.01 211.145, 261.399 208.755, 261.399"/>
<polygon points=" 216.905, 259.004 218.1, 261.394 215.71, 261.394"/>
<polygon points=" 223.86, 258.998 225.055, 261.388 222.665, 261.388"/>
<polygon points=" 230.815, 258.991 232.009, 261.381 229.62, 261.381"/>
<polygon points=" 237.769, 258.971 238.964, 261.36 236.575, 261.36"/>
<polygon points=" 244.724, 258.971 245.919, 261.36 243.529, 261.36"/>
<polygon points=" 251.679, 258.945 252.874, 261.335 250.484, 261.335"/>
<polygon points=" 254.455, 258.934 255.65, 261.324 253.261, 261.324"/>
<polygon points=" 257.232, 258.937 258.427, 261.327 256.037, 261.327"/>
<polygon points=" 260.008, 258.92 261.203, 261.31 258.814, 261.31"/>
<polygon points=" 262.785, 258.914 263.98, 261.304 261.59, 261.304"/>
<polygon points=" 265.561, 258.892 266.756, 261.281 264.366, 261.281"/>
<polygon points=" 268.338, 258.871 269.532, 261.261 267.143, 261.261"/>
<polygon points=" 271.114, 258.854 272.309, 261.244 269.919, 261.244"/>
<polygon points=" 273.89, 258.846 275.085, 261.236 272.696, 261.236"/>
<polygon points=" 276.667, 258.8 277.862, 261.19 275.472, 261.19"/>
<polygon points=" 279.443, 258.736 280.638, 261.125 278.248, 261.125"/>
<polygon points=" 282.22, 258.73 283.414, 261.12 281.025, 261.12"/>
<polygon points=" 284.996, 258.556 286.191, 260.946 283.801, 260.946"/>
<polygon points=" 287.773, 258.549 288.967, 260.938 286.578, 260.938"/>
<polygon points=" 290.549, 258.566 291.744, 260.956 289.354, 260.956"/>
<polygon points=" 293.325, 258.538 294.52, 260.928 292.131, 260.928"/>
<polygon points=" 296.102, 258.437 297.297, 260.827 294.907, 260.827"/>
<polygon points=" 298.878, 258.271 300.073, 260.66 297.683, 260.66"/>
<polygon points=" 301.655, 257.891 302.849, 260.281 300.46, 260.281"/>
<polygon points=" 304.431, 257.776 305.626, 260.166 303.236, 260.166"/>
<polygon points=" 307.207, 257.075 308.402, 259.464 306.013, 259.464"/>
<polygon points=" 309.984, 252.528 311.179, 254.918 308.789, 254.918"/>
<polygon points=" 312.76, 254.545 313.955, 256.935 311.566, 256.935"/>
<polygon points=" 315.537, 254.407 316.732, 256.796 314.342, 256.796"/>
<polygon points=" 318.313, 242.441 319.508, 244.83 317.118, 244.83"/>
<polygon points=" 321.09, 251.612 322.284, 254.002 319.895, 254.002"/>
<polygon points=" 323.866, 233.184 325.061, 235.574 322.671, 235.574"/>
<polygon points=" 326.642, 232.023 327.837, 234.413 325.448, 234.413"/>
<polygon points=" 329.419, 207.844 330.614, 210.234 328.224, 210.234"/>
<polygon points=" 332.195, 217.872 333.39, 220.262 331, 220.262"/>
<polygon points=" 334.972, 148.883 336.166, 151.272 333.777, 151.272"/>
<polygon points=" 337.748, 217.01 338.943, 219.399 336.553, 219.399"/>
<polygon points=" 340.525, 197.419 341.719, 199.808 339.33, 199.808"/>
<polygon points=" 343.301, 203.59 344.496, 205.98 342.106, 205.98"/>
<polygon points=" 346.077, 239.641 347.272, 242.031 344.883, 242.031"/>
<polygon points=" 348.854, 227.351 350.049, 229.741 347.659, 229.741"/>
<polygon points=" 351.63, 233.671 352.825, 236.061 350.435, 236.061"/>
<polygon points=" 354.407, 240.828 355.601, 243.218 353.212, 243.218"/>
<polygon points=" 357.183, 234.02 358.378, 236.409 355.988, 236.409"/>
<polygon points=" 359.959, 249.452 361.154, 251.842 358.765, 251.842"/>
<polygon points=" 362.736, 248.277 363.931, 250.667 361.541, 250.667"/>
<polygon points=" 365.512, 247.606 366.707, 249.995 364.317, 249.995"/>
<polygon points=" 368.289, 245.654 369.483, 248.043 367.094, 248.043"/>
<polygon points=" 371.065, 250.146 372.26, 252.535 369.87, 252.535"/>
<polygon points=" 373.842, 247.362 375.036, 249.752 372.647, 249.752"/>
<polygon points=" 376.618, 248.859 377.813, 251.249 375.423, 251.249"/>
<polygon points=" 379.394, 249.545 380.589, 251.935 378.2, 251.935"/>
<polygon points=" 382.171, 251.78 383.366, 254.17 380.976, 254.17"/>
<polygon points=" 384.947, 249.204 386.142, 251.593 383.752, 251.593"/>
<polygon points=" 387.724, 252.842 388.918, 255.231 386.529, 255.231"/>
<polygon points=" 390.5, 252.322 391.695, 254.712 389.305, 254.712"/>
<polygon points=" 394.651, 252.904 395.846, 255.294 393.456, 255.294"/>
<polygon points=" 398.802, 253.692 399.997, 256.082 397.607, 256.082"/>
<polygon points=" 402.953, 254.702 404.147, 257.092 401.758, 257.092"/>
<polygon points=" 407.103, 254.863 408.298, 257.253 405.909, 257.253"/>
<polygon points=" 411.254, 254.391 412.449, 256.78 410.06, 256.78"/>
<polygon points=" 415.405, 254.835 416.6, 257.225 414.21, 257.225"/>
<polygon points=" 419.556, 254.846 420.751, 257.236 418.361, 257.236"/>
<polygon points=" 423.707, 255.619 424.902, 258.008 422.512, 258.008"/>
<polygon points=" 427.858, 255.181 429.053, 257.571 426.663, 257.571"/>
<polygon points=" 432.009, 256.191 433.203, 258.581 430.814, 258.581"/>
<polygon points=" 436.159, 255.226 437.354, 257.616 434.965, 257.616"/>
<polygon points=" 440.31, 255.659 441.505, 258.048 439.116, 258.048"/>
<polygon points=" 444.461, 256.217 445.656, 258.606 443.266, 258.606"/>
<polygon points=" 448.612, 256.493 449.807, 258.883 447.417, 258.883"/>
<polygon points=" 452.763, 256.307 453.958, 258.696 451.568, 258.696"/>
<polygon points=" 456.914, 256.698 458.109, 259.088 455.719, 259.088"/>
<polygon points=" 461.065, 256.436 462.259, 258.826 459.87, 258.826"/>
<polygon points=" 465.215, 256.812 466.41, 259.202 464.021, 259.202"/>
<polygon points=" 469.366, 256.86 470.561, 259.249 468.172, 259.249"/>
<polygon points=" 473.517, 257.113 474.712, 259.502 472.322, 259.502"/>
<polygon points=" 477.668, 257.316 478.863, 259.706 476.473, 259.706"/>
<polygon points=" 481.819, 257.211 483.014, 259.6 480.624, 259.6"/>
<polygon points=" 485.97, 257.338 487.165, 259.728 484.775, 259.728"/>
<polygon points=" 490.121, 257.184 491.315, 259.573 488.926, 259.573"/>
</g>
<path d="M272.365,260.027l 0.416463, -0.00311563l 0.416463, -0.00319213l 0.416463, -0.0032712l 0.416463, -0.00335295l 0.416463, -0.0034375l 0.416463, -0.00352497l 0.416463, -0.00361548l 0.416463, -0.00370917l 0.416463, -0.00380619l 0.416463,
 -0.00390668l 0.416463, -0.0040108l 0.416463, -0.00411872l 0.416463, -0.00423061l 0.416463, -0.00434667l 0.416463, -0.00446709l 0.416463, -0.00459208l 0.416463, -0.00472186l 0.416463, -0.00485666l 0.416463, -0.00499674l 0.416463, -0.00514235l
 0.416463, -0.00529378l 0.416463, -0.00545132l 0.416463, -0.00561528l 0.416463, -0.005786l 0.416463, -0.00596385l 0.416463, -0.00614918l 0.416463, -0.00634242l 0.416463, -0.00654398l 0.416463, -0.00675433l 0.416463, -0.00697395l 0.416463,
 -0.00720337l 0.416463, -0.00744315l 0.416463, -0.00769388l 0.416463, -0.00795621l 0.416463, -0.00823081l 0.416463, -0.00851843l 0.416463, -0.00881984l 0.416463, -0.00913591l 0.416463, -0.00946754l 0.416463, -0.0098157l 0.416463, -0.0101815l
 0.416463, -0.0105659l 0.416463, -0.0109704l 0.416463, -0.0113961l 0.416463, -0.0118446l 0.416463, -0.0123173l 0.416463, -0.012816l 0.416463, -0.0133424l 0.416463, -0.0138987" fill="none" stroke="#ff0000" stroke-width="2"/>
<path d="M292.772,259.694l 0.416463, -0.0144868l 0.416463, -0.0151092l 0.416463, -0.0157684l 0.416463, -0.0164673l 0.416463, -0.0172088l 0.416463, -0.0179964l 0.416463, -0.0188336l 0.416463, -0.0197246l 0.416463, -0.0206737l 0.416463, -0.0216858l
 0.416463, -0.0227663l 0.416463, -0.0239211l 0.416463, -0.0251568l 0.416463, -0.0264807l 0.416463, -0.0279009l 0.416463, -0.0294264l 0.416463, -0.0310672l 0.416463, -0.0328347l 0.416463, -0.0347413l 0.416463, -0.0368012l 0.416463, -0.0390303l
 0.416463, -0.0414466l 0.416463, -0.0440703l 0.416463, -0.0469244l 0.416463, -0.0500351l 0.416463, -0.0534322l 0.416463, -0.0571499l 0.416463, -0.0612272l 0.416463, -0.0657093l 0.416463, -0.0706482l 0.416463, -0.0761043l 0.416463, -0.0821481l
 0.416463, -0.0888616l 0.416463, -0.0963415l 0.416463, -0.104702l 0.416463, -0.114077l 0.416463, -0.124628l 0.416463, -0.136547l 0.416463, -0.150067l 0.416463, -0.165468l 0.416463, -0.183094l 0.416463, -0.203367l 0.416463, -0.226807l 0.416463,
 -0.254069l 0.416463, -0.285972l 0.416463, -0.323562l 0.416463, -0.36818l 0.416463, -0.421571l 0.416463, -0.486032" fill="none" stroke="#ff0000" stroke-width="2"/>
<path d="M313.179,254.804l 0.416463, -0.564626" fill="none" stroke="#ff0000" stroke-width="2"/>
<rect x="68.9019" y="35.4307" width="204.31" height="57.8912" fill="white"/>
<path d="M68.9019,93.3219h 204.31" fill="none" stroke="black"/>
<path d="M273.211,93.3219v -57.8912" fill="none" stroke="black"/>
<path d="M273.211,35.4307h -204.31" fill="none" stroke="black"/>
<path d="M68.9019,35.4307v 57.8912" fill="none" stroke="black"/>
<text xml:space="preserve" x="90.1095" y="46.2982" fill="#3333ff" font-size="12.7156" font-family="Helvetica"> / ndf </text>
<text xml:space="preserve" x="85.629" y="42.1164" fill="#3333ff" font-size="8.64372" font-family="Helvetica">2</text>
<text xml:space="preserve" x="79.0576" y="46.2982" fill="#3333ff" font-size="12.7156" font-family="Times">&#0967;</text>
<text xml:space="preserve" x="197.043" y="47.1943" fill="#3333ff" font-size="12.7156" font-family="Helvetica"> 0.5099 / 12</text>
<text xml:space="preserve" x="79.0576" y="61.8305" fill="#3333ff" font-size="12.7156" font-family="Helvetica">Tc       </text>
<text xml:space="preserve" x="228.108" y="61.5318" fill="#3333ff" font-size="12.7156" font-family="Helvetica"> 0.144</text>
<text xml:space="preserve" x="221.238" y="61.5318" fill="#3333ff" font-size="12.7156" font-family="Times">&#0177;</text>
<text xml:space="preserve" x="182.706" y="61.5318" fill="#3333ff" font-size="12.7156" font-family="Helvetica"> 2.252 </text>
<text xml:space="preserve" x="79.0576" y="73.4798" fill="#3333ff" font-size="12.7156" font-family="Helvetica">exp      </text>
<text xml:space="preserve" x="228.108" y="75.8693" fill="#3333ff" font-size="12.7156" font-family="Helvetica"> 2.024</text>
<text xml:space="preserve" x="221.238" y="75.8693" fill="#3333ff" font-size="12.7156" font-family="Times">&#0177;</text>
<text xml:space="preserve" x="182.706" y="75.8693" fill="#3333ff" font-size="12.7156" font-family="Helvetica"> 1.808 </text>
<text xml:space="preserve" x="79.0576" y="90.8042" fill="#3333ff" font-size="12.7156" font-family="Helvetica">coeff    </text>
<text xml:space="preserve" x="221.238" y="90.5055" fill="#3333ff" font-size="12.7156" font-family="Helvetica"> 0.2054</text>
<text xml:space="preserve" x="214.368" y="90.5055" fill="#3333ff" font-size="12.7156" font-family="Times">&#0177;</text>
<text xml:space="preserve" x="161.797" y="90.5055" fill="#3333ff" font-size="12.7156" font-family="Helvetica"> 0.05622 </text>
<text xml:space="preserve" x="106.538" y="14.0388" fill="black" font-size="14.1998" font-family="Helvetica">Magnetic Susceptibility on Temperature for Different Size</text>
<rect x="401.652" y="36.3797" width="100.064" height="48.4009" fill="white"/>
<path d="M401.652,84.7806h 100.064" fill="none" stroke="black"/>
<path d="M501.716,84.7806v -48.4009" fill="none" stroke="black"/>
<path d="M501.716,36.3797h -100.064" fill="none" stroke="black"/>
<path d="M401.652,36.3797v 48.4009" fill="none" stroke="black"/>
<text xml:space="preserve" x="440.781" y="46.2982" fill="black" font-size="7.56589" font-family="Helvetica">Legend</text>
<text xml:space="preserve" x="426.444" y="63.0253" fill="black" font-size="7.56589" font-family="Helvetica">Lattice 100x100</text>
<path d="M405.404,60.5802h 17.5112" fill="none" stroke="black"/>
<path d="M414.16,59.3854v -3.64529" fill="none" stroke="black"/>
<path d="M414.16,61.775v 3.64529" fill="none" stroke="black"/>
<path d="M412.846,55.7401h 2.62668" fill="none" stroke="black"/>
<path d="M412.846,65.4203h 2.62668" fill="none" stroke="black"/>
<g stroke="#3333ff" stroke-width="1" fill="#3333ff">
<polygon points=" 414.16, 59.3854 415.354, 61.775 412.965, 61.775"/>
</g>
<text xml:space="preserve" x="426.444" y="79.155" fill="black" font-size="7.56589" font-family="Helvetica">Fit Function 100x100</text>
<path d="M405.404,76.7138h 17.5112" fill="none" stroke="#ff0000" stroke-width="2"/></svg>
