<?xml version="1.0" encoding="UTF-8" standalone="no"?>
<svg
   xmlns:dc="http://purl.org/dc/elements/1.1/"
   xmlns:cc="http://creativecommons.org/ns#"
   xmlns:rdf="http://www.w3.org/1999/02/22-rdf-syntax-ns#"
   xmlns:svg="http://www.w3.org/2000/svg"
   xmlns="http://www.w3.org/2000/svg"
   xmlns:xlink="http://www.w3.org/1999/xlink"
   id="svg2505"
   version="1.1"
   viewBox="0 0 210 297"
   height="297mm"
   width="210mm">
  <defs
     id="defs2499">
    <marker
       style="overflow:visible"
       id="marker7702"
       refX="0.0"
       refY="0.0"
       orient="auto">
      <path
         transform="scale(0.8) translate(12.5,0)"
         style="fill-rule:evenodd;stroke:none;stroke-width:1pt;stroke-opacity:1;fill:#000000;fill-opacity:1"
         d="M 0.0,0.0 L 5.0,-5.0 L -12.5,0.0 L 5.0,5.0 L 0.0,0.0 z "
         id="path7700" />
    </marker>
    <marker
       style="overflow:visible"
       id="marker7656"
       refX="0.0"
       refY="0.0"
       orient="auto">
      <path
         transform="scale(0.8) translate(12.5,0)"
         style="fill-rule:evenodd;stroke:none;stroke-width:1pt;stroke-opacity:1;fill:#000000;fill-opacity:1"
         d="M 0.0,0.0 L 5.0,-5.0 L -12.5,0.0 L 5.0,5.0 L 0.0,0.0 z "
         id="path7654" />
    </marker>
    <marker
       style="overflow:visible"
       id="marker7616"
       refX="0.0"
       refY="0.0"
       orient="auto">
      <path
         transform="scale(0.8) translate(12.5,0)"
         style="fill-rule:evenodd;stroke:none;stroke-width:1pt;stroke-opacity:1;fill:#000000;fill-opacity:1"
         d="M 0.0,0.0 L 5.0,-5.0 L -12.5,0.0 L 5.0,5.0 L 0.0,0.0 z "
         id="path7614" />
    </marker>
    <marker
       style="overflow:visible"
       id="marker7582"
       refX="0.0"
       refY="0.0"
       orient="auto">
      <path
         transform="scale(0.8) translate(12.5,0)"
         style="fill-rule:evenodd;stroke:none;stroke-width:1pt;stroke-opacity:1;fill:#000000;fill-opacity:1"
         d="M 0.0,0.0 L 5.0,-5.0 L -12.5,0.0 L 5.0,5.0 L 0.0,0.0 z "
         id="path7580" />
    </marker>
    <marker
       style="overflow:visible"
       id="marker7554"
       refX="0.0"
       refY="0.0"
       orient="auto">
      <path
         transform="scale(0.8) translate(12.5,0)"
         style="fill-rule:evenodd;stroke:none;stroke-width:1pt;stroke-opacity:1;fill:#000000;fill-opacity:1"
         d="M 0.0,0.0 L 5.0,-5.0 L -12.5,0.0 L 5.0,5.0 L 0.0,0.0 z "
         id="path7552" />
    </marker>
    <marker
       style="overflow:visible"
       id="marker7532"
       refX="0.0"
       refY="0.0"
       orient="auto">
      <path
         transform="scale(0.8) translate(12.5,0)"
         style="fill-rule:evenodd;stroke:none;stroke-width:1pt;stroke-opacity:1;fill:#000000;fill-opacity:1"
         d="M 0.0,0.0 L 5.0,-5.0 L -12.5,0.0 L 5.0,5.0 L 0.0,0.0 z "
         id="path7530" />
    </marker>
    <marker
       style="overflow:visible"
       id="Arrow1Lstart"
       refX="0.0"
       refY="0.0"
       orient="auto">
      <path
         transform="scale(0.8) translate(12.5,0)"
         style="fill-rule:evenodd;stroke:none;stroke-width:1pt;stroke-opacity:1;fill:#000000;fill-opacity:1"
         d="M 0.0,0.0 L 5.0,-5.0 L -12.5,0.0 L 5.0,5.0 L 0.0,0.0 z "
         id="path7242" />
    </marker>
    <linearGradient
       id="linearGradient3526">
      <stop
         id="stop3522"
         offset="0"
         style="stop-color:#ffff00;stop-opacity:1;" />
      <stop
         id="stop3524"
         offset="1"
         style="stop-color:#ffff00;stop-opacity:0;" />
    </linearGradient>
    <linearGradient
       id="linearGradient3245">
      <stop
         id="stop3241"
         offset="0"
         style="stop-color:#9dff7b;stop-opacity:1;" />
      <stop
         id="stop3243"
         offset="1"
         style="stop-color:#9dff7b;stop-opacity:0;" />
    </linearGradient>
    <linearGradient
       id="linearGradient3189">
      <stop
         id="stop3185"
         offset="0"
         style="stop-color:#00c148;stop-opacity:1;" />
      <stop
         id="stop3187"
         offset="1"
         style="stop-color:#00c148;stop-opacity:0;" />
    </linearGradient>
    <linearGradient
       id="linearGradient3181">
      <stop
         id="stop3177"
         offset="0"
         style="stop-color:#c9192f;stop-opacity:1;" />
      <stop
         id="stop3179"
         offset="1"
         style="stop-color:#c9192f;stop-opacity:0;" />
    </linearGradient>
    <linearGradient
       id="linearGradient3173">
      <stop
         id="stop3169"
         offset="0"
         style="stop-color:#004aff;stop-opacity:1;" />
      <stop
         id="stop3171"
         offset="1"
         style="stop-color:#004aff;stop-opacity:0;" />
    </linearGradient>
    <linearGradient
       id="linearGradient3165">
      <stop
         id="stop3161"
         offset="0"
         style="stop-color:#00ffff;stop-opacity:1;" />
      <stop
         id="stop3163"
         offset="1"
         style="stop-color:#00ffff;stop-opacity:0;" />
    </linearGradient>
    <linearGradient
       gradientUnits="userSpaceOnUse"
       y2="134.28125"
       x2="38.931549"
       y1="113.49256"
       x1="38.931549"
       id="linearGradient3167"
       xlink:href="#linearGradient3165" />
    <linearGradient
       gradientUnits="userSpaceOnUse"
       y2="81.553566"
       x2="39.120537"
       y1="60.575886"
       x1="39.120537"
       id="linearGradient3175"
       xlink:href="#linearGradient3173" />
    <linearGradient
       gradientUnits="userSpaceOnUse"
       y2="81.742554"
       x2="104.32143"
       y1="60.575886"
       x1="103.94346"
       id="linearGradient3183"
       xlink:href="#linearGradient3181" />
    <linearGradient
       gradientUnits="userSpaceOnUse"
       y2="81.742554"
       x2="167.63243"
       y1="60.575886"
       x1="167.44344"
       id="linearGradient3191"
       xlink:href="#linearGradient3189" />
    <linearGradient
       gradientUnits="userSpaceOnUse"
       y2="111.79166"
       x2="166.68748"
       y1="132.76935"
       x1="166.68748"
       id="linearGradient3225"
       xlink:href="#linearGradient3165" />
    <linearGradient
       gradientTransform="translate(-64.066947,-5.9828684e-6)"
       y2="111.79166"
       x2="166.68748"
       y1="132.76935"
       x1="166.68748"
       gradientUnits="userSpaceOnUse"
       id="linearGradient3229"
       xlink:href="#linearGradient3165" />
    <linearGradient
       gradientTransform="translate(0.1613026)"
       gradientUnits="userSpaceOnUse"
       y2="134.28125"
       x2="103.75447"
       y1="113.68154"
       x1="103.75447"
       id="linearGradient3247"
       xlink:href="#linearGradient3245" />
    <linearGradient
       gradientTransform="translate(64.06694)"
       y2="134.28125"
       x2="103.75447"
       y1="113.68154"
       x1="103.75447"
       gradientUnits="userSpaceOnUse"
       id="linearGradient3255"
       xlink:href="#linearGradient3245" />
    <linearGradient
       gradientUnits="userSpaceOnUse"
       y2="26.797197"
       x2="104.22353"
       y1="7.4702311"
       x1="104.51042"
       id="linearGradient3528"
       xlink:href="#linearGradient3526" />
  </defs>
  <metadata
     id="metadata2502">
    <rdf:RDF>
      <cc:Work
         rdf:about="">
        <dc:format>image/svg+xml</dc:format>
        <dc:type
           rdf:resource="http://purl.org/dc/dcmitype/StillImage" />
        <dc:title></dc:title>
      </cc:Work>
    </rdf:RDF>
  </metadata>
  <g
     id="layer1">
    <rect
       y="60.575886"
       x="13.607142"
       height="18.898813"
       width="53.105656"
       id="rect2511"
       style="fill:url(#linearGradient3175);fill-opacity:1;stroke:none;stroke-width:0.26458332;stroke-opacity:0.44285715" />
    <rect
       style="fill:url(#linearGradient3183);fill-opacity:1;stroke:none;stroke-width:0.26458332;stroke-opacity:0.44285715"
       id="rect2541"
       width="53.105656"
       height="18.898813"
       x="77.67411"
       y="60.575886" />
    <rect
       y="60.575886"
       x="141.74106"
       height="18.898813"
       width="53.105656"
       id="rect2543"
       style="fill:url(#linearGradient3191);fill-opacity:1;stroke:none;stroke-width:0.26458332;stroke-opacity:0.44285715" />
    <rect
       style="fill:url(#linearGradient3167);fill-opacity:1;stroke:none;stroke-width:0.26458332;stroke-opacity:0.44285715"
       id="rect2545"
       width="53.105656"
       height="18.898813"
       x="13.607143"
       y="113.68154" />
    <rect
       style="fill:url(#linearGradient3225);fill-opacity:1;stroke:none;stroke-width:0.26458332;stroke-opacity:0.44285715"
       id="rect2549"
       width="53.105656"
       height="18.898813"
       x="141.74106"
       y="113.68154" />
    <rect
       y="7.4702282"
       x="77.67411"
       height="18.898813"
       width="53.105656"
       id="rect2555"
       style="fill:url(#linearGradient3528);fill-opacity:1;stroke:none;stroke-width:0.26458332;stroke-opacity:0.44285715" />
    <rect
       y="113.68154"
       x="77.67411"
       height="18.898813"
       width="53.105656"
       id="rect3227"
       style="fill:url(#linearGradient3229);fill-opacity:1;stroke:none;stroke-width:0.26458332;stroke-opacity:0.44285715" />
    <rect
       style="fill:url(#linearGradient3247);fill-opacity:1;stroke:none;stroke-width:0.26458332;stroke-opacity:0.44285715"
       id="rect3237"
       width="53.105656"
       height="18.898813"
       x="77.835411"
       y="113.68154" />
    <rect
       style="fill:url(#linearGradient3255);fill-opacity:1;stroke:none;stroke-width:0.26458332;stroke-opacity:0.44285715"
       id="rect3253"
       width="53.105656"
       height="18.898813"
       x="141.74106"
       y="113.68154" />
    <path
       style="fill:#ff552f;stroke:#000000;stroke-width:0.17390248px;stroke-linecap:butt;stroke-linejoin:miter;stroke-opacity:1;fill-opacity:0"
       d="m 104.48551,80.018987 -4.736104,8.203154"
       id="path3295" />
    <path
       id="path3297"
       d="m 104.48551,80.018987 4.73609,8.203154"
       style="fill:#ff552f;stroke:#000000;stroke-width:0.17390248px;stroke-linecap:butt;stroke-linejoin:miter;stroke-opacity:1;fill-opacity:0" />
    <path
       id="path3311"
       d="m 165.55458,80.270174 -9.46981,-0.212191"
       style="fill:#ff552f;fill-opacity:0;stroke:#000000;stroke-width:0.17390248px;stroke-linecap:butt;stroke-linejoin:miter;stroke-opacity:1" />
    <path
       style="fill:#ff552f;fill-opacity:0;stroke:#000000;stroke-width:0.17390248px;stroke-linecap:butt;stroke-linejoin:miter;stroke-opacity:1"
       d="m 165.55458,80.270174 -4.91865,8.095005"
       id="path3313" />
    <path
       id="path3329"
       d="m 165.55458,80.270172 c 0,0 -0.0635,-0.116058 -0.0635,-0.116058 -12.21381,6.682274 -48.79176,26.845156 -61.00557,33.527426 12.21381,-6.68227 48.91875,-26.613037 61.13257,-33.29531 0,0 -0.0635,-0.116058 -0.0635,-0.116058 z"
       style="fill:#000000;fill-rule:nonzero;stroke:none;stroke-width:0.26458332px;stroke-linecap:butt;stroke-linejoin:miter;stroke-opacity:1" />
    <path
       id="path3333"
       d="m 104.48551,80.018987 c 0,0 -0.13229,0 -0.13229,0 0,6.732511 0.13229,26.930043 0.13229,33.662553 0,-6.73251 0.13229,-26.930042 0.13229,-33.662553 0,0 -0.13229,0 -0.13229,0 z"
       style="fill:#000000;fill-rule:nonzero;stroke:none;stroke-width:0.26458332px;stroke-linecap:butt;stroke-linejoin:miter;stroke-opacity:1" />
    <path
       style="fill:#000000;fill-rule:nonzero;stroke:none;stroke-width:0.26458332px;stroke-linecap:butt;stroke-linejoin:miter;stroke-opacity:1"
       d="m 165.55458,80.270172 c 0,0 -0.0635,-0.116058 -0.0635,-0.116058 -12.21381,6.682274 -48.79176,26.845156 -61.00557,33.527426 12.21381,-6.68227 48.91875,-26.613037 61.13257,-33.29531 0,0 -0.0635,-0.116058 -0.0635,-0.116058 z"
       id="path3350" />
    <path
       id="path3354"
       d="m 43.41644,80.270172 c 0,0 -0.0635,0.116058 -0.0635,0.116058 12.213814,6.682273 48.918752,26.61304 61.132566,33.29531 -12.213814,-6.68227 -48.79176,-26.845152 -61.005574,-33.527426 0,0 -0.0635,0.116058 -0.0635,0.116058 z"
       style="fill:#000000;fill-rule:nonzero;stroke:none;stroke-width:0.26458332px;stroke-linecap:butt;stroke-linejoin:miter;stroke-opacity:1" />
    <path
       style="fill:#ff552f;fill-opacity:0;stroke:#000000;stroke-width:0.17390248px;stroke-linecap:butt;stroke-linejoin:miter;stroke-opacity:1"
       d="m 43.35294,80.38623 9.46981,-0.212191"
       id="path3358" />
    <path
       id="path3360"
       d="m 43.35294,80.38623 4.91865,8.095005"
       style="fill:#ff552f;fill-opacity:0;stroke:#000000;stroke-width:0.17390248px;stroke-linecap:butt;stroke-linejoin:miter;stroke-opacity:1" />
    <path
       id="path3394"
       d="m 172.1047,80.018987 -4.7361,8.203154"
       style="fill:#ff552f;fill-opacity:0;stroke:#000000;stroke-width:0.17390248px;stroke-linecap:butt;stroke-linejoin:miter;stroke-opacity:1" />
    <path
       style="fill:#ff552f;fill-opacity:0;stroke:#000000;stroke-width:0.17390248px;stroke-linecap:butt;stroke-linejoin:miter;stroke-opacity:1"
       d="m 172.1047,80.018987 4.73609,8.203154"
       id="path3396" />
    <path
       style="fill:#000000;fill-rule:nonzero;stroke:none;stroke-width:0.26458332px;stroke-linecap:butt;stroke-linejoin:miter;stroke-opacity:1"
       d="m 172.1047,80.018987 c 0,0 -0.13229,0 -0.13229,0 0,6.732511 0.13229,26.930043 0.13229,33.662553 0,-6.73251 0.13229,-26.930042 0.13229,-33.662553 0,0 -0.13229,0 -0.13229,0 z"
       id="path3398" />
    <path
       style="fill:#000000;fill-rule:nonzero;stroke:none;stroke-width:0.26458332px;stroke-linecap:butt;stroke-linejoin:miter;stroke-opacity:1"
       d="m 111.03563,80.270172 c 0,0 -0.0635,0.116058 -0.0635,0.116058 12.21382,6.682273 48.91876,26.61304 61.13257,33.29531 -12.21381,-6.68227 -48.79176,-26.845152 -61.00557,-33.527426 0,0 -0.0635,0.116058 -0.0635,0.116058 z"
       id="path3402" />
    <path
       id="path3406"
       d="m 110.97213,80.38623 9.46981,-0.212191"
       style="fill:#ff552f;fill-opacity:0;stroke:#000000;stroke-width:0.17390248px;stroke-linecap:butt;stroke-linejoin:miter;stroke-opacity:1" />
    <path
       style="fill:#ff552f;fill-opacity:0;stroke:#000000;stroke-width:0.17390248px;stroke-linecap:butt;stroke-linejoin:miter;stroke-opacity:1"
       d="m 110.97213,80.38623 4.91865,8.095005"
       id="path3408" />
    <path
       id="path3410"
       d="m 39.478875,80.38623 -4.736104,8.203154"
       style="fill:#ff552f;fill-opacity:0;stroke:#000000;stroke-width:0.17390248px;stroke-linecap:butt;stroke-linejoin:miter;stroke-opacity:1" />
    <path
       style="fill:#ff552f;fill-opacity:0;stroke:#000000;stroke-width:0.17390248px;stroke-linecap:butt;stroke-linejoin:miter;stroke-opacity:1"
       d="m 39.478875,80.38623 4.73609,8.203154"
       id="path3412" />
    <path
       id="path3418"
       d="m 37.685002,83.31801 c 0,0 -0.132292,0 -0.132292,0 0,6.072706 0.132292,24.29082 0.132292,30.36353 0,-6.07271 0.132292,-24.290824 0.132292,-30.36353 0,0 -0.132292,0 -0.132292,0 z"
       style="fill:#000000;fill-rule:nonzero;stroke:none;stroke-width:0.26458332px;stroke-linecap:butt;stroke-linejoin:miter;stroke-opacity:1" />
    <path
       style="fill:#000000;fill-rule:nonzero;stroke:none;stroke-width:0.26458332px;stroke-linecap:butt;stroke-linejoin:miter;stroke-opacity:1"
       d="m 41.159506,83.31801 c 0,0 -0.132292,0 -0.132292,0 0,6.072706 0.132292,24.29082 0.132292,30.36353 0,-6.07271 0.132292,-24.290824 0.132292,-30.36353 0,0 -0.132292,0 -0.132292,0 z"
       id="path3422" />
    <path
       id="path3426"
       d="m 60.859094,80.920769 9.46981,-0.212191"
       style="fill:#ff552f;fill-opacity:0;stroke:#000000;stroke-width:0.17390248px;stroke-linecap:butt;stroke-linejoin:miter;stroke-opacity:1" />
    <path
       style="fill:#ff552f;fill-opacity:0;stroke:#000000;stroke-width:0.17390248px;stroke-linecap:butt;stroke-linejoin:miter;stroke-opacity:1"
       d="m 60.859094,80.920769 4.91865,8.095005"
       id="path3428" />
    <path
       id="path3430"
       d="m 60.859092,80.920769 c 0,0 -0.03737,0.126903 -0.03737,0.126903 22.249122,6.552154 89.03386,26.081718 111.28298,32.633868 -22.24912,-6.55215 -88.959115,-26.33552 -111.208236,-32.887674 0,0 -0.03737,0.126903 -0.03737,0.126903 z"
       style="fill:#000000;fill-rule:nonzero;stroke:none;stroke-width:0.26458332px;stroke-linecap:butt;stroke-linejoin:miter;stroke-opacity:1" />
    <path
       style="fill:#ff552f;fill-opacity:0;stroke:#000000;stroke-width:0.17390248px;stroke-linecap:butt;stroke-linejoin:miter;stroke-opacity:1"
       d="m 104.21824,26.565081 -4.7361,8.203154"
       id="path3434" />
    <path
       id="path3436"
       d="m 104.21824,26.565081 4.73609,8.203154"
       style="fill:#ff552f;fill-opacity:0;stroke:#000000;stroke-width:0.17390248px;stroke-linecap:butt;stroke-linejoin:miter;stroke-opacity:1" />
    <path
       id="path3438"
       d="m 104.21824,26.565081 c 0,0 -0.13229,0 -0.13229,0 0,6.732511 0.13229,26.930042 0.13229,33.662553 0,-6.732511 0.13229,-26.930042 0.13229,-33.662553 0,0 -0.13229,0 -0.13229,0 z"
       style="fill:#000000;fill-rule:nonzero;stroke:none;stroke-width:0.26458332px;stroke-linecap:butt;stroke-linejoin:miter;stroke-opacity:1" />
    <path
       style="fill:#000000;fill-rule:nonzero;stroke:none;stroke-width:0.26458332px;stroke-linecap:butt;stroke-linejoin:miter;stroke-opacity:1"
       d="m 104.08595,26.565081 c 0,0 -0.0635,-0.116058 -0.0635,-0.116058 -12.21381,6.682274 -48.791756,26.845152 -61.00557,33.527426 12.213814,-6.682274 48.918752,-26.613037 61.13257,-33.29531 0,0 -0.0635,-0.116058 -0.0635,-0.116058 z"
       id="path3446" />
    <path
       id="path3470"
       d="M 104.40079,26.67323 94.93098,26.461039"
       style="fill:#ff552f;fill-opacity:0;stroke:#000000;stroke-width:0.17390248px;stroke-linecap:butt;stroke-linejoin:miter;stroke-opacity:1" />
    <path
       style="fill:#ff552f;fill-opacity:0;stroke:#000000;stroke-width:0.17390248px;stroke-linecap:butt;stroke-linejoin:miter;stroke-opacity:1"
       d="m 104.40079,26.67323 -4.91865,8.095005"
       id="path3472" />
    <text
       id="text3476"
       y="19.418667"
       x="86.826599"
       style="font-style:normal;font-weight:normal;font-size:9.05843735px;line-height:1.25;font-family:sans-serif;letter-spacing:0px;word-spacing:0px;fill:#000000;fill-opacity:1;stroke:none;stroke-width:0.22646095"
       xml:space="preserve"><tspan
         style="stroke-width:0.22646095"
         y="19.418667"
         x="86.826599"
         id="tspan3474">TObject</tspan></text>
    <text
       id="text3496"
       y="73.069572"
       x="92.797424"
       style="font-style:normal;font-weight:normal;font-size:8.16593456px;line-height:1.25;font-family:sans-serif;letter-spacing:0px;word-spacing:0px;fill:#000000;fill-opacity:1;stroke:none;stroke-width:0.20414837"
       xml:space="preserve"><tspan
         style="stroke-width:0.20414837"
         y="73.069572"
         x="92.797424"
         id="tspan3494">Block</tspan></text>
    <text
       id="text3500"
       y="72.46283"
       x="160.09683"
       style="font-style:normal;font-weight:normal;font-size:6.6962781px;line-height:1.25;font-family:sans-serif;letter-spacing:0px;word-spacing:0px;fill:#000000;fill-opacity:1;stroke:none;stroke-width:0.16740695"
       xml:space="preserve"><tspan
         style="stroke-width:0.16740695"
         y="72.46283"
         x="160.09683"
         id="tspan3498">INFO</tspan></text>
    <text
       id="text3504"
       y="72.940834"
       x="26.695415"
       style="font-style:normal;font-weight:normal;font-size:7.8205924px;line-height:1.25;font-family:sans-serif;letter-spacing:0px;word-spacing:0px;fill:#000000;fill-opacity:1;stroke:none;stroke-width:0.1955148"
       xml:space="preserve"><tspan
         style="stroke-width:0.1955148"
         y="72.940834"
         x="26.695415"
         id="tspan3502">Lattice</tspan></text>
    <text
       id="text3508"
       y="125.99443"
       x="16.899565"
       style="font-style:normal;font-weight:normal;font-size:7.6809597px;line-height:1.25;font-family:sans-serif;letter-spacing:0px;word-spacing:0px;fill:#000000;fill-opacity:1;stroke:none;stroke-width:0.19202399"
       xml:space="preserve"><tspan
         style="stroke-width:0.19202399"
         y="125.99443"
         x="16.899565"
         id="tspan3506">DrawLattice</tspan></text>
    <text
       id="text3512"
       y="125.43779"
       x="77.349678"
       style="font-style:normal;font-weight:normal;font-size:6.18783951px;line-height:1.25;font-family:sans-serif;letter-spacing:0px;word-spacing:0px;fill:#000000;fill-opacity:1;stroke:none;stroke-width:0.15469599"
       xml:space="preserve"><tspan
         style="stroke-width:0.15469599"
         y="125.43779"
         x="77.349678"
         id="tspan3510">SimulationLattice</tspan></text>
    <text
       id="text3516"
       y="124.86544"
       x="144.79845"
       style="font-style:normal;font-weight:normal;font-size:6.28714323px;line-height:1.25;font-family:sans-serif;letter-spacing:0px;word-spacing:0px;fill:#000000;fill-opacity:1;stroke:none;stroke-width:0.1571786"
       xml:space="preserve"><tspan
         style="stroke-width:0.1571786"
         y="124.86544"
         x="144.79845"
         id="tspan3514">AnalysisLattice</tspan></text>
    <text
       id="text3520"
       y="156.58185"
       x="169.9003"
       style="font-style:normal;font-weight:normal;font-size:10.58333302px;line-height:1.25;font-family:sans-serif;letter-spacing:0px;word-spacing:0px;fill:#000000;fill-opacity:1;stroke:none;stroke-width:0.26458332"
       xml:space="preserve"><tspan
         style="stroke-width:0.26458332"
         y="165.94562"
         x="169.9003"
         id="tspan3518" /></text>
  </g>
</svg>
